<?xml version="1.0" standalone="no"?>
<!DOCTYPE svg PUBLIC "-//W3C//DTD SVG 20010904//EN"
 "http://www.w3.org/TR/2001/REC-SVG-20010904/DTD/svg10.dtd">
<svg version="1.0" xmlns="http://www.w3.org/2000/svg"
 width="558.000000pt" height="558.000000pt" viewBox="0 0 558.000000 558.000000"
 preserveAspectRatio="xMidYMid meet">
<metadata>
Created by potrace 1.14, written by Peter Selinger 2001-2017
</metadata>
<g transform="translate(0.000000,558.000000) scale(0.100000,-0.100000)"
fill="#000000" stroke="none">
<path d="M3794 5526 c-9 -18 -9 -28 0 -37 7 -8 7 -10 0 -6 -7 4 -11 -9 -12
-35 -1 -23 -5 -44 -10 -47 -7 -6 -13 -25 -15 -53 -1 -10 -4 -18 -8 -18 -3 0
-6 -8 -6 -17 0 -37 -3 -44 -15 -37 -9 5 -9 2 1 -9 9 -11 10 -17 2 -17 -6 0
-10 -3 -10 -7 1 -5 0 -10 -1 -13 -5 -15 -11 -47 -11 -63 0 -9 -4 -15 -10 -12
-5 4 -9 -8 -9 -25 0 -19 -4 -29 -10 -25 -6 4 -10 3 -9 -2 4 -24 -2 -53 -10
-48 -6 3 -8 -3 -6 -14 2 -11 -3 -25 -10 -31 -8 -6 -11 -18 -8 -26 3 -8 -1 -14
-8 -14 -7 0 -9 -3 -6 -7 4 -3 -1 -15 -10 -26 -10 -11 -12 -17 -5 -13 11 7 11
4 0 -15 -7 -13 -17 -27 -21 -30 -5 -3 -9 -10 -9 -15 0 -5 -4 -8 -9 -6 -5 1 -8
-1 -8 -5 4 -25 -2 -43 -13 -37 -6 4 -8 3 -5 -3 7 -11 -14 -63 -25 -63 -5 0 -8
-6 -8 -13 0 -7 -11 -25 -25 -40 -14 -15 -23 -27 -20 -27 8 0 -44 -70 -69 -92
-10 -10 -15 -18 -11 -18 4 0 -2 -8 -13 -19 -12 -10 -22 -21 -22 -25 0 -3 -14
-19 -31 -36 -18 -16 -28 -30 -23 -30 5 0 -2 -7 -14 -16 -12 -8 -22 -19 -22
-25 0 -9 -5 -16 -58 -74 -12 -14 -20 -25 -17 -25 5 0 -17 -29 -42 -55 -7 -8
-13 -19 -13 -25 0 -6 -5 -8 -12 -4 -8 5 -9 2 -5 -9 3 -10 2 -17 -3 -17 -6 0
-10 -6 -10 -14 0 -8 -7 -17 -16 -20 -8 -3 -12 -10 -9 -16 3 -5 1 -10 -4 -10
-6 0 -11 -8 -11 -17 0 -9 -7 -24 -16 -34 -8 -9 -16 -24 -18 -32 -1 -8 -10 -26
-20 -42 -11 -17 -13 -25 -5 -20 11 6 12 5 2 -6 -7 -7 -13 -24 -13 -37 0 -13
-4 -20 -10 -17 -6 4 -10 -7 -10 -24 0 -17 -5 -31 -11 -31 -8 0 -8 -4 0 -14 9
-10 9 -15 1 -18 -6 -2 -11 -22 -12 -46 0 -23 -3 -40 -7 -38 -4 3 -8 -4 -8 -15
-1 -12 3 -17 9 -13 7 5 8 2 3 -5 -11 -19 -13 -81 -3 -87 5 -3 4 -12 -3 -20 -6
-8 -7 -14 -2 -14 5 0 9 -10 10 -22 4 -75 7 -98 15 -98 4 0 8 -11 8 -25 0 -14
5 -25 11 -25 6 0 9 -9 6 -19 -3 -12 1 -22 10 -25 9 -4 13 -14 10 -26 -3 -10
-1 -20 3 -22 5 -2 10 -10 12 -18 2 -8 8 -19 15 -25 6 -5 20 -28 32 -49 11 -22
24 -42 29 -45 5 -3 21 -24 35 -46 15 -22 27 -36 27 -31 0 5 16 -10 36 -33 20
-22 41 -41 46 -41 5 0 20 -12 33 -26 14 -15 25 -23 25 -18 0 5 5 1 11 -8 5
-10 17 -18 24 -18 8 0 15 -4 15 -10 0 -5 9 -10 21 -10 11 0 17 -4 14 -10 -3
-5 3 -10 15 -10 12 0 18 -4 15 -10 -3 -5 3 -10 14 -10 12 0 21 -5 21 -11 0 -5
4 -8 9 -5 11 7 63 -19 54 -27 -3 -4 4 -5 16 -2 11 2 27 -3 35 -11 9 -8 17 -10
21 -4 3 5 20 1 41 -10 35 -20 61 -28 34 -10 -8 5 -10 10 -4 10 6 0 14 -3 18
-7 4 -4 19 -9 34 -9 15 -1 44 -5 65 -8 21 -3 35 -2 33 3 -3 4 1 8 9 8 8 0 12
-4 9 -9 -8 -12 10 -10 23 3 8 8 13 8 17 0 5 -7 13 -8 24 -2 9 5 19 9 22 9 33
0 120 16 120 23 0 5 3 8 8 8 25 -4 42 2 36 14 -5 7 0 6 11 -3 11 -9 16 -10 11
-2 -5 8 1 12 19 12 15 0 24 4 20 10 -3 5 0 10 9 10 15 0 77 30 86 42 3 3 12 8
20 10 21 5 39 22 32 32 -3 5 0 6 6 2 6 -4 19 2 29 14 10 11 23 20 31 20 7 0
10 5 7 10 -3 6 0 10 7 10 7 0 28 16 45 35 18 19 38 35 44 35 7 0 9 3 6 6 -3 4
5 15 18 26 14 11 25 26 25 34 0 8 4 13 9 10 5 -4 15 7 23 24 7 16 17 30 21 30
5 0 5 5 2 10 -3 6 -1 10 4 10 6 0 11 9 11 21 0 11 5 17 10 14 6 -3 10 1 10 10
0 9 10 31 22 48 12 17 16 27 10 23 -7 -4 -3 9 8 28 11 20 17 36 14 36 -4 0 0
8 7 17 12 15 12 16 -1 8 -12 -7 -13 -6 -3 6 6 8 13 28 14 44 2 17 8 33 13 37
6 4 4 14 -5 24 -8 10 -9 15 -3 11 7 -4 11 19 11 73 0 54 -4 77 -11 73 -6 -4
-5 1 3 10 7 9 9 17 4 17 -5 0 -9 10 -8 22 1 13 -4 42 -11 65 -7 24 -10 43 -7
43 3 0 0 6 -6 14 -6 7 -12 25 -13 39 -1 14 -4 24 -7 22 -5 -6 -31 43 -31 59 0
7 -9 22 -20 34 -12 12 -18 22 -14 22 4 0 0 8 -8 18 -9 9 -23 33 -33 52 -10 18
-23 40 -29 47 -25 28 -36 42 -36 47 0 2 -16 21 -35 41 -20 20 -33 41 -29 47 4
7 3 8 -4 4 -6 -4 -19 6 -29 21 -10 15 -33 42 -50 59 -18 17 -33 34 -33 37 0
12 -49 55 -55 49 -3 -4 -3 1 1 11 4 12 1 17 -10 17 -8 0 -18 11 -22 25 -4 14
-9 24 -11 21 -6 -5 -90 115 -85 121 1 2 -7 13 -18 25 -11 12 -20 30 -20 40 0
11 -4 16 -10 13 -5 -3 -10 3 -10 14 0 12 -5 21 -11 21 -5 0 -8 4 -4 9 3 5 1
12 -5 16 -6 4 -8 11 -5 16 4 5 1 9 -4 9 -6 0 -10 3 -9 8 1 4 -6 24 -15 46 -9
21 -17 47 -17 58 0 10 -4 16 -10 13 -6 -4 -10 5 -10 19 0 14 -4 26 -10 26 -5
0 -10 5 -10 11 0 5 6 7 13 3 9 -6 9 -4 1 7 -13 17 -44 111 -44 133 0 9 -6 16
-12 16 -9 0 -8 4 2 10 10 6 11 10 3 10 -8 0 -13 14 -13 35 0 19 -4 35 -8 35
-4 0 -9 19 -11 42 -1 23 -7 46 -14 50 -7 4 -9 8 -6 8 3 0 2 24 -3 53 -6 28
-10 60 -9 70 0 24 -12 21 -25 -7z m-357 -1872 c8 -8 19 -12 24 -9 5 4 9 -3 9
-15 0 -12 4 -19 8 -16 4 2 9 -10 10 -27 2 -18 7 -33 12 -35 6 -2 10 -12 10
-23 0 -10 5 -19 11 -19 5 0 8 -4 4 -9 -3 -5 2 -16 10 -24 8 -9 15 -20 15 -26
0 -6 4 -11 9 -11 5 0 13 -9 16 -20 4 -11 10 -18 14 -16 4 3 15 -6 25 -19 10
-14 22 -22 27 -19 5 3 9 0 9 -5 0 -6 6 -11 13 -11 7 0 23 -9 35 -20 12 -11 26
-20 32 -20 6 0 9 -4 6 -9 -4 -5 -2 -11 4 -13 13 -4 21 -88 8 -88 -5 0 -6 -5
-3 -10 8 -13 -51 -70 -74 -71 -45 -4 -75 1 -90 15 -10 9 -25 16 -34 16 -9 0
-17 5 -17 10 0 6 -7 10 -15 10 -7 0 -19 8 -24 18 -6 9 -11 13 -11 8 0 -5 -27
19 -60 53 -37 37 -58 66 -54 74 4 7 4 9 -1 5 -11 -11 -35 11 -35 32 0 10 -7
23 -15 30 -8 6 -14 15 -13 18 1 4 -6 25 -15 46 -10 22 -15 46 -12 53 3 8 0 11
-6 8 -6 -5 -9 9 -8 39 2 25 7 46 11 46 5 0 7 4 4 9 -8 12 42 59 67 63 35 6 79
-2 94 -18z"/>
<path d="M2686 4143 c-1 -1 -31 -3 -66 -4 -36 -1 -73 -6 -84 -11 -11 -6 -16
-6 -13 -1 4 5 0 10 -8 10 -8 0 -11 -5 -8 -10 4 -6 0 -8 -8 -5 -14 5 -103 -5
-149 -16 -33 -9 -80 -17 -102 -19 -10 -1 -18 -5 -18 -9 0 -4 -11 -8 -25 -8
-14 0 -25 -5 -25 -11 0 -8 -6 -7 -17 2 -11 10 -14 10 -9 2 5 -9 -1 -13 -18
-13 -14 0 -26 -4 -26 -9 0 -5 -9 -7 -20 -4 -11 3 -20 1 -20 -4 0 -5 -10 -9
-22 -10 -11 -1 -25 -8 -29 -15 -7 -10 -9 -10 -9 2 -1 12 -3 12 -11 -2 -5 -10
-16 -15 -24 -12 -8 4 -15 1 -15 -5 0 -6 -11 -11 -25 -11 -14 0 -25 -4 -25 -8
0 -5 -18 -15 -40 -22 -22 -7 -40 -17 -40 -21 0 -4 -13 -10 -30 -14 -16 -4 -30
-11 -30 -16 0 -5 -6 -9 -13 -9 -7 0 -23 -9 -35 -20 -12 -12 -22 -16 -22 -9 0
7 -9 2 -19 -10 -11 -13 -24 -20 -29 -17 -6 3 -12 -1 -15 -9 -5 -12 -32 -30
-108 -70 -11 -5 -19 -16 -19 -23 0 -7 -4 -11 -8 -8 -5 3 -29 -13 -53 -34 -24
-22 -52 -42 -62 -45 -9 -4 -15 -11 -12 -16 4 -5 -1 -9 -10 -9 -9 0 -13 -4 -10
-10 3 -5 3 -10 -2 -10 -11 0 -64 -46 -58 -51 2 -3 -9 -13 -26 -24 -16 -11 -32
-28 -35 -38 -3 -9 -10 -15 -15 -12 -5 4 -9 1 -9 -5 0 -16 -26 -40 -35 -32 -4
4 -5 0 -3 -8 2 -8 -3 -14 -10 -12 -8 1 -11 -1 -8 -6 3 -5 -4 -18 -14 -30 -11
-12 -20 -29 -20 -39 0 -14 -2 -15 -9 -4 -7 11 -10 9 -15 -6 -4 -12 -14 -30
-24 -41 -9 -11 -24 -29 -33 -39 -8 -10 -13 -25 -11 -32 3 -8 0 -11 -7 -7 -6 4
-11 1 -11 -8 0 -9 -4 -16 -10 -16 -5 0 -10 -5 -10 -11 0 -6 -9 -24 -21 -40
-11 -16 -17 -29 -14 -29 4 0 0 -7 -7 -15 -29 -33 -34 -41 -30 -53 2 -6 -1 -12
-7 -12 -6 0 -11 -7 -11 -15 0 -8 -5 -15 -10 -15 -6 0 -9 -3 -8 -7 2 -10 -18
-60 -37 -94 -8 -14 -12 -29 -8 -33 3 -3 1 -6 -5 -6 -6 0 -9 -7 -6 -15 4 -8 1
-15 -5 -15 -6 0 -11 -9 -11 -20 0 -11 -5 -20 -10 -20 -6 0 -9 -3 -9 -7 4 -25
-2 -53 -11 -48 -6 4 -7 -1 -3 -10 3 -10 0 -21 -8 -26 -12 -7 -12 -9 1 -9 12 0
12 -2 2 -9 -7 -4 -15 -21 -17 -37 -2 -16 -4 -30 -6 -31 -3 -5 -6 -23 -8 -44 0
-11 -4 -18 -8 -16 -5 3 -9 -16 -11 -41 -2 -25 -6 -50 -9 -56 -4 -5 -8 -30 -10
-54 -4 -53 -9 -80 -19 -106 -5 -14 -4 -17 4 -12 7 4 12 2 12 -3 0 -6 -5 -11
-10 -11 -6 0 -8 -11 -6 -23 2 -13 0 -30 -4 -37 -5 -7 -4 -24 0 -36 6 -15 5
-26 -1 -30 -6 -4 -6 -11 2 -20 9 -11 9 -14 0 -14 -8 0 -9 -5 -2 -18 6 -11 6
-24 1 -32 -6 -9 -5 -17 3 -22 9 -6 9 -8 -1 -8 -7 0 -10 -5 -6 -11 3 -6 8 -43
9 -82 2 -40 6 -81 11 -91 6 -15 4 -17 -6 -11 -10 6 -11 4 -4 -6 4 -8 10 -23
11 -34 6 -38 16 -91 29 -152 3 -16 7 -37 8 -48 1 -11 7 -30 14 -43 7 -12 10
-22 7 -22 -3 0 -1 -8 4 -19 6 -10 12 -32 13 -49 1 -17 6 -28 10 -26 8 5 11 -9
9 -38 -1 -9 3 -19 9 -23 5 -3 10 -15 10 -26 0 -10 5 -19 10 -19 6 0 10 -11 10
-25 0 -14 5 -25 10 -25 6 0 10 -5 10 -10 0 -6 7 -27 17 -48 9 -20 15 -40 15
-44 -1 -5 2 -8 7 -8 8 0 22 -28 26 -50 3 -18 27 -50 35 -45 4 3 6 -4 3 -15 -3
-11 0 -20 6 -20 6 0 11 -7 11 -15 0 -8 5 -15 10 -15 6 0 10 -9 10 -21 0 -11 5
-17 10 -14 6 3 10 -1 10 -11 0 -9 10 -25 22 -35 11 -11 18 -19 15 -19 -6 0 13
-27 41 -55 6 -8 12 -17 12 -22 0 -5 8 -16 18 -25 31 -31 52 -55 52 -60 0 -11
72 -83 81 -81 5 2 8 -3 6 -10 -1 -6 5 -11 13 -9 8 2 12 1 8 -3 -7 -8 33 -51
44 -48 5 2 8 -3 8 -11 0 -7 15 -25 33 -39 17 -13 42 -33 54 -43 52 -46 64 -54
74 -54 5 0 8 -4 5 -8 -3 -5 7 -15 22 -23 15 -7 48 -28 73 -46 26 -18 54 -33
63 -33 10 0 14 -5 11 -10 -3 -6 1 -10 9 -10 9 0 16 -4 16 -10 0 -5 7 -7 15 -4
8 4 15 1 15 -5 0 -6 7 -11 15 -11 8 0 15 -4 15 -10 0 -5 8 -10 18 -10 10 0 28
-9 40 -20 12 -12 22 -18 22 -15 0 3 20 -6 45 -19 25 -14 45 -23 45 -21 0 3 18
-4 40 -15 21 -11 46 -20 55 -20 9 0 14 -4 11 -9 -3 -4 6 -7 20 -5 13 1 30 -3
37 -10 6 -7 19 -11 29 -8 10 2 18 -1 18 -7 0 -6 14 -11 30 -11 17 0 30 -4 30
-10 0 -5 5 -10 11 -10 5 0 7 6 3 12 -6 10 -4 11 7 1 7 -7 26 -13 42 -13 15 0
26 -4 23 -9 -3 -4 2 -8 12 -8 50 0 73 -4 68 -11 -3 -5 1 -9 9 -9 8 0 11 5 8
11 -4 6 1 5 10 -3 9 -7 24 -11 32 -7 8 3 15 2 15 -3 0 -4 14 -7 30 -6 17 1 30
-1 30 -4 0 -3 19 -6 42 -5 24 0 55 -3 70 -7 16 -4 30 -3 33 2 4 5 14 5 26 -1
14 -8 19 -7 19 2 0 10 2 10 8 1 5 -8 26 -12 55 -10 27 1 47 -2 47 -8 0 -6 3
-7 8 0 8 12 56 19 49 7 -3 -4 5 -7 18 -7 13 0 21 3 18 8 -2 4 4 7 14 8 10 1
36 2 58 3 22 1 46 5 53 10 7 4 12 2 12 -4 0 -8 6 -8 20 0 11 6 20 7 20 3 0 -4
5 -2 11 4 6 6 18 9 25 6 8 -3 14 0 14 7 0 9 3 10 13 1 8 -6 17 -8 21 -4 7 8
40 15 73 16 12 1 19 5 17 9 -3 4 13 8 36 8 25 0 39 4 35 10 -5 9 21 14 62 13
7 -1 10 4 6 10 -4 6 0 8 10 4 10 -3 17 -2 17 3 0 5 7 6 17 3 10 -4 14 -2 10 4
-4 6 3 9 18 7 14 -1 25 2 25 7 0 5 12 9 28 9 21 0 24 2 12 10 -11 7 -7 10 17
10 17 0 33 4 35 10 2 5 15 11 30 12 15 1 24 6 22 10 -3 4 2 8 10 8 9 0 16 5
16 12 0 6 3 8 7 5 3 -4 17 0 30 8 13 9 23 13 23 10 0 -3 10 3 22 14 11 11 25
18 30 15 4 -3 8 0 8 7 0 7 3 9 6 6 4 -4 15 3 25 15 13 14 19 17 19 7 1 -10 4
-9 14 4 7 9 19 17 25 17 7 0 9 5 5 12 -4 6 -3 8 4 4 5 -3 24 5 40 19 16 13 32
22 36 18 3 -3 6 2 6 13 0 16 2 17 10 4 8 -13 10 -12 10 3 0 9 7 17 15 17 8 0
15 5 15 10 0 6 6 10 13 10 6 0 23 12 36 25 13 14 27 25 33 25 5 0 6 4 3 10 -3
5 1 10 9 10 8 0 21 9 29 20 8 11 17 17 20 13 4 -3 7 1 7 10 0 8 9 19 20 22 11
3 20 14 20 22 0 9 3 14 6 11 6 -7 66 52 91 89 8 13 19 20 24 17 5 -3 6 3 2 12
-4 12 -3 15 5 10 7 -4 12 -1 12 8 0 9 6 16 14 16 8 0 18 5 22 12 5 7 3 8 -7 3
-15 -9 14 29 44 56 9 9 17 24 17 33 0 10 3 15 8 13 6 -5 35 19 31 25 -2 2 10
22 24 45 15 24 27 47 27 53 0 6 5 8 10 5 6 -4 10 5 10 19 0 14 4 26 9 26 4 0
26 36 49 79 22 44 42 78 44 76 2 -2 5 6 5 18 1 12 7 23 12 25 5 2 7 10 4 18
-3 8 0 14 7 14 6 0 9 4 5 9 -3 5 -1 12 5 16 6 4 7 11 4 17 -4 6 -1 14 5 18 7
4 13 17 14 28 1 12 5 22 9 22 4 0 8 9 8 20 0 11 6 20 13 20 8 0 7 4 -3 10 -12
8 -12 10 -1 10 9 0 11 7 8 21 -4 14 -1 19 7 16 8 -3 11 4 8 24 -3 19 0 29 8
29 9 0 9 4 -1 17 -10 11 -10 14 -1 9 8 -5 12 0 12 16 0 13 6 30 13 37 10 11 9
12 -3 6 -12 -6 -13 -5 -2 6 6 7 12 27 12 44 0 17 6 37 13 44 10 11 9 12 -3 6
-13 -8 -13 -6 -2 7 10 13 10 17 0 21 -10 4 -10 6 0 6 7 1 12 16 12 42 0 29 3
38 13 33 9 -6 9 -4 -1 8 -9 11 -10 18 -2 23 7 4 7 12 0 25 -6 10 -6 21 -2 24
4 2 8 40 7 83 0 43 5 81 10 85 7 5 7 8 0 8 -6 0 -10 27 -9 65 1 36 -2 68 -7
71 -5 3 -5 13 1 24 7 13 7 21 0 25 -5 3 -10 11 -10 16 0 6 6 7 13 3 9 -6 9 -5
0 7 -6 8 -13 41 -15 73 -2 32 -6 60 -10 63 -5 2 -8 20 -8 39 0 20 -5 34 -12
34 -9 0 -8 4 2 10 8 5 10 10 5 10 -6 0 -12 14 -13 32 -2 18 -6 35 -10 38 -4 3
-9 16 -10 30 -2 14 -7 29 -12 34 -5 5 -6 15 -3 24 5 11 3 13 -7 7 -9 -5 -11
-4 -6 4 4 6 1 25 -8 41 -8 17 -11 28 -6 25 4 -3 3 6 -3 19 -7 13 -16 22 -22
18 -5 -3 -3 3 5 13 9 11 10 16 3 11 -9 -5 -13 1 -13 19 0 16 -4 24 -11 20 -6
-4 -9 -1 -8 6 2 8 -4 28 -14 44 -9 17 -16 24 -17 17 0 -7 -4 -10 -10 -7 -5 3
-10 -1 -10 -9 0 -10 -6 -13 -15 -9 -9 3 -15 1 -13 -4 3 -10 -104 -103 -119
-103 -5 0 -15 -9 -23 -20 -8 -11 -23 -20 -33 -20 -9 0 -20 -7 -23 -15 -4 -8
-10 -12 -15 -9 -5 3 -9 1 -9 -5 0 -6 -11 -13 -25 -17 -14 -3 -25 -10 -25 -16
0 -5 -4 -6 -10 -3 -6 3 -10 -5 -10 -19 0 -14 5 -28 11 -32 6 -3 9 -14 6 -23
-2 -9 2 -22 10 -29 7 -7 11 -17 8 -23 -4 -5 -1 -9 4 -9 6 0 11 -13 11 -28 0
-15 6 -34 13 -41 10 -11 9 -12 -3 -6 -12 7 -13 6 -5 -6 6 -8 12 -27 14 -44 2
-16 6 -32 10 -35 3 -3 6 -14 5 -25 0 -11 3 -30 8 -42 5 -16 4 -23 -5 -23 -9 0
-8 -3 1 -9 8 -4 13 -11 13 -15 -1 -3 -1 -7 0 -8 0 -2 2 -32 3 -68 1 -36 5 -70
9 -77 4 -6 1 -14 -5 -16 -10 -4 -9 -8 2 -16 13 -10 13 -11 0 -11 -13 0 -13 -1
0 -10 13 -9 13 -11 0 -20 -9 -6 -11 -13 -5 -17 13 -11 18 -36 5 -28 -5 3 -10
2 -10 -4 0 -5 5 -13 10 -16 7 -4 7 -11 2 -18 -5 -7 -8 -31 -8 -54 1 -24 -2
-43 -5 -43 -6 0 -8 -12 -10 -47 0 -10 -3 -25 -6 -33 -11 -28 -11 -40 -1 -34 6
4 6 -2 -1 -14 -6 -11 -11 -32 -11 -46 0 -13 -4 -26 -10 -28 -5 -2 -10 -18 -12
-35 -1 -18 -5 -33 -8 -33 -4 0 -7 -7 -8 -15 -1 -8 -3 -22 -4 -30 -1 -8 -6 -15
-11 -15 -6 0 -8 -2 -5 -5 9 -9 -20 -80 -31 -78 -6 2 -8 -3 -5 -11 3 -8 1 -17
-5 -21 -6 -3 -11 -17 -11 -31 0 -13 -4 -24 -10 -24 -5 0 -10 -9 -10 -20 0 -11
-5 -20 -11 -20 -5 0 -7 -5 -4 -10 3 -6 -1 -13 -9 -16 -9 -3 -13 -10 -10 -15 3
-5 0 -9 -5 -9 -6 0 -11 -9 -11 -20 0 -11 -4 -20 -10 -20 -5 0 -10 -7 -10 -15
0 -8 -4 -15 -9 -15 -5 0 -14 -13 -21 -30 -7 -16 -17 -30 -22 -30 -5 0 -7 -4
-4 -8 3 -5 -4 -15 -15 -22 -10 -8 -19 -20 -19 -27 0 -7 -5 -13 -11 -13 -5 0
-7 -5 -4 -10 3 -5 -1 -10 -10 -10 -9 0 -13 -4 -10 -10 3 -5 1 -10 -5 -10 -6 0
-15 -11 -22 -25 -6 -13 -15 -22 -19 -19 -5 3 -9 1 -9 -5 0 -14 -76 -91 -90
-91 -6 0 -8 -4 -5 -10 3 -5 3 -10 -2 -10 -4 0 -26 -16 -48 -35 -22 -19 -43
-35 -48 -35 -4 0 -5 -4 -2 -10 3 -5 -1 -10 -9 -10 -9 0 -16 -5 -16 -11 0 -5
-5 -7 -10 -4 -6 3 -13 -1 -16 -9 -3 -9 -13 -16 -20 -16 -8 0 -17 -7 -20 -15
-4 -8 -15 -15 -25 -15 -10 0 -19 -4 -19 -8 0 -12 -56 -42 -64 -34 -4 4 -6 0
-4 -8 2 -8 -3 -14 -9 -13 -7 2 -13 -2 -13 -8 0 -5 -4 -8 -9 -4 -5 3 -12 1 -16
-5 -3 -5 -16 -10 -28 -10 -18 0 -19 -2 -7 -10 12 -8 9 -10 -12 -10 -16 0 -28
-5 -28 -12 0 -6 -3 -8 -7 -5 -3 4 -17 0 -30 -8 -13 -9 -23 -13 -23 -9 0 4 -7
1 -15 -6 -8 -6 -19 -9 -25 -5 -5 3 -10 1 -10 -5 0 -6 -4 -8 -10 -5 -5 3 -10 2
-10 -3 0 -5 -7 -9 -15 -10 -8 -1 -22 -3 -30 -4 -8 -1 -15 -5 -15 -10 0 -4 -13
-8 -30 -8 -16 0 -30 -4 -30 -8 0 -9 -7 -10 -55 -13 -14 -1 -25 -5 -25 -9 0 -5
-11 -7 -25 -5 -14 1 -25 -1 -25 -4 0 -8 -39 -13 -92 -14 -21 0 -35 -3 -33 -7
3 -4 -85 -8 -195 -8 -110 0 -200 3 -200 8 0 5 -10 7 -21 5 -12 -2 -31 0 -41 6
-15 8 -19 8 -14 0 4 -6 2 -11 -3 -11 -6 0 -11 5 -11 11 0 5 -4 8 -9 5 -5 -4
-12 0 -14 6 -4 10 -6 10 -6 0 -1 -10 -6 -10 -22 -1 -12 6 -30 9 -40 6 -10 -3
-17 -1 -13 4 3 5 0 10 -5 10 -21 3 -26 4 -40 13 -10 7 -12 5 -6 -5 6 -11 5
-12 -6 -1 -7 6 -23 12 -36 12 -13 0 -23 5 -23 10 0 6 -11 10 -23 10 -13 0 -27
3 -31 7 -4 5 -11 8 -14 9 -24 3 -175 75 -183 87 -3 5 -9 8 -13 8 -20 -3 -26 0
-20 11 4 6 3 8 -4 4 -6 -3 -18 1 -26 10 -9 8 -16 12 -16 7 0 -4 -4 -3 -8 3 -4
6 -22 19 -39 28 -18 9 -33 22 -33 28 0 6 -3 9 -6 5 -7 -7 -62 32 -110 78 -18
17 -46 41 -63 54 -17 13 -28 28 -24 34 3 6 1 7 -5 3 -7 -4 -12 -2 -12 3 0 6
-7 11 -17 11 -9 0 -14 3 -10 6 3 3 -5 16 -19 29 -13 12 -24 27 -24 33 0 6 -9
13 -20 17 -11 3 -19 9 -17 13 1 4 -8 18 -20 31 -12 13 -19 29 -16 35 3 6 3 8
-2 4 -8 -8 -32 19 -33 36 0 5 -7 13 -16 18 -9 5 -16 16 -16 23 0 8 -4 15 -10
15 -5 0 -10 9 -10 21 0 11 -4 17 -10 14 -5 -3 -10 1 -10 9 0 9 -5 16 -11 16
-6 0 -9 5 -7 12 2 6 -4 20 -14 30 -10 10 -16 23 -13 28 4 6 1 10 -5 10 -6 0
-9 4 -6 9 4 5 1 11 -4 13 -6 2 -12 13 -13 25 0 12 -4 20 -8 17 -6 -3 -20 33
-24 61 0 6 -6 9 -11 8 -6 -1 -11 4 -11 12 0 8 4 12 8 10 3 -3 -2 12 -12 32
-10 20 -16 40 -13 44 3 5 0 9 -5 9 -6 0 -11 14 -11 30 0 17 -4 30 -10 30 -5 0
-10 18 -10 41 0 22 -4 38 -8 35 -4 -2 -8 3 -9 12 -2 53 -8 92 -13 92 -3 0 -6
15 -7 33 -3 86 -7 117 -17 117 -6 0 -5 4 2 9 17 11 17 21 0 32 -10 7 -10 9 0
9 8 0 10 5 6 12 -12 19 -12 48 -1 48 5 0 5 6 -2 13 -8 10 -7 17 1 25 9 9 9 12
-1 12 -11 0 -11 3 -1 15 10 12 10 15 0 15 -9 0 -10 3 -1 13 8 10 7 17 -2 27
-6 7 -7 10 -1 7 10 -6 16 22 15 77 0 11 4 27 10 38 7 13 6 18 -3 18 -8 0 -9 3
-3 8 6 4 12 23 14 42 2 19 7 43 12 52 5 9 9 27 9 40 0 13 6 30 13 37 9 10 9
12 0 7 -8 -5 -8 2 2 20 8 15 12 31 9 36 -3 4 -1 8 4 8 5 0 9 6 10 13 1 12 9
47 12 57 1 3 2 8 1 13 0 4 3 7 9 7 5 0 10 6 10 13 0 7 9 30 20 52 11 22 20 45
20 53 0 7 5 10 12 6 8 -5 9 -2 5 9 -3 10 -2 17 4 17 6 0 7 5 4 10 -3 6 -1 10
6 10 7 0 9 3 6 6 -3 4 3 18 13 32 11 13 20 31 20 39 0 8 5 11 10 8 9 -5 15 16
11 38 -1 5 2 6 7 3 5 -3 17 10 28 29 10 18 22 32 26 29 4 -3 8 4 8 16 0 12 5
18 10 15 6 -3 10 1 10 9 0 9 5 16 12 16 6 0 8 3 5 6 -3 4 8 21 26 39 49 50 72
79 69 87 -1 5 1 7 6 7 17 -3 35 2 29 7 -9 9 52 64 72 65 9 0 11 3 4 6 -10 3
-10 7 0 18 7 7 15 11 20 8 4 -2 7 -1 7 4 0 4 14 14 30 21 17 8 28 18 24 23 -4
8 2 11 22 8 3 0 14 9 23 20 10 12 24 21 30 21 7 0 9 5 6 10 -3 6 3 10 15 10
11 0 23 7 26 15 4 8 10 13 14 10 5 -3 15 2 23 10 9 8 23 15 32 15 9 0 13 5 10
10 -3 6 3 10 13 10 11 0 25 7 32 15 7 8 21 15 32 15 10 0 17 4 14 8 -2 4 5 9
17 9 12 1 23 7 25 13 2 5 17 10 33 10 16 0 29 5 29 10 0 6 3 9 8 8 4 -1 20 4
35 10 16 7 35 12 43 12 8 0 14 4 14 8 0 4 8 8 18 9 31 4 87 14 102 20 24 10
28 10 71 12 22 0 38 5 35 9 -3 5 1 9 9 9 8 0 15 -5 15 -11 0 -7 3 -7 8 1 4 7
28 13 52 15 25 2 51 8 59 12 8 5 17 3 22 -5 8 -12 11 -12 19 1 5 8 10 11 10 6
0 -6 4 -6 10 0 5 5 11 35 12 66 1 36 6 54 13 50 5 -3 3 3 -5 13 -11 13 -11 16
-2 11 11 -6 13 0 11 28 -2 21 1 40 7 44 6 4 10 15 8 24 -1 10 2 20 7 24 5 3 7
10 4 15 -4 5 -1 9 4 9 6 0 10 3 10 8 -1 4 -1 9 1 12 1 3 4 16 6 30 2 13 8 27
13 30 5 3 11 16 12 29 4 23 1 25 -49 25 -30 1 -55 0 -56 -1z"/>
<path d="M2284 3502 c3 -6 0 -10 -7 -9 -37 1 -56 -6 -84 -30 -18 -16 -41 -35
-52 -43 -12 -8 -21 -20 -21 -28 0 -7 -7 -15 -15 -18 -8 -4 -13 -9 -10 -14 2
-4 -2 -16 -10 -26 -17 -22 -21 -184 -5 -184 6 0 10 -10 10 -22 1 -28 24 -61
35 -50 5 4 5 2 2 -5 -4 -6 -1 -18 7 -26 8 -8 12 -18 8 -22 -4 -5 -2 -5 5 -1 7
4 18 -2 25 -14 7 -11 23 -20 36 -20 13 0 20 -4 17 -10 -4 -6 5 -10 19 -10 14
0 26 -4 26 -8 0 -5 32 -10 70 -11 39 -1 70 2 70 6 0 5 12 10 28 11 15 1 29 7
30 12 2 6 12 10 22 10 11 0 24 9 30 20 6 12 16 18 23 14 7 -4 9 -4 5 0 -4 5 2
17 12 29 11 11 17 24 14 29 -3 5 0 7 7 6 7 -2 13 2 14 9 0 6 3 15 8 19 4 4 7
16 7 26 0 10 3 18 8 18 4 0 8 29 8 65 0 36 -3 65 -8 65 -4 0 -8 13 -8 29 0 16
-5 31 -10 33 -6 2 -12 13 -13 25 0 12 -4 21 -7 20 -3 -1 -25 17 -49 40 -25 23
-48 40 -53 37 -4 -3 -8 0 -8 5 0 6 -9 11 -20 11 -11 0 -20 4 -20 9 0 4 -34 9
-76 10 -45 1 -74 -2 -70 -7z"/>
<path d="M1710 3062 c-19 -2 -41 -9 -49 -15 -12 -10 -13 -9 -7 1 7 11 4 11
-13 0 -12 -7 -21 -16 -21 -21 0 -4 -4 -6 -9 -3 -18 11 -119 -101 -111 -123 1
-2 -3 -7 -9 -11 -7 -3 -13 -21 -14 -38 -1 -18 -4 -32 -7 -32 -8 0 -6 -58 2
-66 4 -4 2 -14 -5 -22 -9 -12 -9 -14 0 -8 9 5 15 -5 19 -33 4 -23 10 -38 15
-35 5 3 9 -4 9 -15 0 -12 4 -21 8 -21 5 0 15 -11 22 -25 7 -14 16 -23 18 -20
3 3 11 -3 19 -13 10 -11 12 -12 8 -2 -5 12 -4 12 7 -1 18 -22 53 -39 78 -39
13 0 19 -4 14 -11 -4 -7 1 -7 16 1 15 8 20 8 16 1 -10 -15 7 -14 23 2 10 9 12
9 7 0 -5 -9 2 -12 23 -10 16 1 27 5 25 8 -2 3 10 6 26 7 17 0 44 10 60 22 17
12 30 18 30 13 0 -4 5 0 11 10 6 9 15 14 21 11 6 -4 8 -2 4 4 -3 6 2 17 11 24
18 13 37 46 58 105 9 23 9 35 1 44 -8 9 -8 10 2 5 10 -6 12 2 10 31 -1 21 -7
41 -12 45 -7 5 -7 8 2 8 10 0 9 7 -3 30 -8 16 -15 36 -15 45 0 9 -4 13 -10 10
-5 -3 -10 0 -10 8 0 8 -7 20 -15 27 -8 7 -12 16 -9 21 3 5 1 8 -4 7 -5 -2 -19
8 -31 21 -12 13 -21 19 -21 12 0 -7 -5 -9 -10 -6 -6 4 -7 11 -4 17 4 6 2 8 -4
4 -6 -3 -13 -2 -17 3 -3 5 -14 8 -25 6 -12 -2 -18 0 -15 6 4 5 -6 9 -22 10
-15 0 -35 1 -43 3 -8 1 -31 0 -50 -2z"/>
<path d="M2694 2893 c5 -10 -5 -13 -39 -13 -34 0 -44 -3 -39 -12 5 -9 2 -9 -9
1 -9 7 -17 9 -17 3 0 -5 -15 -12 -32 -15 -18 -3 -40 -7 -48 -10 -8 -2 -30 -8
-47 -12 -18 -4 -33 -11 -33 -16 0 -5 -8 -9 -17 -9 -10 0 -27 -7 -37 -15 -10
-8 -23 -12 -29 -8 -6 3 -7 1 -3 -5 4 -7 1 -12 -9 -12 -8 0 -18 -7 -21 -15 -4
-8 -10 -13 -14 -10 -5 3 -20 -6 -34 -20 -14 -14 -27 -25 -30 -25 -11 0 -96
-89 -96 -100 0 -6 -4 -9 -9 -5 -5 3 -12 -3 -16 -14 -3 -10 -14 -26 -25 -36
-11 -10 -20 -27 -20 -37 0 -11 -4 -16 -10 -13 -5 3 -10 -1 -10 -9 0 -9 -5 -16
-10 -16 -6 0 -9 -3 -8 -7 3 -11 -33 -104 -46 -122 -9 -12 -8 -13 4 -6 12 6 13
5 3 -6 -7 -7 -13 -21 -13 -32 0 -10 -4 -16 -8 -13 -5 3 -9 -1 -9 -9 0 -8 5
-11 11 -8 6 4 5 0 -2 -9 -7 -9 -13 -32 -14 -51 -1 -20 -5 -34 -11 -30 -5 3 -4
-4 2 -15 14 -26 14 -35 1 -27 -7 4 -7 -3 0 -19 6 -17 6 -26 0 -26 -6 0 -10 -5
-10 -11 0 -5 6 -7 13 -3 9 6 9 5 0 -7 -7 -9 -9 -20 -3 -29 6 -9 4 -20 -3 -29
-9 -12 -9 -13 1 -7 9 5 12 -3 12 -28 0 -48 0 -49 12 -63 6 -7 8 -19 5 -28 -4
-8 0 -21 8 -29 8 -7 11 -16 8 -19 -3 -4 2 -18 11 -32 9 -14 14 -30 11 -34 -3
-5 0 -11 5 -13 6 -2 12 -13 13 -25 0 -12 5 -19 9 -17 4 3 8 -2 8 -10 0 -9 5
-16 10 -16 6 0 10 -9 10 -21 0 -11 5 -17 10 -14 6 3 10 -1 10 -10 0 -20 25
-47 35 -37 4 4 6 2 4 -3 -4 -16 12 -45 22 -39 5 3 9 1 9 -5 0 -5 6 -16 14 -23
50 -48 97 -86 128 -102 21 -10 35 -23 31 -29 -4 -6 2 -8 15 -5 12 4 20 2 16
-3 -3 -5 2 -9 10 -9 9 0 16 -4 16 -10 0 -5 9 -10 20 -10 11 0 20 -4 20 -10 0
-5 11 -10 25 -10 14 0 25 -6 25 -12 0 -9 4 -8 10 2 6 10 10 11 10 3 0 -7 11
-13 23 -13 13 0 27 -3 30 -7 4 -3 17 -7 29 -9 42 -5 78 -13 89 -20 8 -5 9 -3
4 6 -6 9 -4 11 5 5 19 -12 142 -13 158 -2 8 6 12 5 12 -2 0 -7 5 -9 13 -4 12
8 26 11 62 16 12 2 26 6 32 10 6 4 23 8 36 9 14 1 23 6 21 10 -5 8 17 12 44 9
6 -1 12 2 12 7 0 8 21 18 45 21 3 0 15 10 27 21 21 19 33 24 51 21 5 -1 6 3 3
8 -4 5 7 15 23 22 16 7 27 17 25 21 -3 4 -1 8 4 8 16 0 82 63 82 77 0 8 3 12
8 10 4 -3 13 1 20 9 7 8 10 14 7 14 -3 0 3 9 13 19 33 37 42 50 42 61 0 6 4 9
8 6 4 -2 9 5 9 17 1 12 7 23 13 25 5 2 10 12 10 22 0 9 6 22 13 28 7 6 14 23
15 38 1 15 6 31 12 34 5 3 10 20 12 38 1 18 5 32 8 32 3 0 7 12 8 26 1 15 8
34 15 42 9 13 9 14 0 8 -7 -4 -13 -3 -13 1 0 5 6 15 13 22 10 11 9 12 -2 6
-10 -6 -12 -4 -6 5 12 20 13 110 1 110 -6 0 -4 5 4 10 8 5 10 10 5 10 -6 0
-12 11 -13 26 -1 17 2 23 11 18 9 -5 9 -4 0 7 -7 7 -13 26 -13 41 0 15 -4 28
-8 28 -4 0 -9 12 -10 26 -1 15 -8 34 -15 42 -10 13 -9 14 1 8 7 -4 3 9 -8 29
-11 20 -18 40 -15 45 3 4 -2 10 -10 14 -8 3 -15 12 -15 20 0 8 -7 22 -16 30
-8 9 -16 25 -17 35 0 11 -6 19 -11 18 -5 -1 -16 10 -23 26 -8 15 -19 27 -24
27 -6 0 -7 5 -4 10 3 6 -1 10 -9 10 -9 0 -16 6 -16 13 0 7 -21 30 -46 52 -25
22 -57 50 -70 62 -13 12 -33 24 -44 28 -11 3 -20 11 -20 16 0 5 -9 9 -21 9
-11 0 -27 7 -36 15 -8 8 -19 13 -24 10 -5 -4 -9 -1 -9 4 0 6 -9 11 -20 11 -11
0 -20 4 -20 9 0 4 -11 7 -25 6 -14 -2 -25 1 -25 6 0 6 -4 7 -10 4 -5 -3 -10
-2 -10 3 0 5 -11 8 -25 7 -14 -2 -25 0 -25 5 0 4 -41 8 -92 9 -55 1 -98 6
-107 14 -12 9 -13 9 -7 0z m18 -438 c5 -6 8 -6 8 1 0 12 82 12 115 0 11 -5 34
-13 50 -19 44 -16 125 -70 119 -79 -3 -4 2 -8 10 -8 9 0 16 -7 16 -15 0 -8 4
-15 10 -15 8 0 51 -70 56 -92 1 -5 3 -11 4 -15 1 -5 2 -11 1 -15 0 -5 3 -8 7
-8 4 0 7 -12 6 -27 -1 -16 3 -34 9 -40 6 -9 5 -13 -4 -13 -10 0 -10 -3 -1 -12
13 -13 17 -32 4 -24 -4 2 -8 -10 -8 -27 -2 -70 -4 -78 -16 -71 -7 4 -8 3 -4
-4 7 -12 -31 -102 -44 -102 -5 0 -12 -9 -15 -20 -4 -11 -9 -18 -13 -16 -10 5
-32 -20 -25 -28 4 -3 1 -6 -6 -6 -7 0 -19 -7 -28 -15 -8 -8 -19 -12 -25 -9 -6
4 -8 2 -4 -4 6 -10 -30 -28 -46 -24 -5 1 -8 -2 -8 -6 0 -5 -6 -9 -12 -10 -23
-2 -43 -7 -57 -16 -10 -7 -12 -5 -6 5 6 11 5 12 -6 2 -7 -7 -24 -13 -37 -13
-16 0 -21 4 -16 13 5 7 0 6 -11 -3 -14 -11 -19 -12 -22 -3 -4 10 -10 10 -25 2
-15 -8 -19 -8 -14 0 6 9 -28 17 -56 12 -5 0 -8 3 -8 9 0 6 -3 9 -7 8 -19 -5
-147 85 -136 96 3 3 1 6 -5 6 -7 0 -12 7 -12 16 0 8 -4 12 -10 9 -9 -6 -14 8
-11 28 0 4 -2 7 -7 7 -7 0 -32 50 -36 73 -1 6 -5 18 -10 25 -4 7 -5 20 -2 29
4 8 1 23 -6 31 -7 9 -8 13 -3 10 6 -4 10 17 11 54 1 33 6 63 11 67 6 3 9 14 7
24 -1 9 2 17 7 17 5 0 9 7 9 15 0 8 5 15 11 15 5 0 8 4 5 8 -7 12 24 53 35 46
5 -3 9 -2 8 3 -3 19 2 34 10 28 5 -3 12 4 16 15 4 11 11 18 16 15 5 -4 9 -1 9
5 0 6 5 8 10 5 6 -3 10 -1 10 4 0 6 6 11 14 11 8 0 16 4 18 9 2 5 12 11 23 13
11 1 23 7 26 12 4 5 18 9 33 9 14 0 26 3 26 8 0 11 23 7 32 -6z"/>
<path d="M3929 2386 c-2 -3 -20 -8 -39 -11 -19 -3 -39 -10 -44 -15 -5 -5 -14
-6 -21 -4 -15 6 -135 -107 -135 -128 0 -8 -6 -20 -12 -27 -11 -11 -10 -13 0
-7 7 4 3 -9 -8 -29 -11 -20 -16 -34 -11 -31 4 3 9 -5 9 -19 0 -15 -5 -22 -12
-18 -6 3 -6 0 2 -8 6 -7 12 -28 12 -45 0 -18 5 -36 10 -39 6 -3 10 -15 10 -26
0 -11 5 -17 10 -14 6 3 10 -1 10 -9 0 -21 57 -80 98 -101 63 -31 144 -40 207
-21 25 8 45 12 45 10 0 -3 12 7 27 21 15 14 33 25 40 25 7 0 13 7 13 16 0 8 4
13 9 10 4 -3 21 20 36 52 15 31 32 66 38 77 7 13 6 20 -2 23 -9 3 -9 8 1 20
11 12 11 16 0 20 -10 3 -10 7 0 20 10 12 10 16 1 19 -7 3 -13 15 -13 28 0 13
-4 27 -10 30 -5 3 -10 15 -10 26 0 10 -5 19 -12 19 -6 0 -9 3 -6 6 8 8 -84 94
-94 88 -4 -3 -8 0 -8 5 0 6 -12 11 -26 11 -15 0 -23 4 -19 10 4 7 -3 9 -19 6
-14 -3 -28 0 -32 5 -4 6 -11 6 -19 -1 -9 -8 -14 -8 -17 0 -2 6 -6 9 -9 6z"/>
<path d="M1463 2348 c-2 -5 -15 -8 -27 -8 -13 0 -29 -7 -36 -15 -7 -9 -15 -13
-17 -11 -3 3 -20 -11 -39 -30 -19 -19 -39 -34 -45 -34 -6 0 -7 -4 -4 -10 3 -5
-2 -10 -12 -11 -10 0 -13 -3 -6 -5 7 -3 9 -12 6 -20 -3 -7 -8 -12 -12 -10 -4
3 -8 -7 -9 -21 -1 -14 -6 -31 -11 -37 -15 -20 2 -176 20 -176 5 0 8 -3 7 -7
-4 -12 59 -93 66 -86 3 3 6 -2 6 -12 0 -10 3 -15 7 -12 3 4 21 -4 38 -17 25
-20 35 -22 45 -13 10 9 11 9 6 0 -13 -23 135 -20 190 4 21 9 44 16 49 14 6 -1
7 1 3 5 -4 3 9 20 29 35 20 16 32 29 27 29 -5 0 -4 4 2 8 31 20 56 96 55 166
0 39 -5 72 -11 74 -5 2 -10 8 -10 13 0 6 5 7 11 3 7 -4 3 8 -7 26 -28 49 -122
140 -138 134 -8 -3 -17 -1 -21 5 -3 6 -15 11 -26 11 -11 0 -18 4 -15 8 3 5 -1
9 -9 9 -8 0 -11 -5 -8 -11 3 -6 0 -5 -8 2 -15 14 -33 17 -25 4 3 -5 -1 -9 -9
-9 -8 0 -12 4 -10 8 3 4 -7 6 -21 5 -14 0 -28 -4 -31 -8z"/>
<path d="M3652 1669 c2 -7 -4 -14 -12 -15 -28 -2 -60 -16 -60 -26 0 -5 -5 -6
-10 -3 -6 3 -13 -1 -16 -9 -3 -9 -11 -16 -18 -16 -14 0 -68 -76 -79 -110 -8
-26 -18 -78 -19 -95 0 -33 16 -101 26 -107 6 -4 7 -8 2 -8 -5 0 -3 -7 4 -15 7
-8 9 -15 4 -15 -5 0 2 -7 14 -16 12 -8 22 -20 22 -25 0 -14 19 -31 52 -48 15
-8 25 -17 23 -22 -3 -4 8 -6 24 -5 17 1 28 -2 25 -6 -6 -9 -3 -10 89 -13 37
-2 70 1 73 6 3 5 16 9 29 9 13 0 30 9 38 20 8 11 16 17 19 14 3 -3 15 6 26 20
10 14 22 22 26 19 3 -3 6 1 6 10 0 9 5 17 10 17 6 0 10 7 10 15 0 8 4 15 9 15
8 0 12 15 26 95 8 43 8 47 2 75 -3 14 -8 36 -11 50 -3 14 -10 26 -16 28 -5 2
-10 12 -10 23 0 10 -4 19 -8 19 -5 0 -14 11 -20 25 -6 14 -17 25 -23 25 -6 0
-20 10 -30 22 -11 11 -19 18 -19 14 0 -3 -13 0 -29 8 -16 9 -31 12 -35 9 -3
-4 -6 -2 -6 4 0 7 -24 11 -59 11 -32 -1 -64 3 -70 6 -7 4 -10 2 -9 -5z"/>
<path d="M1744 1652 c7 -12 -10 -16 -48 -12 -10 1 -22 -3 -26 -10 -4 -6 -17
-12 -28 -13 -12 -1 -22 -5 -22 -10 0 -4 -4 -5 -10 -2 -5 3 -10 -2 -10 -11 0
-10 -3 -15 -6 -11 -15 14 -90 -93 -99 -142 -2 -9 -4 -18 -5 -21 -1 -3 -2 -9
-1 -14 1 -4 -3 -14 -9 -21 -8 -9 -6 -17 5 -29 12 -12 13 -16 3 -16 -10 0 -10
-2 1 -9 11 -7 11 -9 0 -14 -11 -4 -11 -6 -1 -6 7 -1 10 -6 7 -11 -7 -12 16
-70 27 -70 5 0 8 -7 8 -15 0 -8 5 -15 10 -15 6 0 10 -7 10 -15 0 -8 7 -15 16
-15 8 0 12 -4 9 -10 -3 -5 0 -10 8 -10 7 0 23 -9 35 -20 12 -11 25 -19 29 -18
4 1 18 -3 30 -10 12 -7 26 -12 30 -11 4 1 10 0 13 -1 18 -7 50 -5 50 4 0 6 5
5 12 -2 14 -14 32 -16 23 -3 -3 5 9 9 26 9 17 -1 35 5 40 13 5 8 9 11 9 7 0
-4 15 1 33 11 17 10 31 24 29 31 -1 6 2 9 7 6 11 -7 73 73 65 86 -3 4 0 8 5 8
6 0 11 9 11 19 0 11 6 22 13 24 9 4 9 6 0 6 -9 1 -10 8 -3 27 13 34 13 47 -2
38 -9 -5 -9 -2 1 9 7 9 10 17 5 17 -5 0 -10 17 -12 37 -1 20 -6 39 -11 43 -4
3 -11 15 -15 28 -4 12 -12 22 -17 22 -5 0 -9 6 -9 13 0 13 -40 52 -40 39 0 -4
-4 -2 -8 3 -16 23 -86 56 -126 59 -24 1 -49 7 -56 11 -9 5 -11 4 -6 -3z"/>
<path d="M2373 1224 c5 -8 -7 -12 -36 -13 -63 -3 -67 -4 -61 -13 3 -4 -3 -8
-14 -8 -10 0 -28 -9 -40 -20 -12 -11 -25 -20 -31 -20 -5 0 -19 -16 -31 -35
-12 -19 -26 -35 -31 -35 -6 0 -8 -4 -4 -9 3 -5 1 -12 -5 -16 -5 -3 -10 -17
-10 -30 0 -13 -5 -27 -10 -30 -8 -5 -7 -12 2 -23 9 -11 9 -14 1 -8 -9 5 -12
-5 -10 -38 1 -25 6 -48 10 -52 4 -4 7 -18 7 -31 0 -13 7 -26 15 -29 8 -4 13
-9 10 -14 -7 -11 41 -65 84 -94 36 -26 67 -37 104 -39 9 -1 17 -5 17 -10 0 -5
6 -4 14 2 10 9 16 9 21 1 5 -8 11 -8 21 1 11 9 14 8 14 -2 0 -10 3 -10 12 -1
7 7 22 12 35 12 13 0 23 5 23 11 0 5 4 8 10 4 14 -9 120 83 120 105 0 7 10 21
22 31 11 11 16 19 9 19 -7 0 -9 5 -4 13 12 19 14 37 13 97 -1 75 -2 80 -12 80
-4 0 -8 9 -8 20 0 11 -4 20 -10 20 -5 0 -10 6 -10 13 0 6 -10 23 -21 37 -11
14 -18 18 -14 10 4 -8 -4 -3 -17 13 -14 15 -31 27 -37 27 -7 0 -9 5 -6 10 4 6
-5 10 -19 10 -14 0 -26 5 -26 11 0 5 -4 7 -10 4 -5 -3 -10 -2 -10 2 0 5 -12 8
-27 7 -16 -1 -34 4 -42 10 -11 8 -13 8 -8 0z"/>
<path d="M3068 1219 c-7 -4 -16 -5 -20 -3 -4 3 -8 0 -8 -6 0 -6 -4 -9 -10 -5
-9 6 -43 -10 -66 -30 -6 -5 -25 -21 -43 -34 -17 -13 -29 -26 -27 -29 3 -2 -4
-13 -15 -25 -10 -11 -19 -28 -19 -37 0 -9 -6 -22 -12 -29 -11 -11 -10 -12 2
-6 12 7 13 6 4 -6 -6 -8 -10 -22 -9 -31 2 -10 -1 -20 -6 -24 -5 -3 -5 -13 -1
-22 5 -9 8 -29 7 -44 -1 -15 2 -25 7 -22 4 3 9 -2 9 -10 3 -32 4 -36 21 -55 9
-11 15 -21 14 -23 -2 -1 7 -13 20 -26 13 -12 24 -20 24 -16 0 4 9 -3 19 -15
11 -12 22 -22 25 -22 21 3 26 0 20 -10 -5 -8 1 -10 19 -7 15 3 31 0 37 -7 10
-12 71 -12 125 0 17 4 36 7 43 7 6 1 12 5 12 10 0 4 6 8 14 8 7 0 19 7 26 15
7 8 16 12 21 9 5 -3 8 0 7 8 -2 7 3 12 10 10 6 -1 12 4 12 12 0 8 10 22 22 30
12 9 19 16 15 16 -4 0 0 14 8 30 9 17 13 35 10 40 -3 6 -1 10 5 10 6 0 8 5 5
10 -3 6 -1 10 5 10 6 0 9 4 6 8 -3 5 -6 29 -7 55 -2 26 -6 47 -11 47 -4 0 -8
5 -8 11 0 5 5 7 12 3 6 -4 2 8 -10 28 -12 19 -18 39 -14 43 4 5 1 5 -5 1 -8
-4 -13 -1 -13 8 0 9 -4 16 -10 16 -5 0 -10 7 -10 16 0 8 -4 12 -10 9 -5 -3
-10 -2 -10 4 0 5 -9 13 -20 16 -11 4 -18 11 -15 16 4 5 -3 9 -14 9 -12 0 -21
4 -21 8 0 4 -12 9 -27 10 -15 1 -29 5 -32 10 -8 9 -97 10 -113 1z"/>
</g>
</svg>
