<?xml version="1.0" encoding="utf-8"?>
<!-- Generator: Adobe Illustrator 27.8.0, SVG Export Plug-In . SVG Version: 6.00 Build 0)  -->
<svg version="1.1" id="Icon" xmlns="http://www.w3.org/2000/svg" xmlns:xlink="http://www.w3.org/1999/xlink" x="0px" y="0px"
	 viewBox="0 0 1024 1024" style="enable-background:new 0 0 1024 1024;" xml:space="preserve">
<style type="text/css">
	.st0{fill:#319246;}
</style>
<g>
	<path class="st0" d="M972.9,594C883.2,393.5,754,434.8,686.4,28.6c-72.6,375.3-196,364.9-286.9,565.4
		c-98.4,228.5,115.1,417,286.9,417S1071.7,822.6,972.9,594z M665.6,889.3c-6.9,14.5-21.5,23.7-37.5,23.8c-6.1,0.1-12.1-1.4-17.5-4.2
		c-61.1-27.7-105.2-83.1-118.4-148.9c-3.9-23,11.6-44.9,34.6-48.8c23-3.9,44.9,11.6,48.8,34.6c8.7,39.2,35.5,72,72.1,88.4
		C667.4,844.8,675.4,869.1,665.6,889.3z"/>
	<rect x="131.4" y="236" class="st0" width="62.7" height="62.7"/>
	<rect x="243.1" y="236" class="st0" width="62.7" height="62.7"/>
	<rect x="354.6" y="236" class="st0" width="62.7" height="62.7"/>
	<rect x="131.4" y="338.5" class="st0" width="62.7" height="62.7"/>
	<rect x="243.1" y="338.5" class="st0" width="62.7" height="62.7"/>
	<rect x="354.6" y="338.5" class="st0" width="62.7" height="62.7"/>
	<rect x="131.4" y="441.2" class="st0" width="62.7" height="62.7"/>
	<rect x="243.1" y="441.2" class="st0" width="62.7" height="62.7"/>
	<rect x="354.6" y="441.2" class="st0" width="62.7" height="62.7"/>
	<rect x="131.4" y="112.8" class="st0" width="286.2" height="78.6"/>
	<path class="st0" d="M364.7,587.5h-291V60.4h405.1v350.3c0.2-0.2,0.4-0.4,0.5-0.7c16.1-19.7,31.9-38.8,47.1-59.9V13H26v622.1h323.1
		C353.1,619.2,358.3,603.3,364.7,587.5z"/>
</g>
</svg>
