<?xml version="1.0" encoding="utf-8"?>
<!-- Generator: Adobe Illustrator 23.0.6, SVG Export Plug-In . SVG Version: 6.00 Build 0)  -->
<svg id="Ebene_1" xmlns="http://www.w3.org/2000/svg" xmlns:xlink="http://www.w3.org/1999/xlink" x="0px" y="0px"
	 viewBox="0 0 200 23" style="enable-background:new 0 0 200 23;" xml:space="preserve">
<style type="text/css">
	.st0{fill:#008335;}
</style>
<g>
	<path class="st0" d="M13.7,11.1c-1.1-1-2.5-1.5-4-1.9C8.3,8.8,6.9,8.5,5.9,8.1c-1-0.5-1.6-1-1.6-1.8c0-1.7,1.1-2.6,2.7-2.6
		c1.1,0,2,0.4,2.7,1s1.1,1.6,1.3,2.6h3.4V0.6h-3.6v1.1c-1.1-0.9-2.5-1.6-4-1.6c-2.5,0-4.3,1-5.3,2.3C0.4,3.7,0,5.2,0,6.2
		c0,2.8,1.2,4.5,2.6,5.4c1.3,0.9,2.8,1.1,3.2,1.2c1.8,0.5,3.2,0.8,4.1,1.3s1.4,1,1.4,2.4c0,1.6-1.4,2.9-2.9,2.9
		c-2.7,0-4.4-1.9-4.8-4.5H0.2v7.5h3.6v-1.3c1.5,1.1,3.1,1.7,5,1.7l0,0c2,0,3.7-0.7,4.9-1.9c1.2-1.2,2-2.9,2-5
		C15.6,13.6,14.9,12.1,13.7,11.1"/>
	<path class="st0" d="M34.4,14.8l-0.1,0.1c-1.2,2.3-2.7,3.8-5.7,3.9c-4.3,0-6.6-3.3-6.6-7.3s2.4-7.3,6.6-7.3c1.1,0,2.3,0.3,3.2,1
		c0.9,0.6,1.7,1.5,2,2.6v0.2h3.5V0.6h-3.5v1.2c-1.8-1.4-4.5-1.7-5.2-1.7c-2.6,0-5.3,0.9-7.3,2.7c-2.1,1.9-3.5,4.7-3.5,8.5
		c0,3.2,1.2,6.1,3.1,8.2c2,2.1,4.7,3.3,7.8,3.3l0,0c4.6,0,8.4-2.5,9.6-7.7c0,0,0-0.1,0-0.3C38.2,14.8,34.4,14.8,34.4,14.8"/>
	<polygon class="st0" points="162.1,0.6 162.1,4 164.3,4 164.3,18.9 162.1,18.9 162.1,22.4 178.4,22.4 178.4,15.5 174.8,15.5
		174.8,18.9 168.6,18.9 168.6,12.8 174.4,12.8 174.4,9.1 168.6,9.1 168.6,4 174.8,4 174.8,6.4 175.1,6.4 175.1,6.4 178.4,6.4
		178.4,0.6 	"/>
	<polygon class="st0" points="156.4,15.5 156.4,18.9 151.9,18.9 151.9,4 154.2,4 154.2,0.6 145.3,0.6 145.3,4 147.6,4 147.6,18.9
		145.3,18.9 145.3,22.4 160,22.4 160,15.5 	"/>
	<path class="st0" d="M188.3,4h1.7c1,0,2.1,0,3,0.3c0.8,0.3,1.4,0.8,1.4,2c0,1.4-0.5,2-1.2,2.4s-1.7,0.5-2.7,0.5h-2.2V4L188.3,4z
		 M198,18.9v-4.5c0-0.7,0-1.4-0.4-2.1c-0.3-0.6-1.1-1-2-1.4c1.9-1,3.1-2.5,3.1-4.8v0c0-0.4,0-1.7-1-3c-1.7-2.3-4.3-2.5-5.9-2.5
		c-0.3,0-0.5,0-0.8,0h-9.2V4h2.2v15h-2.2v3.4h8.6v-0.3V19h-2.1v-6.2h2c0.8,0,1.6,0.1,2.3,0.3c0.7,0.3,1.1,0.7,1.1,1.6v7.7h6.3V19
		L198,18.9L198,18.9z"/>
	<polygon class="st0" points="60.2,4 60.2,0.6 51.7,0.6 51.7,4 53.7,4 53.7,9.1 46.7,9.1 46.7,4 48.7,4 48.7,0.6 40.2,0.6 40.2,4
		42.5,4 42.5,18.9 40.2,18.9 40.2,22.4 48.7,22.4 48.7,18.9 46.7,18.9 46.7,12.8 53.7,12.8 53.7,18.9 51.7,18.9 51.7,22.4
		60.2,22.4 60.2,18.9 58,18.9 58,4 	"/>
	<polygon class="st0" points="125.4,0.6 125.4,4 127.6,4 127.6,18.9 125.4,18.9 125.4,22.4 134.1,22.4 134.1,18.9 131.9,18.9
		131.9,12.8 138.2,12.8 138.2,9.1 131.9,9.1 131.9,4 138.4,4 138.4,6.4 142,6.4 142,0.6 	"/>
	<path class="st0" d="M70.7,11.9L73,4.7h0.1l2.2,7.2C75.3,11.9,70.7,11.9,70.7,11.9z M81.6,18.9l-4.9-15h2.2V0.6H67.5V4h2.2l-5,15
		h-1.5v3.4h7.5V19h-2l1.2-3.6h6.2l1.2,3.6h-2v3.4H83V19C83,18.9,81.6,18.9,81.6,18.9z"/>
	<polygon class="st0" points="86,0.6 86,4 88.3,4 88.3,18.9 86,18.9 86,22.4 102.4,22.4 102.4,15.5 98.8,15.5 98.8,18.9 92.5,18.9
		92.5,12.8 98.4,12.8 98.4,9.1 92.5,9.1 92.5,4 98.8,4 98.8,6.4 102.4,6.4 102.4,0.6 	"/>
	<polygon class="st0" points="106.3,0.6 106.3,4 108.5,4 108.5,18.9 106.3,18.9 106.3,22.4 115,22.4 115,22.1 115,19.3 115,19.3
		115,18.9 112.8,18.9 112.8,12.8 119.1,12.8 119.1,9.1 112.8,9.1 112.8,4 119.3,4 119.3,6.4 122.9,6.4 122.9,0.6 	"/>
</g>
</svg>
