<svg xmlns="http://www.w3.org/2000/svg" xmlns:xlink="http://www.w3.org/1999/xlink" viewBox="0 0 106 12">
  <defs>
    <path id="schaeffler_green_rgb-a" d="M7.4823,5.9613 C6.9033,5.4507 6.1488,5.2014 5.4039,4.9785 C4.6551,4.7583 3.9141,4.5993 3.3771,4.3719 C2.8338,4.137 2.5326,3.873 2.5317,3.4248 C2.5407,2.5551 3.0888,2.0868 3.9276,2.0766 C4.5021,2.0766 4.965,2.2755 5.3205,2.6142 C5.6625,2.9397 5.9094,3.4155 6.0237,3.9693 L7.806,3.9693 L7.806,0.5367 L5.946,0.5367 L5.9496,1.1274 C5.364,0.6573 4.62,0.294 3.8364,0.293697929 C2.5206,0.2925 1.6233,0.813 1.0695,1.4682 C0.5142,2.1237 0.294,2.901 0.29308522,3.4449 C0.2895,4.9008 0.9441,5.7405 1.653,6.2028 C2.3571,6.6672 3.1233,6.78 3.3318,6.8415 C4.2465,7.1172 4.9896,7.2519 5.4756,7.4907 C5.9577,7.7349 6.1938,8.0229 6.2031,8.7327 C6.2019,9.5637 5.4957,10.203 4.6854,10.203 C3.2739,10.1985 2.3703,9.2514 2.184,7.8666 L0.384,7.8666 L0.384,11.7429 L2.2437,11.7429 L2.2437,11.0922 C3.0072,11.6445 3.8907,11.9859 4.8372,11.9859 L4.8384,11.9859 C5.8674,11.9859 6.7701,11.6376 7.4151,11.019 C8.0598,10.4013 8.4423,9.5136 8.44141126,8.4585 C8.4438,7.2504 8.0622,6.4728 7.4823,5.9613"/>
    <path id="schaeffler_green_rgb-c" d="M9.3036,7.8408 L9.2667,7.9155 C8.6646,9.1038 7.8663,9.8922 6.2805,9.8994 C4.0425,9.8949 2.8323,8.1825 2.8239,6.1386 C2.832,4.0845 4.0731,2.3835 6.2805,2.3799 C6.8763,2.3799 7.4883,2.553 7.9782,2.8854 C8.4732,3.2079 8.8566,3.6642 8.9988,4.2474 L9.0237,4.3488 L10.8537,4.3488 L10.8525,0.537 L8.9958,0.537 L8.9958,1.1466 C8.0385,0.4413 6.6039,0.2973 6.2637,0.2928 C4.9239,0.2931 3.5079,0.753 2.4207,1.7097 C1.3338,2.6649 0.5841,4.1208 0.585298562,6.0801 C0.585298562,7.7487 1.2009,9.2259 2.2227,10.2855 C3.2427,11.3451 4.6695,11.985 6.2805,11.985 L6.2991,11.985 C8.7159,11.985 10.6941,10.6728 11.3352,8.0064 C11.3352,8.0064 11.3493,7.9464 11.3529,7.8423 C11.2878,7.8408 9.3036,7.8408 9.3036,7.8408"/>
    <polygon id="schaeffler_green_rgb-e" points=".298 .536 .298 2.289 1.466 2.289 1.466 9.99 .298 9.99 .298 11.742 8.859 11.742 8.859 8.201 6.984 8.201 6.984 9.99 3.705 9.99 3.705 6.772 6.749 6.772 6.749 4.912 3.705 4.912 3.705 2.289 6.984 2.289 6.984 3.555 7.117 3.555 7.117 3.563 8.859 3.563 8.859 .536"/>
    <polygon id="schaeffler_green_rgb-g" points=".528 .536 .528 2.289 1.756 2.289 1.756 9.99 .528 9.99 .528 11.742 8.209 11.742 8.209 8.233 6.333 8.233 6.333 9.99 3.994 9.99 3.994 2.289 5.182 2.289 5.182 .536"/>
    <path id="schaeffler_green_rgb-i" d="M3.5187,2.289 L4.4325,2.289 C4.9458,2.2881 5.5371,2.2917 5.9775,2.4495 C6.4173,2.6148 6.7011,2.8791 6.7089,3.5025 C6.7035,4.2072 6.4611,4.5534 6.0939,4.7646 C5.7231,4.9746 5.1975,5.0238 4.6599,5.02262125 L3.5187,5.02262125 L3.5187,2.289 Z M8.5791,9.9897 L8.5791,7.6569 C8.5791,7.3164 8.5536,6.9297 8.3541,6.5808 C8.1873,6.291 7.7907,6.0414 7.3317,5.8743 C8.3256,5.3757 8.9499,4.599 8.9409,3.3978 L8.9409,3.3597 C8.9409,3.1359 8.9262,2.4615 8.4294,1.83 C7.5192,0.6222 6.1704,0.5334 5.3382,0.534293352 C5.1879,0.534293352 5.055,0.5379 4.9446,0.5379 L0.1149,0.537 L0.1149,2.2899 L1.2822,2.2899 L1.2822,9.9903 L0.1149,9.9903 L0.1149,11.7429 L4.5993,11.7429 L4.5993,11.6094 L4.5993,9.9903 L3.5187,9.9903 L3.5187,6.7722 L4.5687,6.7725 C4.9641,6.7716 5.4297,6.8004 5.7753,6.9447 C6.1212,7.0947 6.3408,7.3134 6.3459,7.7754 L6.3459,11.742 L9.6414,11.742 L9.6414,9.9894 L8.5791,9.9894 L8.5791,9.9897 Z"/>
    <polygon id="schaeffler_green_rgb-k" points="6.338 .536 6.338 2.289 7.373 2.289 7.373 4.912 3.731 4.912 3.731 2.289 4.759 2.289 4.759 .536 .326 .536 .326 2.289 1.496 2.289 1.496 9.99 .326 9.99 .326 11.742 4.763 11.742 4.763 9.99 3.731 9.99 3.731 6.772 7.373 6.772 7.373 9.99 6.338 9.99 6.338 11.742 10.776 11.742 10.776 9.99 9.611 9.99 9.611 2.289 10.776 2.289 10.776 .536"/>
    <polygon id="schaeffler_green_rgb-m" points=".637 .536 .637 2.289 1.804 2.289 1.804 9.99 .637 9.99 .637 11.742 5.196 11.742 5.196 9.99 4.04 9.99 4.04 6.772 7.331 6.773 7.331 4.912 4.04 4.912 4.04 2.289 7.44 2.289 7.44 3.555 9.316 3.555 9.316 .536"/>
    <path id="schaeffler_green_rgb-o" d="M5.4585,2.6748 L5.5035,2.6748 L6.6486,6.372 L4.2921,6.372 L5.4585,2.6748 Z M2.5902,0.5364 L2.5902,2.2893 L3.7347,2.2893 L1.0989,9.9897 L0.2949,9.9897 L0.2949,11.7423 L4.239,11.7423 L4.239,9.9897 L3.1872,9.9897 L3.8169,8.1225 L7.0734,8.1225 L7.7031,9.9897 L6.6375,9.9897 L6.6375,11.7423 L10.6941,11.7423 L10.6941,9.9897 L9.9444,9.9897 L7.3806,2.289 L8.5107,2.2893 L8.5107,0.5364 L2.5902,0.5364 L2.5902,0.5364 Z"/>
    <polygon id="schaeffler_green_rgb-q" points=".288 .537 .288 2.289 1.452 2.289 1.452 9.99 .288 9.99 .288 11.742 8.845 11.742 8.845 8.201 6.969 8.201 6.969 9.99 3.688 9.99 3.688 6.773 6.736 6.773 6.736 4.912 3.688 4.912 3.688 2.289 6.969 2.289 6.969 3.555 8.845 3.555 8.845 .537"/>
    <polygon id="schaeffler_green_rgb-s" points=".391 .536 .391 2.289 1.558 2.289 1.558 9.99 .391 9.99 .391 11.742 4.947 11.742 4.947 10.123 4.947 9.99 3.794 9.99 3.794 6.772 7.08 6.772 7.08 4.912 3.794 4.912 3.794 2.289 7.192 2.289 7.192 3.555 9.068 3.555 9.068 .536"/>
  </defs>
  <g fill="none" fill-rule="evenodd" opacity=".6">
    <mask id="schaeffler_green_rgb-b" fill="#fff">
      <use xlink:href="#schaeffler_green_rgb-a"/>
    </mask>
    <use fill="#FFF" fill-rule="nonzero" xlink:href="#schaeffler_green_rgb-a"/>
    <g fill-opacity=".6" mask="url(#schaeffler_green_rgb-b)">
      <rect width="129" height="36" fill="#000" transform="translate(-12 -12)"/>
    </g>
    <g transform="translate(9)">
      <mask id="schaeffler_green_rgb-d" fill="#fff">
        <use xlink:href="#schaeffler_green_rgb-c"/>
      </mask>
      <use fill="#FFF" fill-rule="nonzero" xlink:href="#schaeffler_green_rgb-c"/>
      <g fill-opacity=".6" mask="url(#schaeffler_green_rgb-d)">
        <rect width="129" height="36" fill="#000" transform="translate(-21 -12)"/>
      </g>
    </g>
    <g transform="translate(84.75)">
      <mask id="schaeffler_green_rgb-f" fill="#fff">
        <use xlink:href="#schaeffler_green_rgb-e"/>
      </mask>
      <use fill="#FFF" fill-rule="nonzero" xlink:href="#schaeffler_green_rgb-e"/>
      <g fill-opacity=".6" mask="url(#schaeffler_green_rgb-f)">
        <rect width="129" height="36" fill="#000" transform="translate(-96.75 -12)"/>
      </g>
    </g>
    <g transform="translate(75.75)">
      <mask id="schaeffler_green_rgb-h" fill="#fff">
        <use xlink:href="#schaeffler_green_rgb-g"/>
      </mask>
      <use fill="#FFF" fill-rule="nonzero" xlink:href="#schaeffler_green_rgb-g"/>
      <g fill-opacity=".6" mask="url(#schaeffler_green_rgb-h)">
        <rect width="129" height="36" fill="#000" transform="translate(-87.75 -12)"/>
      </g>
    </g>
    <g transform="translate(95.25)">
      <mask id="schaeffler_green_rgb-j" fill="#fff">
        <use xlink:href="#schaeffler_green_rgb-i"/>
      </mask>
      <use fill="#FFF" fill-rule="nonzero" xlink:href="#schaeffler_green_rgb-i"/>
      <g fill-opacity=".6" mask="url(#schaeffler_green_rgb-j)">
        <rect width="129" height="36" fill="#000" transform="translate(-107.25 -12)"/>
      </g>
    </g>
    <g transform="translate(21)">
      <mask id="schaeffler_green_rgb-l" fill="#fff">
        <use xlink:href="#schaeffler_green_rgb-k"/>
      </mask>
      <use fill="#FFF" fill-rule="nonzero" xlink:href="#schaeffler_green_rgb-k"/>
      <g fill-opacity=".6" mask="url(#schaeffler_green_rgb-l)">
        <rect width="129" height="36" fill="#000" transform="translate(-33 -12)"/>
      </g>
    </g>
    <g transform="translate(65.25)">
      <mask id="schaeffler_green_rgb-n" fill="#fff">
        <use xlink:href="#schaeffler_green_rgb-m"/>
      </mask>
      <use fill="#FFF" fill-rule="nonzero" xlink:href="#schaeffler_green_rgb-m"/>
      <g fill-opacity=".6" mask="url(#schaeffler_green_rgb-n)">
        <rect width="129" height="36" fill="#000" transform="translate(-77.25 -12)"/>
      </g>
    </g>
    <g transform="translate(33)">
      <mask id="schaeffler_green_rgb-p" fill="#fff">
        <use xlink:href="#schaeffler_green_rgb-o"/>
      </mask>
      <use fill="#FFF" fill-rule="nonzero" xlink:href="#schaeffler_green_rgb-o"/>
      <g fill-opacity=".6" mask="url(#schaeffler_green_rgb-p)">
        <rect width="129" height="36" fill="#000" transform="translate(-45 -12)"/>
      </g>
    </g>
    <g transform="translate(45)">
      <mask id="schaeffler_green_rgb-r" fill="#fff">
        <use xlink:href="#schaeffler_green_rgb-q"/>
      </mask>
      <use fill="#FFF" fill-rule="nonzero" xlink:href="#schaeffler_green_rgb-q"/>
      <g fill-opacity=".6" mask="url(#schaeffler_green_rgb-r)">
        <rect width="129" height="36" fill="#000" transform="translate(-57 -12)"/>
      </g>
    </g>
    <g transform="translate(55.5)">
      <mask id="schaeffler_green_rgb-t" fill="#fff">
        <use xlink:href="#schaeffler_green_rgb-s"/>
      </mask>
      <use fill="#FFF" fill-rule="nonzero" xlink:href="#schaeffler_green_rgb-s"/>
      <g fill-opacity=".6" mask="url(#schaeffler_green_rgb-t)">
        <rect width="129" height="36" fill="#000" transform="translate(-67.5 -12)"/>
      </g>
    </g>
  </g>
</svg>
