<?xml version="1.0" standalone="no"?>
<!DOCTYPE svg PUBLIC "-//W3C//DTD SVG 20010904//EN"
 "http://www.w3.org/TR/2001/REC-SVG-20010904/DTD/svg10.dtd">
<svg version="1.0" xmlns="http://www.w3.org/2000/svg"
 width="310.000000pt" height="310.000000pt" viewBox="0 0 310.000000 310.000000"
 preserveAspectRatio="xMidYMid meet">
<metadata>
Created by potrace 1.11, written by Peter Selinger 2001-2013
</metadata>
<g transform="translate(0.000000,310.000000) scale(0.100000,-0.100000)"
fill="#000000" stroke="none">
<path d="M1439 3096 c-2 -2 -24 -6 -49 -9 -144 -18 -325 -104 -460 -220 l-44
-38 59 -59 60 -60 65 53 c77 61 188 119 280 143 87 23 266 28 347 9 138 -32
237 -81 340 -165 l48 -40 59 60 59 60 -43 38 c-140 119 -301 194 -475 221 -57
8 -239 13 -246 7z"/>
<path d="M1528 2765 c-2 -2 -23 -4 -48 -6 -92 -6 -240 -69 -320 -138 l-35 -30
59 -60 59 -60 38 30 c151 120 377 120 528 0 l38 -30 59 60 59 59 -40 35 c-78
68 -207 123 -305 131 -30 3 -63 7 -72 8 -9 2 -18 2 -20 1z"/>
<path d="M1346 2329 c-21 -17 -21 -25 -23 -439 -2 -495 -10 -460 107 -460 l70
0 2 -207 3 -208 30 -1 c56 -2 55 -8 55 212 l0 204 73 0 c49 0 80 5 95 16 l22
15 0 424 c0 372 -2 425 -16 439 -20 20 1 18 -213 20 -159 1 -187 -1 -205 -15z"/>
<path d="M1092 1917 c-343 -176 -554 -510 -561 -889 -5 -271 102 -533 298
-729 306 -306 758 -383 1156 -198 263 122 483 397 550 689 24 102 29 303 10
400 -63 322 -260 583 -551 729 -43 22 -81 36 -84 31 -9 -14 -3 -214 7 -217 33
-11 148 -98 200 -151 206 -208 284 -490 213 -766 -101 -398 -485 -658 -892
-605 -265 35 -514 217 -628 460 -100 214 -99 468 2 686 69 151 176 262 363
378 18 11 20 23 20 119 0 66 -3 106 -10 106 -5 0 -47 -19 -93 -43z"/>
<path d="M1987 1372 c-73 -44 -60 -146 20 -167 59 -15 121 45 108 105 -12 56
-82 90 -128 62z"/>
<path d="M1025 1370 c-43 -17 -58 -62 -41 -118 16 -50 105 -61 144 -17 62 72
-14 172 -103 135z"/>
<path d="M1395 1300 c-59 -29 -114 -87 -144 -150 -36 -76 -37 -202 -3 -271 35
-71 84 -122 148 -154 52 -27 69 -30 149 -30 75 0 98 4 140 24 63 32 124 92
155 156 36 73 36 198 -1 275 -30 63 -85 121 -144 150 l-40 20 -3 -46 c-3 -43
-1 -48 38 -81 60 -51 84 -104 84 -184 1 -56 -4 -73 -29 -115 -95 -153 -329
-147 -405 12 -27 54 -33 127 -17 182 7 21 34 59 65 91 50 50 53 56 50 97 l-3
44 -40 -20z"/>
<path d="M953 1099 c-31 -11 -56 -54 -55 -92 1 -43 52 -90 90 -83 46 7 62 17
78 47 38 74 -36 157 -113 128z"/>
<path d="M2083 1102 c-57 -17 -84 -71 -63 -123 37 -89 172 -62 172 35 0 20 -6
43 -13 52 -11 14 -64 45 -71 43 -2 -1 -13 -4 -25 -7z"/>
<path d="M1034 820 c-29 -11 -64 -58 -64 -86 0 -31 44 -80 77 -87 63 -12 121
56 101 115 -16 47 -71 74 -114 58z"/>
<path d="M1969 801 c-34 -28 -34 -104 0 -132 30 -25 82 -24 114 1 33 27 41 52
27 94 -18 55 -95 75 -141 37z"/>
<path d="M1233 613 c-85 -17 -60 -168 27 -165 66 2 104 42 94 99 -9 52 -60 79
-121 66z"/>
<path d="M1780 607 c-62 -31 -59 -123 5 -154 78 -37 155 39 117 117 -23 47
-72 62 -122 37z"/>
<path d="M1503 535 c-37 -16 -59 -68 -44 -106 43 -113 208 -57 170 58 -17 52
-69 72 -126 48z"/>
</g>
</svg>
