<svg xmlns="http://www.w3.org/2000/svg" viewBox="0 0 131 15"><defs><style>.a{clip-path:url(#b);}.b{fill:#00893d;}</style><clipPath id="b"><rect width="131" height="15"/></clipPath></defs><g id="a" class="a"><g transform="translate(0 0.01)"><path class="b" d="M297.105,527.018a4.068,4.068,0,0,0-4.352,3.85c0,3.619,3.186,4.016,3.766,4.185,2.318.7,3.766.653,3.766,2.553a2.077,2.077,0,0,1-2.093,2.05,3.292,3.292,0,0,1-3.348-3.139h-1.967v4.771h2.009v-.879a5.378,5.378,0,0,0,3.515,1.214,4.175,4.175,0,0,0,4.394-4.352c0-3.018-1.83-3.708-3.724-4.269s-3.808-.839-3.808-2.176a1.806,1.806,0,0,1,1.967-1.883,2.66,2.66,0,0,1,1.883.753,3.455,3.455,0,0,1,.962,1.8H302v-4.185h-2.051v.879A4.153,4.153,0,0,0,297.105,527.018Zm13.894,0a6.885,6.885,0,0,0-7.073,7.2,7.155,7.155,0,0,0,7.114,7.407,6.1,6.1,0,0,0,6.277-4.98h-2.3a4.139,4.139,0,0,1-3.976,2.637c-2.96,0-4.6-2.307-4.6-4.98,0-2.688,1.684-4.98,4.6-4.98a4.13,4.13,0,0,1,2.26.711,3.03,3.03,0,0,1,1.381,1.8h2.009v-4.52h-2.009v.92A6.237,6.237,0,0,0,311,527.018Zm7.742.293v1.925h1.507v10.17h-1.507v1.883h5.524v-1.883h-1.507V534.97h4.98v4.436h-1.465v1.883h5.482v-1.883H330.25v-10.17h1.507v-1.925h-5.482v1.925h1.465v3.515h-4.98v-3.515h1.507v-1.925h-5.524Zm17.7,0v1.925h1.548l-3.474,10.17h-1.172v1.883h5.022v-1.883h-1.507l.963-2.72h4.227l.962,2.72h-1.548v1.883h5.148v-1.883h-1.046l-3.39-10.169h1.507v-1.925h-7.24Zm12.22,0v1.925h1.507v10.17h-1.507v1.883h10.755V537.1H357.2v2.3h-4.52v-4.436h3.892v-2.218H352.68v-3.515h4.52v1.8h2.218v-3.724H348.664Zm13.35,0v1.925h1.507v10.17h-1.507v1.883h5.65v-1.883h-1.632V534.97h4.185v-2.218h-4.185v-3.515h4.687v1.8h2.218v-3.724h-10.92Zm12.6,0v1.925h1.507v10.17h-1.507v1.883h5.65v-1.883h-1.632V534.97h4.185v-2.218h-4.185v-3.515h4.687v1.8h2.218v-3.724H374.611Zm13.1,0v1.925h1.59v10.17h-1.59v1.883h9.625v-4.143h-2.218v2.26h-3.306v-10.17h1.716v-1.925H387.71Zm11.048,0v1.925h1.465v10.17h-1.465v1.883h10.755V537.1H407.3v2.3h-4.562v-4.436h3.892v-2.218h-3.892v-3.515H407.3v1.8h2.218v-3.724h-10.76Zm12.973,0v1.925h1.507v10.17h-1.507v1.883H417.3v-1.883h-1.548V534.97h1.506c1.028,0,2.427.111,2.427,1.423v4.9h3.892V539.41H422.2v-3.18a1.961,1.961,0,0,0-1.716-2.218v-.042a3.065,3.065,0,0,0,2.176-3.139,2.933,2.933,0,0,0-.586-1.925c-1.312-1.746-3.358-1.59-4.311-1.59Zm4.018,1.925h1.339c1.313,0,3.1,0,3.1,1.716,0,1.88-1.413,2.092-2.8,2.092h-1.632v-3.808Zm-75.79.837H340l1.548,4.687h-3.181Z" transform="translate(-292.753 -527.018)"/></g></g></svg>
