<svg width="30" height="30" viewBox="0 0 30 30" fill="none" xmlns="http://www.w3.org/2000/svg">
  <path d="M15.0002 29.6667H0.333496V15V0.333336H1.00016H1.66683V3V5.66667H2.3335H3.00016V6.33334V7H3.66683H4.3335V6.33334V5.66667H6.3335H8.3335V5V4.33334H9.00016H9.66683V5V5.66667H10.3335H11.0002V4.33334V3H10.3335H9.66683V2.33334V1.66667H9.00016H8.3335V2.33334V3H7.66683H7.00016V3.66667V4.33334H6.3335H5.66683V3.66667V3H5.00016H4.3335V3.66667V4.33334H3.66683H3.00016V3.66667V3H3.66683H4.3335V2.33334V1.66667H3.66683H3.00016V1V0.333336H3.66683H4.3335V1V1.66667H5.00016H5.66683V1V0.333336H6.3335H7.00016V1V1.66667H7.66683H8.3335V1V0.333336H9.00016H9.66683V1V1.66667H10.3335H11.0002V1V0.333336H11.6668H12.3335V2.33334V4.33334H13.0002H13.6668V5V5.66667H14.3335H15.0002V7.66667V9.66667H15.6668H16.3335V10.3333V11H17.0002H17.6668V9.66667V8.33334H17.0002H16.3335V7V5.66667H17.0002H17.6668V5V4.33334H18.3335H19.0002V5V5.66667H19.6668H20.3335V6.33334V7H21.0002H21.6668V6.33334V5.66667H22.3335H23.0002V5V4.33334H21.6668H20.3335V3.66667V3H19.6668H19.0002V1.66667V0.333336H19.6668H20.3335V1.66667V3H21.6668H23.0002V3.66667V4.33334H24.3335H25.6668V3.66667V3H25.0002H24.3335V1.66667V0.333336H25.0002H25.6668V1V1.66667H26.3335H27.0002V1V0.333336H27.6668H28.3335V1V1.66667H29.0002H29.6668V2.33334V3H29.0002H28.3335V3.66667V4.33334H29.0002H29.6668V5V5.66667H29.0002H28.3335V6.33334V7H29.0002H29.6668V7.66667V8.33334H29.0002H28.3335V9V9.66667H29.0002H29.6668V10.3333V11H28.3335H27.0002V11.6667V12.3333H28.3335H29.6668V13V13.6667H28.3335H27.0002V14.3333V15H28.3335H29.6668V15.6667V16.3333H29.0002H28.3335V17V17.6667H29.0002H29.6668V18.3333V19H29.0002H28.3335V19.6667V20.3333H29.0002H29.6668V21V21.6667H29.0002H28.3335V22.3333V23H29.0002H29.6668V23.6667V24.3333H27.0002H24.3335V23.6667V23H23.6668H23.0002V25V27H21.6668H20.3335V26.3333V25.6667H19.6668H19.0002V27V28.3333H21.6668H24.3335V27.6667V27H25.0002H25.6668V26.3333V25.6667H27.6668H29.6668V26.3333V27H27.6668H25.6668V27.6667V28.3333H27.6668H29.6668V29V29.6667H15.0002ZM3.00016 28.3333H4.3335V27.6667V27H5.00016H5.66683V26.3333V25.6667H7.00016H8.3335V25V24.3333H9.00016H9.66683V25.6667V27H9.00016H8.3335V27.6667V28.3333H9.00016H9.66683V27.6667V27H10.3335H11.0002V27.6667V28.3333H11.6668H12.3335V27V25.6667H13.0002H13.6668V26.3333V27H14.3335H15.0002V27.6667V28.3333H15.6668H16.3335V27.6667V27H17.0002H17.6668V26.3333V25.6667H18.3335H19.0002V25V24.3333H17.6668H16.3335V25.6667V27H15.6668H15.0002V26.3333V25.6667H14.3335H13.6668V24.3333V23H14.3335H15.0002V22.3333V21.6667H15.6668H16.3335V22.3333V23H18.3335H20.3335V23.6667V24.3333H21.0002H21.6668V22.3333V20.3333H21.0002H20.3335V21V21.6667H18.3335H16.3335V20.3333V19H17.6668H19.0002V18.3333V17.6667H19.6668H20.3335V17V16.3333H21.0002H21.6668V17V17.6667H22.3335H23.0002V18.3333V19H24.3335H25.6668V17.6667V16.3333H26.3335H27.0002V15.6667V15H25.0002H23.0002V14.3333V13.6667H24.3335H25.6668V13V12.3333H24.3335H23.0002V11.6667V11H24.3335H25.6668V8.33334V5.66667H26.3335H27.0002V5V4.33334H26.3335H25.6668V5V5.66667H24.3335H23.0002V6.33334V7H22.3335H21.6668V7.66667V8.33334H23.0002H24.3335V9V9.66667H23.6668H23.0002V10.3333V11H22.3335H21.6668V11.6667V12.3333H22.3335H23.0002V13V13.6667H21.6668H20.3335V10.3333V7H19.6668H19.0002V6.33334V5.66667H18.3335H17.6668V7V8.33334H18.3335H19.0002V9.66667V11H18.3335H17.6668V12.3333V13.6667H17.0002H16.3335V14.3333V15H15.6668H15.0002V15.6667V16.3333H14.3335H13.6668V17V17.6667H13.0002H12.3335V17V16.3333H11.6668H11.0002V15V13.6667H11.6668H12.3335V12.3333V11H13.0002H13.6668V11.6667V12.3333H15.0002H16.3335V11.6667V11H15.0002H13.6668V10.3333V9.66667H13.0002H12.3335V8.33334V7H13.0002H13.6668V6.33334V5.66667H13.0002H12.3335V6.33334V7H11.0002H9.66683V6.33334V5.66667H9.00016H8.3335V6.33334V7H9.00016H9.66683V7.66667V8.33334H10.3335H11.0002V9V9.66667H10.3335H9.66683V10.3333V11H8.3335H7.00016V10.3333V9.66667H5.66683H4.3335V9V8.33334H3.00016H1.66683V9V9.66667H3.00016H4.3335V11V12.3333H3.66683H3.00016V13V13.6667H3.66683H4.3335V14.3333V15H3.66683H3.00016V15.6667V16.3333H2.3335H1.66683V17V17.6667H2.3335H3.00016V17V16.3333H3.66683H4.3335V17V17.6667H6.3335H8.3335V18.3333V19H7.00016H5.66683V19.6667V20.3333H4.3335H3.00016V21V21.6667H4.3335H5.66683V22.3333V23H5.00016H4.3335V23.6667V24.3333H5.00016H5.66683V25V25.6667H5.00016H4.3335V26.3333V27H3.00016H1.66683V27.6667V28.3333H3.00016ZM11.6668 25.6667H11.0002V25V24.3333H10.3335H9.66683V23.6667V23H9.00016H8.3335V22.3333V21.6667H9.00016H9.66683V21V20.3333H10.3335H11.0002V19.6667V19H11.6668H12.3335V20.3333V21.6667H13.0002H13.6668V20.3333V19H14.3335H15.0002V18.3333V17.6667H15.6668H16.3335V16.3333V15H18.3335H20.3335V15.6667V16.3333H19.0002H17.6668V17V17.6667H17.0002H16.3335V18.3333V19H15.6668H15.0002V20.3333V21.6667H14.3335H13.6668V22.3333V23H12.3335H11.0002V23.6667V24.3333H11.6668H12.3335V25V25.6667H11.6668ZM6.3335 24.3333H5.66683V23.6667V23H6.3335H7.00016V23.6667V24.3333H6.3335ZM6.3335 21.6667H5.66683V21V20.3333H6.3335H7.00016V21V21.6667H6.3335ZM10.3335 17.6667H9.66683V17V16.3333H10.3335H11.0002V17V17.6667H10.3335ZM23.6668 17.6667H23.0002V17V16.3333H23.6668H24.3335V17V17.6667H23.6668ZM6.3335 16.3333H5.66683V15V13.6667H5.00016H4.3335V13V12.3333H5.00016H5.66683V11.6667V11H6.3335H7.00016V11.6667V12.3333H7.66683H8.3335V13V13.6667H7.66683H7.00016V15V16.3333H6.3335ZM11.6668 11H11.0002V10.3333V9.66667H11.6668H12.3335V10.3333V11H11.6668ZM26.3335 23H27.0002V21.6667V20.3333H25.6668H24.3335V21V21.6667H25.0002H25.6668V22.3333V23H26.3335ZM6.3335 8.33334H7.00016V7.66667V7H6.3335H5.66683V7.66667V8.33334H6.3335ZM15.6668 4.33334H15.0002V3V1.66667H14.3335H13.6668V1V0.333336H14.3335H15.0002V1V1.66667H15.6668H16.3335V1V0.333336H17.0002H17.6668V1V1.66667H17.0002H16.3335V3V4.33334H15.6668ZM22.3335 1.66667H21.6668V1V0.333336H22.3335H23.0002V1V1.66667H22.3335Z" fill="black" fill-opacity="0.87"/>
</svg>

