<svg width="201" height="201" viewBox="0 0 201 201" fill="none" xmlns="http://www.w3.org/2000/svg">
<path d="M155.266 31.1562V169.852C155.266 172.109 153.422 173.953 151.164 173.953H58.4609C56.2031 173.953 54.3594 172.109 54.3594 169.852V31.1562C54.3594 28.8984 56.2031 27.0547 58.4609 27.0547H151.164C153.422 27.0547 155.266 28.8984 155.266 31.1562Z" fill="white"/>
<path d="M71.5156 41.1875H138.117C139.086 41.1875 139.867 41.9687 139.867 42.9375C139.867 43.9141 139.086 44.6953 138.117 44.6953H71.5156C70.5469 44.6953 69.7656 43.9141 69.7656 42.9453C69.7656 41.9688 70.5469 41.1875 71.5156 41.1875ZM69.7656 54.4531C69.7656 55.4297 70.5469 56.2109 71.5156 56.2109H138.117C139.086 56.2109 139.867 55.4297 139.867 54.4609C139.867 53.4844 139.086 52.7031 138.117 52.7031H71.5156C70.5469 52.7031 69.7656 53.4844 69.7656 54.4531ZM69.7656 135.031C69.7656 136.008 70.5469 136.789 71.5156 136.789H138.117C139.086 136.789 139.867 136.008 139.867 135.039C139.867 134.062 139.086 133.281 138.117 133.281H71.5156C70.5469 133.281 69.7656 134.062 69.7656 135.031ZM100.078 146.539C100.078 147.516 100.859 148.297 101.828 148.297H138.055C139.023 148.297 139.805 147.516 139.805 146.547C139.805 145.57 139.023 144.789 138.055 144.789H101.828C100.859 144.789 100.078 145.57 100.078 146.539ZM69.8203 146.539C69.8203 147.516 70.6016 148.297 71.5703 148.297H91.4375C92.4062 148.297 93.1875 147.516 93.1875 146.547C93.1875 145.57 92.4062 144.789 91.4375 144.789H71.5703C70.6016 144.789 69.8203 145.57 69.8203 146.539ZM69.7656 158.047C69.7656 159.023 70.5469 159.805 71.5156 159.805H138.117C139.086 159.805 139.867 159.023 139.867 158.055C139.867 157.078 139.086 156.297 138.117 156.297H71.5156C70.5469 156.297 69.7656 157.078 69.7656 158.047Z" fill="#D6E1E4"/>
<path d="M74.0391 131.64L53.1875 152.491L52.6719 153.007C51.9062 153.773 50.8828 154.195 49.7969 154.195C48.7109 154.195 47.6875 153.773 46.9141 153.007C45.3281 151.413 45.3281 148.835 46.9141 147.249L53.1875 140.976L68.2813 125.882C69.8672 124.296 72.4531 124.296 74.0391 125.882C75.625 127.468 75.625 130.054 74.0391 131.64Z" fill="#8BA6AC"/>
<path d="M151.164 25.8828H58.4609C55.5547 25.8828 53.1875 28.25 53.1875 31.1562V169.852C53.1875 172.758 55.5547 175.125 58.4609 175.125H151.164C154.07 175.125 156.438 172.758 156.438 169.852V31.1562C156.438 28.25 154.07 25.8828 151.164 25.8828ZM155.266 169.844C155.266 172.102 153.422 173.945 151.164 173.945H58.4609C56.2031 173.945 54.3594 172.102 54.3594 169.844V31.1562C54.3594 28.8984 56.2031 27.0547 58.4609 27.0547H151.164C153.422 27.0547 155.266 28.8984 155.266 31.1562V169.852V169.844ZM104.812 55.6953C83.3438 55.6953 65.8828 73.1641 65.8828 94.625C65.8828 105.297 70.2031 114.984 77.1719 122.016L74.4844 124.703C72.4297 123.016 69.375 123.133 67.4531 125.047L54.3594 138.141L53.7812 138.719L53.1875 139.312L46.0859 146.414C44.0469 148.453 44.0469 151.781 46.0859 153.828C47.0781 154.812 48.3984 155.359 49.7969 155.359C51.0547 155.359 52.2422 154.922 53.1875 154.117C53.2969 154.023 53.3984 153.93 53.5 153.828L53.7812 153.547L74.8672 132.461C76.75 130.578 76.8906 127.602 75.2969 125.547L78.0078 122.836C84.9844 129.469 94.4297 133.555 104.812 133.555C126.281 133.555 143.742 116.094 143.742 94.625C143.742 73.1563 126.281 55.6953 104.812 55.6953ZM74.0391 131.641L53.1875 152.492L52.6719 153.008C51.9062 153.773 50.8828 154.195 49.7969 154.195C48.7109 154.195 47.6875 153.773 46.9141 153.008C45.3281 151.414 45.3281 148.836 46.9141 147.25L53.1875 140.977L68.2813 125.883C69.8672 124.297 72.4531 124.297 74.0391 125.883C75.625 127.469 75.625 130.055 74.0391 131.641ZM104.812 132.383C83.9922 132.383 67.0547 115.445 67.0547 94.625C67.0547 73.8047 83.9922 56.8672 104.812 56.8672C125.633 56.8672 142.57 73.8047 142.57 94.625C142.57 115.445 125.633 132.383 104.812 132.383Z" fill="#2C2C2C"/>
</svg>

