<?xml version="1.0" standalone="no"?>
<!DOCTYPE svg PUBLIC "-//W3C//DTD SVG 20010904//EN"
 "http://www.w3.org/TR/2001/REC-SVG-20010904/DTD/svg10.dtd">
<svg version="1.0" xmlns="http://www.w3.org/2000/svg"
 width="250.000000pt" height="250.000000pt" viewBox="0 0 250.000000 250.000000"
 preserveAspectRatio="xMidYMid meet">
<metadata>
Created by potrace 1.14, written by Peter Selinger 2001-2017
</metadata>
<g transform="translate(0.000000,250.000000) scale(0.100000,-0.100000)"
fill="#000000" stroke="none">
<path d="M587 2132 c-14 -16 -17 -43 -17 -170 l0 -152 100 0 100 0 0 75 c0 63
3 76 19 85 13 6 176 10 461 10 285 0 448 -4 461 -10 16 -9 19 -22 19 -85 l0
-75 100 0 100 0 0 148 c0 117 -3 152 -16 170 l-15 22 -648 0 c-615 0 -649 -1
-664 -18z"/>
<path d="M870 1861 c-6 -12 -10 -101 -10 -221 0 -120 4 -209 10 -221 10 -18
25 -19 380 -19 355 0 370 1 380 19 13 26 13 416 0 442 -10 18 -25 19 -380 19
-355 0 -370 -1 -380 -19z"/>
<path d="M620 1640 l0 -80 75 0 75 0 0 80 0 80 -75 0 -75 0 0 -80z"/>
<path d="M1730 1640 l0 -80 75 0 75 0 0 80 0 80 -75 0 -75 0 0 -80z"/>
<path d="M570 1322 c0 -110 4 -153 14 -167 12 -17 66 -23 587 -61 316 -23 606
-45 646 -49 64 -5 75 -3 93 15 19 19 20 32 20 215 l0 195 -100 0 -100 0 0 -73
c0 -43 -5 -78 -12 -85 -17 -17 -919 -17 -936 0 -7 7 -12 42 -12 85 l0 73 -100
0 -100 0 0 -148z"/>
<path d="M190 711 l0 -351 1060 0 1060 0 0 270 c0 209 -3 270 -12 270 -7 1
-35 3 -63 6 -27 2 -473 36 -990 74 -517 38 -966 72 -997 76 l-58 6 0 -351z"/>
</g>
</svg>
