<svg id="a22c1148-71b1-4b73-ab04-6a6c1b020557" data-name="Ebene 1" xmlns="http://www.w3.org/2000/svg" viewBox="0 0 35.4 47.72"><defs><style>.b140f55f-8039-4d22-938a-1a2dddf71934{fill:#319246;}</style></defs><circle class="b140f55f-8039-4d22-938a-1a2dddf71934" cx="14.27" cy="20.21" r="2.41"/><circle class="b140f55f-8039-4d22-938a-1a2dddf71934" cx="9.13" cy="24.04" r="2.41"/><circle class="b140f55f-8039-4d22-938a-1a2dddf71934" cx="7.22" cy="30.16" r="2.41"/><circle class="b140f55f-8039-4d22-938a-1a2dddf71934" cx="9.27" cy="36.24" r="2.41"/><circle class="b140f55f-8039-4d22-938a-1a2dddf71934" cx="14.51" cy="39.94" r="2.41"/><circle class="b140f55f-8039-4d22-938a-1a2dddf71934" cx="20.92" cy="39.87" r="2.41"/><circle class="b140f55f-8039-4d22-938a-1a2dddf71934" cx="26.06" cy="36.04" r="2.41"/><circle class="b140f55f-8039-4d22-938a-1a2dddf71934" cx="27.97" cy="29.92" r="2.41"/><path class="b140f55f-8039-4d22-938a-1a2dddf71934" d="M35.43,34.75a6.84,6.84,0,1,0,6.84,6.84A6.84,6.84,0,0,0,35.43,34.75Zm0,10.07a3.23,3.23,0,1,1,3.23-3.23A3.23,3.23,0,0,1,35.43,44.82Z" transform="translate(-17.73 -11.57)"/><path class="b140f55f-8039-4d22-938a-1a2dddf71934" d="M48.46,36.35A14,14,0,1,1,35,27.57a9.26,9.26,0,0,1,.76-3.28l.18-.38-.46,0A17.73,17.73,0,1,0,51.49,34.17,11,11,0,0,1,48.46,36.35Z" transform="translate(-17.73 -11.57)"/><path class="b140f55f-8039-4d22-938a-1a2dddf71934" d="M51.42,25.13c-2.18-4.81-5.26-3.82-6.88-13.56-1.74,9-4.7,8.75-6.88,13.56-2.36,5.48,2.76,10.05,6.88,10.05S53.78,30.61,51.42,25.13ZM44,32.22a1,1,0,0,1-.9.56.92.92,0,0,1-.42-.1,5.06,5.06,0,0,1-2.84-3.57,1,1,0,0,1,2-.34,3.05,3.05,0,0,0,1.73,2.12A1,1,0,0,1,44,32.22Z" transform="translate(-17.73 -11.57)"/></svg>