<svg id="b9b39fef-99c1-47a6-8061-2d10df559bed" data-name="Ebene 1" xmlns="http://www.w3.org/2000/svg" viewBox="0 0 50.82 42.99"><defs><style>.b89fc617-a033-4c0f-8dba-6c2903c3a8fa{fill:#319246;}.e37570b4-7ee5-4105-b569-c3611af539a8{fill:none;stroke:#c31924;stroke-miterlimit:10;stroke-width:0.28px;}</style></defs><path class="b89fc617-a033-4c0f-8dba-6c2903c3a8fa" d="M23.88,22.1V18.93a.85.85,0,0,1,.85-.85h21.4a.85.85,0,0,1,.85.85V22.1h4.73V15.36a1.42,1.42,0,0,0-1.42-1.42H20.58a1.41,1.41,0,0,0-1.42,1.42V22.1Z" transform="translate(-10.02 -13.94)"/><rect class="b89fc617-a033-4c0f-8dba-6c2903c3a8fa" x="36.96" y="10.43" width="3.61" height="3.66"/><rect class="b89fc617-a033-4c0f-8dba-6c2903c3a8fa" x="10.25" y="10.43" width="3.61" height="3.66"/><path class="b89fc617-a033-4c0f-8dba-6c2903c3a8fa" d="M26.15,30.29v.62A1.14,1.14,0,0,0,27.29,32H43.58a1.14,1.14,0,0,0,1.14-1.13V21.48a1.13,1.13,0,0,0-1.14-1.13H27.29a1.13,1.13,0,0,0-1.14,1.13v8.81Z" transform="translate(-10.02 -13.94)"/><path class="e37570b4-7ee5-4105-b569-c3611af539a8" d="M18.56,37.8" transform="translate(-10.02 -13.94)"/><polygon class="b89fc617-a033-4c0f-8dba-6c2903c3a8fa" points="0 26.2 0 27.01 0 28.43 0 42.99 50.82 42.99 50.82 34.82 50.82 34.08 50.82 31.55 50.82 30.03 0 26.2"/><path class="b89fc617-a033-4c0f-8dba-6c2903c3a8fa" d="M50.17,40.53a1.41,1.41,0,0,0,1.52-1.4c0-.55,0-1.05,0-1.08V34.79h0v-4.5H47v3.17a.85.85,0,0,1-.85.85H24.73a.85.85,0,0,1-.85-.85V30.29H19.16v6.63a1.42,1.42,0,0,0,1.31,1.41Z" transform="translate(-10.02 -13.94)"/></svg>