<?xml version="1.0" encoding="UTF-8"?>
<svg id="Ebene_1" data-name="Ebene 1" xmlns="http://www.w3.org/2000/svg" viewBox="0 0 300 299.41">
  <defs>
    <style>
      .cls-1 {
        fill: #FFFFFF;
        stroke-width: 0px;
      }
    </style>
  </defs>
  <g>
    <path class="cls-1" d="m231.48,72.54v48.48c0,2.68-2.17,4.85-4.84,4.85h-4.91c-3.99-11.03-10.36-21.17-18.81-29.63-8.45-8.45-18.59-14.82-29.61-18.8v-4.9c0-2.67,2.17-4.84,4.85-4.84h48.48c2.67,0,4.84,2.17,4.84,4.84Z"/>
    <path class="cls-1" d="m173.31,2v54.17c0,1.1.9,2,2,2h54.17c1.1,0,2-.9,2-2V2c0-1.1-.9-2-2-2h-54.17c-1.1,0-2,.9-2,2Zm44.76,38.84l-3.92,3.92-11.75-11.75-11.75,11.75-3.92-3.92,11.75-11.75-11.75-11.75,3.92-3.92,11.75,11.75,11.75-11.75,3.92,3.92-11.75,11.75,11.75,11.75Z"/>
    <path class="cls-1" d="m241.83,2v54.17c0,1.1.9,2,2,2h54.17c1.1,0,2-.9,2-2V2c0-1.1-.9-2-2-2h-54.17c-1.1,0-2,.9-2,2Zm46.89,39.21h-35.25v-7.27h35.25v7.27Zm0-16.97h-35.25v-7.27s35.25,0,35.25,0v7.27Z"/>
    <path class="cls-1" d="m241.83,69.69v54.17c0,1.1.9,2,2,2h54.17c1.1,0,2-.9,2-2v-54.17c0-1.1-.9-2-2-2h-54.17c-1.1,0-2,.9-2,2Zm29.09,7.85c3.01,0,5.45,2.44,5.45,5.45s-2.44,5.45-5.45,5.45-5.45-2.44-5.45-5.45,2.44-5.45,5.45-5.45Zm0,38.48c-3.01,0-5.45-2.44-5.45-5.45s2.44-5.45,5.45-5.45,5.45,2.44,5.45,5.45-2.44,5.45-5.45,5.45Zm17.8-16.47h-35.25v-5.54h35.25v5.54Z"/>
  </g>
  <g>
    <path class="cls-1" d="m72.65,134.28c10.83-1.39,18.48-11.29,17.09-22.12s-11.29-18.48-22.12-17.09c-10.83,1.39-18.48,11.29-17.09,22.12,1.39,10.83,11.29,18.48,22.12,17.09Z"/>
    <path class="cls-1" d="m63.5,186.06c10.83-1.39,18.48-11.29,17.09-22.12-1.39-10.83-11.29-18.48-22.12-17.09-10.83,1.39-18.48,11.29-17.09,22.12,1.39,10.83,11.29,18.48,22.12,17.09Z"/>
    <path class="cls-1" d="m86.52,233.39c10.83-1.39,18.48-11.29,17.09-22.12-1.39-10.83-11.29-18.48-22.12-17.09-10.83,1.39-18.48,11.29-17.09,22.12,1.39,10.83,11.29,18.48,22.12,17.09Z"/>
    <path class="cls-1" d="m133.01,258.02c10.83-1.39,18.48-11.29,17.09-22.12-1.39-10.83-11.29-18.48-22.12-17.09-10.83,1.39-18.48,11.29-17.09,22.12,1.39,10.83,11.29,18.48,22.12,17.09Z"/>
    <path class="cls-1" d="m185.09,250.77c10.83-1.39,18.48-11.29,17.09-22.12-1.39-10.83-11.29-18.48-22.12-17.09-10.83,1.39-18.48,11.29-17.09,22.12,1.39,10.83,11.29,18.48,22.12,17.09Z"/>
    <path class="cls-1" d="m145.98,97.07c-11.1,0-21.94,3.29-31.17,9.46-9.23,6.17-16.42,14.93-20.66,25.18-4.25,10.25-5.36,21.53-3.19,32.42,2.16,10.88,7.51,20.88,15.36,28.73,7.85,7.85,17.84,13.19,28.73,15.36,10.88,2.16,22.16,1.05,32.42-3.19,10.25-4.25,19.02-11.44,25.18-20.66,6.17-9.23,9.46-20.07,9.46-31.17,0-14.88-5.91-29.15-16.43-39.67-10.52-10.52-24.79-16.43-39.67-16.43Zm0,82.6c-5.24,0-10.36-1.55-14.72-4.47-4.36-2.91-7.75-7.05-9.76-11.89-2.01-4.84-2.53-10.17-1.51-15.31,1.02-5.14,3.55-9.86,7.25-13.57,3.71-3.71,8.43-6.23,13.57-7.25,5.14-1.02,10.47-.5,15.31,1.51,4.84,2,8.98,5.4,11.89,9.76,2.91,4.36,4.47,9.48,4.47,14.72,0,7.03-2.79,13.77-7.76,18.73-4.97,4.97-11.71,7.76-18.73,7.76Z"/>
    <path class="cls-1" d="m260.11,153.21c0,.13,0,.25,0,.38,0,63.03-51.28,114.31-114.3,114.31S31.51,216.62,31.51,153.59s51.28-114.31,114.31-114.31c.13,0,.25,0,.38,0V7.79c-.13,0-.25,0-.38,0C65.28,7.78,0,73.06,0,153.59s65.28,145.82,145.82,145.82,145.82-65.28,145.82-145.82c0-.13,0-.25,0-.38h-31.51Z"/>
    <path class="cls-1" d="m111.76,93.77c10.83-1.39,18.48-11.29,17.09-22.12-1.39-10.83-11.29-18.48-22.12-17.09-10.83,1.39-18.48,11.29-17.09,22.12,1.39,10.83,11.29,18.48,22.12,17.09Z"/>
    <path class="cls-1" d="m220.03,211.79c10.83-1.39,18.48-11.29,17.09-22.12-1.39-10.83-11.29-18.48-22.12-17.09-10.83,1.39-18.48,11.29-17.09,22.12,1.39,10.83,11.29,18.48,22.12,17.09Z"/>
  </g>
</svg>