<svg viewBox="0 0 106 60" width="106" height="60" xmlns="http://www.w3.org/2000/svg">
  <defs>
    <style>
      .fill-primary {
        fill: #00893d;
      }
    </style>
  </defs>
  <g>
   <circle class="fill-primary" r="2.41" cy="31.15508" cx="54.33044"/>
   <circle class="fill-primary" r="2.41" cy="34.98508" cx="49.19044"/>
   <circle class="fill-primary" r="2.41" cy="41.10508" cx="47.28044"/>
   <circle class="fill-primary" r="2.41" cy="47.17508" cx="49.33044"/>
   <circle class="fill-primary" r="2.41" cy="50.88508" cx="54.56044"/>
   <circle class="fill-primary" r="2.41" cy="50.80508" cx="60.97044"/>
   <circle class="fill-primary" r="2.41" cy="46.97508" cx="66.11044"/>
   <circle class="fill-primary" r="2.41" cy="40.85508" cx="68.02044"/>
   <path class="fill-primary" d="m57.76044,34.12508a6.84,6.84 0 1 0 6.83,6.84a6.84,6.84 0 0 0 -6.83,-6.84zm0,10.07a3.23,3.23 0 1 1 3.23,-3.23a3.23,3.23 0 0 1 -3.23,3.23z"/>
   <path class="fill-primary" d="m70.79044,35.71508a14.05,14.05 0 1 1 -13.52,-8.77a9.28,9.28 0 0 1 0.77,-3.28l0.18,-0.38l-0.46,0a17.75,17.75 0 1 0 16,10.28a10.55,10.55 0 0 1 -2.97,2.15z"/>
   <path class="fill-primary" d="m73.74044,24.50508c-2.15,-4.81 -5.25,-3.82 -6.87,-13.56c-1.74,9 -4.7,8.75 -6.88,13.56c-2.36,5.48 2.76,10 6.88,10s9.24,-4.52 6.87,-10zm-7.37,7.08a1,1 0 0 1 -0.9,0.57a0.9,0.9 0 0 1 -0.42,-0.1a5,5 0 0 1 -2.84,-3.57a1,1 0 0 1 2,-0.34a3.05,3.05 0 0 0 1.73,2.12a1,1 0 0 1 0.43,1.32z"/>
   <rect class="fill-primary" height="2.63" width="2.63" y="10.57508" x="35.01044"/>
   <rect class="fill-primary" height="2.63" width="2.63" y="10.57508" x="39.70044"/>
   <rect class="fill-primary" height="2.63" width="2.63" y="10.57508" x="44.38044"/>
   <rect class="fill-primary" height="2.63" width="2.63" y="14.87508" x="35.01044"/>
   <rect class="fill-primary" height="2.63" width="2.63" y="14.87508" x="39.70044"/>
   <rect class="fill-primary" height="2.63" width="2.63" y="14.87508" x="44.38044"/>
   <rect class="fill-primary" height="2.63" width="2.63" y="19.18508" x="35.01044"/>
   <rect class="fill-primary" height="2.63" width="2.63" y="19.18508" x="39.70044"/>
   <rect class="fill-primary" height="2.63" width="2.63" y="19.18508" x="44.38044"/>
   <rect class="fill-primary" height="3.3" width="12.01" y="5.40508" x="35.01044"/>
   <path class="fill-primary" d="m44.59044,25.32508l-12,0l0,-22.12l17,0l0,19c0.65,-0.28 1.31,-0.54 2,-0.76l0,-20.23l-21,0l0,26.11l12,0a19.89,19.89 0 0 1 2,-2z"/>
  </g>
</svg>
