<svg width="48" height="96" viewBox="0 0 48 96" fill="none" xmlns="http://www.w3.org/2000/svg">
<g clip-path="url(#clip0_14_5913)">
<path d="M2.34006 6.15999L2.31006 12H3.82006L3.82006 84H2.31006L2.31006 89.88C2.32584 90.7685 2.69197 91.6149 3.32875 92.2348C3.96553 92.8547 4.8214 93.198 5.71006 93.19H42.2901C43.1804 93.19 44.0345 92.8377 44.666 92.21C45.2974 91.5823 45.6548 90.7303 45.6601 89.84V83.96H44.1801L44.1801 12H45.6901V6.11999C45.6848 5.22968 45.3274 4.37763 44.696 3.74995C44.0645 3.12228 43.2104 2.76997 42.3201 2.76998H5.71006C5.26582 2.76997 4.82596 2.8578 4.41578 3.02841C4.0056 3.19902 3.63321 3.44904 3.32001 3.7641C3.00681 4.07915 2.759 4.45302 2.59082 4.8642C2.42264 5.27538 2.33742 5.71575 2.34006 6.15999V6.15999ZM41.8501 84H6.15006L6.15006 12H41.8501L41.8501 84Z" fill="white"/>
<path d="M8.51001 14.57L8.51001 81.41H39.48V14.57H8.51001Z" fill="white"/>
</g>
<defs>
<clipPath id="clip0_14_5913">
<rect width="96" height="48" fill="white" transform="translate(0 96) rotate(-90)"/>
</clipPath>
</defs>
</svg>
