<?xml version="1.0" encoding="UTF-8"?>
<svg width="88px" height="22px" viewBox="0 0 88 22" version="1.1" xmlns="http://www.w3.org/2000/svg" xmlns:xlink="http://www.w3.org/1999/xlink">
    <title>B7464246-003A-45AE-BFDB-CAED421760B5</title>
    <g id="Behaviour" stroke="none" stroke-width="1" fill="none" fill-rule="evenodd">
        <g id="Logo" transform="translate(-100.000000, -240.000000)" fill="#646464">
            <g id="form/logo/navigation/medias" transform="translate(100.000000, 240.000000)">
                <path d="M66.4284211,6.15710526 C68.8744737,6.15710526 70.5534211,7.06605263 71.1207895,8.68710526 C71.3205263,9.28631579 71.4102632,9.74078947 71.3784211,11.2923684 L71.2915789,16.1844737 C71.2626316,17.7765789 71.3784211,18.4597368 72.6578947,19.4265789 L70.6431579,21.7857895 C69.7808968,21.4470675 69.0592786,20.8254755 68.5965789,20.0228947 C68.3288315,20.3021871 68.0383604,20.55877 67.7281579,20.79 C66.9297415,21.3044125 66.0033955,21.5809246 65.0571603,21.5901774 L64.7986842,21.5860526 C61.5565789,21.5860526 59.7936842,19.9360526 59.7936842,17.0355263 C59.7936842,13.6226316 62.1557895,12.0305263 66.7902632,12.0305263 C67.0797368,12.0305263 67.3315789,12.0305263 67.6442105,12.0594737 L67.6442105,11.4747368 C67.6442105,9.85368421 67.3315789,9.31526316 65.9363158,9.31526316 C64.7147368,9.31526316 63.2934211,9.91157895 61.7273684,10.9623684 L60.0860526,8.21815789 C60.8336879,7.74637536 61.624642,7.34702105 62.4481579,7.02552632 C63.6995559,6.46080885 65.0555259,6.16496086 66.4284211,6.15710526 Z M80.795,6.09631579 C83.1281579,6.09631579 84.6652632,6.80842105 86.0055263,7.46263158 L84.755,10.0215789 C83.3076316,9.28342105 82.2510526,8.97078947 81.1713158,8.97078947 C80.0915789,8.97078947 79.3215789,9.54973684 79.3215789,10.3921053 C79.3215789,11.1302632 79.8078947,11.5297368 81.1423684,11.8713158 L82.9052632,12.3257895 C84.6971053,12.7802632 85.2963158,13.3215789 85.8,13.9757895 C86.3430156,14.6842047 86.6242683,15.5586449 86.5960526,16.4507895 C86.5989474,19.4526316 84.095,21.5021053 80.3694737,21.5021053 C78.5776316,21.5021053 76.6063158,20.9231579 74.4815789,19.8231579 L75.8478947,17.0355263 C77.0057895,17.7476316 79.0321053,18.6855263 80.6821053,18.6855263 C81.7618421,18.6855263 82.6157895,17.9734211 82.6157895,17.0355263 C82.6157895,16.0397368 81.9065789,15.5273684 80.3694737,15.2436842 L78.6615789,14.9310526 C77.6416286,14.7201742 76.7098462,14.204312 75.9897368,13.4518421 C75.4457347,12.6927237 75.1568517,11.7804617 75.1647368,10.8465789 C75.1647368,8.00394737 77.4110526,6.09631579 80.795,6.09631579 Z M28.545,6.18026316 C30.2239474,6.18026316 31.8160526,6.75921053 32.7539474,7.71447368 C34.0913158,9.08078947 34.6876316,11.0434211 34.6876316,14.0828947 L34.6876316,14.9484211 L26.2784211,14.9484211 L26.2784211,15.0613158 C26.2784211,17.3076316 27.3871053,18.5871053 29.3497368,18.5871053 C30.6581579,18.5871053 31.8826316,18.1036842 33.0492105,17.1397368 L34.5284211,19.415 C32.9999784,20.7325209 31.0463105,21.4522933 29.0284211,21.4414395 C24.8484211,21.4414395 22.1476316,18.4828947 22.1476316,13.915 C22.1476316,11.3097368 22.6860526,9.57289474 23.9655263,8.14289474 C25.1610526,6.80552632 26.6113158,6.18026316 28.545,6.18026316 Z M45.4821053,-2.13162821e-14 L49.2655263,0.596315789 L49.2655263,15.7271053 C49.2655263,19.3107895 49.555,20.4773684 49.8039474,21.0447368 L46.3852632,21.0447368 C46.2615579,20.7761698 46.1851719,20.4882531 46.1594737,20.1936842 C45.2327632,21.0072111 44.0343967,21.4431686 42.8015789,21.4152632 C39.105,21.4152632 36.7718421,18.5436842 36.7718421,14.0192105 C36.7718421,9.49473684 39.3047368,6.34236842 43.0071053,6.34236842 C43.9405304,6.29986228 44.8583981,6.5924711 45.595,7.16736842 C45.5128985,6.44958955 45.4751952,5.72742606 45.4821053,5.005 L45.4821053,-2.13162821e-14 Z M15.1684211,6.22657895 C16.3060526,6.22657895 17.3886842,6.56815789 18.0428947,7.13842105 C18.865,7.84763158 19.1226316,8.70157895 19.1226316,10.6931579 L19.1226316,21.0447368 L15.4173684,21.0447368 L15.4173684,11.4313158 C15.4173684,9.69447368 15.2176316,9.35578947 14.2218421,9.35578947 C13.5097368,9.35578947 12.5168421,9.83921053 11.6918421,10.5802632 L11.6918421,21.0447368 L8.07921053,21.0447368 L8.07921053,11.5760526 C8.07921053,9.75526316 7.82157895,9.32684211 6.77078947,9.32684211 C5.83205255,9.39403522 4.94632707,9.78723589 4.26684211,10.4384211 L4.26684211,21.0447368 L0.541315789,21.0447368 L0.541315789,10.8957895 C0.541315789,8.79131579 0.399473684,7.87947368 4.51194637e-13,7.17026316 L3.44184211,6.22947368 C3.71699052,6.68102567 3.89173625,7.18650485 3.95421053,7.71157895 C4.89520966,6.76532577 6.17445344,6.23300202 7.50894737,6.23236842 C8.61862028,6.19468462 9.69274578,6.62664702 10.4673684,7.42210526 C10.6829909,7.64013398 10.8768869,7.8786261 11.0463158,8.13421053 C12.3807895,6.76789474 13.5763158,6.22657895 15.1684211,6.22657895 Z M56.9018421,6.14263158 L56.9018421,21.0447368 L53.0952632,21.0447368 L53.0952632,6.73894737 L56.9018421,6.14263158 Z M67.5718421,14.6734211 L67.4010526,14.6734211 C64.7581579,14.6734211 63.8463158,15.1597368 63.8463158,16.8936842 C63.8463158,18.0313158 64.5584211,18.7984211 65.5252632,18.7984211 C66.2991746,18.7596362 67.0214674,18.3984899 67.5168421,17.8026316 L67.5718421,14.6734211 Z M43.4557895,9.39631579 C41.7507895,9.39631579 41.0097368,10.8176316 41.0097368,14.0597368 C41.0097368,17.1889474 41.6639474,18.2136842 43.6555263,18.2136842 C44.3828315,18.1616019 45.0587145,17.8194883 45.5313158,17.2642105 L45.5313158,10.3342105 C44.8221053,9.70894737 44.1389474,9.39631579 43.4557895,9.39631579 Z M28.6115789,8.94763158 C27.1642105,8.94763158 26.3363158,10.0852632 26.3363158,12.1028947 L26.3363158,12.1607895 L30.745,12.1607895 L30.745,11.99 C30.745,10.9102632 30.6292105,10.34 30.2905263,9.79868421 C29.9278493,9.23016523 29.2845205,8.90406411 28.6115789,8.94763158 Z M55.0578947,0.112878313 C55.6801899,0.112770265 56.2763493,0.363102084 56.7120003,0.80746616 C57.1476514,1.25183024 57.3861301,1.85282931 57.3736842,2.475 C57.3752467,3.10318988 57.1255965,3.70593236 56.6803117,4.14904234 C56.235027,4.59215232 55.6310694,4.83884857 55.0028947,4.83421053 C53.708129,4.824652 52.6649178,3.76979206 52.6697202,2.475 C52.6792958,1.16424703 53.7471158,0.108075985 55.0578947,0.112878313 Z" id="Medias"></path>
            </g>
        </g>
    </g>
</svg>
