<!-- Generated by IcoMoon.io -->
<svg version="1.1" xmlns="http://www.w3.org/2000/svg" width="24" height="24" viewBox="0 0 24 24">
<title>bearing</title>
<path fill="#646464" d="M12 2c-5.5 0-10 4.5-10 10s4.5 10 10 10 10-4.5 10-10-4.5-10-10-10zM12 20c-4.4 0-8-3.6-8-8s3.6-8 8-8 8 3.6 8 8-3.6 8-8 8z"></path>
<path fill="#646464" d="M8.8 12c0 1.8 1.4 3.2 3.2 3.2s3.2-1.4 3.2-3.2-1.4-3.2-3.2-3.2-3.2 1.4-3.2 3.2zM14.3 12c0 1.3-1 2.3-2.3 2.3s-2.3-1-2.3-2.3 1-2.3 2.3-2.3 2.3 1 2.3 2.3z"></path>
<path fill="#646464" d="M12.9 6.5c0 0.497-0.403 0.9-0.9 0.9s-0.9-0.403-0.9-0.9c0-0.497 0.403-0.9 0.9-0.9s0.9 0.403 0.9 0.9z"></path>
<path fill="#646464" d="M9.7 8c0.4-0.2 0.6-0.8 0.3-1.2-0.2-0.4-0.8-0.6-1.2-0.3-0.4 0.2-0.5 0.8-0.3 1.2v0c0.2 0.4 0.8 0.5 1.2 0.3z"></path>
<path fill="#646464" d="M7.7 8.5c-0.4-0.2-1-0.1-1.2 0.3s-0.1 1 0.3 1.2 1 0.1 1.2-0.3v0c0.2-0.4 0.1-1-0.3-1.2z"></path>
<path fill="#646464" d="M7.4 12c0 0.497-0.403 0.9-0.9 0.9s-0.9-0.403-0.9-0.9c0-0.497 0.403-0.9 0.9-0.9s0.9 0.403 0.9 0.9z"></path>
<path fill="#646464" d="M6.8 14c-0.4 0.2-0.6 0.8-0.3 1.2 0.2 0.4 0.8 0.6 1.2 0.3 0.4-0.2 0.6-0.8 0.3-1.2v0c-0.2-0.4-0.8-0.6-1.2-0.3z"></path>
<path fill="#646464" d="M9.7 16c-0.4-0.2-1-0.1-1.2 0.3s-0.1 1 0.3 1.2c0.4 0.2 1 0.1 1.2-0.3v0c0.3-0.4 0.1-1-0.3-1.2z"></path>
<path fill="#646464" d="M12.9 17.5c0 0.497-0.403 0.9-0.9 0.9s-0.9-0.403-0.9-0.9c0-0.497 0.403-0.9 0.9-0.9s0.9 0.403 0.9 0.9z"></path>
<path fill="#646464" d="M14.3 16c-0.4 0.2-0.6 0.8-0.3 1.2 0.2 0.4 0.8 0.6 1.2 0.3 0.4-0.2 0.6-0.8 0.3-1.2v0c-0.2-0.4-0.8-0.5-1.2-0.3z"></path>
<path fill="#646464" d="M17.2 14c-0.4-0.2-1-0.1-1.2 0.3s-0.1 1 0.3 1.2 1 0.1 1.2-0.3v0c0.3-0.4 0.1-1-0.3-1.2z"></path>
<path fill="#646464" d="M18.4 12c0 0.497-0.403 0.9-0.9 0.9s-0.9-0.403-0.9-0.9c0-0.497 0.403-0.9 0.9-0.9s0.9 0.403 0.9 0.9z"></path>
<path fill="#646464" d="M17.2 10c0.4-0.2 0.6-0.8 0.3-1.2-0.2-0.4-0.8-0.6-1.2-0.3-0.4 0.2-0.6 0.8-0.3 1.2v0c0.2 0.4 0.8 0.6 1.2 0.3z"></path>
<path fill="#646464" d="M15.2 6.5c-0.4-0.2-1-0.1-1.2 0.3s-0.1 1 0.3 1.2c0.4 0.2 1 0.1 1.2-0.3v0c0.2-0.4 0.1-1-0.3-1.2z"></path>
</svg>
