<!-- Generated by IcoMoon.io -->
<svg version="1.1" xmlns="http://www.w3.org/2000/svg" width="24" height="24" viewBox="0 0 24 24">
<title>load</title>
<path fill="#646464" d="M20.7 19.8l-2.5-10c-0.1-0.4-0.5-0.8-1-0.8h-10.4c-0.5 0-0.9 0.3-1 0.8l-2.5 10c-0.1 0.5 0.2 1 0.7 1.2 0.1 0 0.2 0 0.3 0h15.4c0.6 0 1-0.4 1-1 0-0.1 0-0.2 0-0.2zM11.8 18h-1.8l-1.8-2.3v2.3h-1.4v-6h1.5v2.3l1.7-2.3h1.8l-2.3 3 2.3 3zM17.3 13.5h-3.5v3h2v-1.5h1.5v2c0 0.6-0.4 1-1 1h-3c-0.6 0-1-0.4-1-1v-4c0-0.6 0.4-1 1-1h3c0.6 0 1 0.4 1 1v0.5z"></path>
<path fill="#646464" d="M12 6c1.1 0 2 0.9 2 2h2c0-2.2-1.8-4-4-4s-4 1.8-4 4h2c0-1.1 0.9-2 2-2z"></path>
</svg>
