<svg version="1.1" xmlns="http://www.w3.org/2000/svg">
<defs>
    <svg version="1.1" xmlns="http://www.w3.org/2000/svg" width="24" height="24" viewBox="0 0 24 24" id="icon-vibration">
        <title>vibration</title>
        <path d="M9.1 20l-3.5-8.2-1.2 1.2h-2.4v-2h1.6l2.8-2.6 2.5 5.8 3.2-10.3 3.5 8.8 2.4-4.8 1.6 3.1h2.4v2h-3.6l-0.4-0.7-2.6 5.2-3.1-7.6z"></path>
    </svg>
    <svg version="1.1" xmlns="http://www.w3.org/2000/svg" width="24" height="24" viewBox="0 0 24 24" id="icon-load">
        <title>load</title>
        <path d="M20.7 19.8l-2.5-10c-0.1-0.4-0.5-0.8-1-0.8h-10.4c-0.5 0-0.9 0.3-1 0.8l-2.5 10c-0.1 0.5 0.2 1 0.7 1.2 0.1 0 0.2 0 0.3 0h15.4c0.6 0 1-0.4 1-1 0-0.1 0-0.2 0-0.2zM11.8 18h-1.8l-1.8-2.3v2.3h-1.4v-6h1.5v2.3l1.7-2.3h1.8l-2.3 3 2.3 3zM17.3 13.5h-3.5v3h2v-1.5h1.5v2c0 0.6-0.4 1-1 1h-3c-0.6 0-1-0.4-1-1v-4c0-0.6 0.4-1 1-1h3c0.6 0 1 0.4 1 1v0.5z"></path>
        <path d="M12 6c1.1 0 2 0.9 2 2h2c0-2.2-1.8-4-4-4s-4 1.8-4 4h2c0-1.1 0.9-2 2-2z"></path>
    </svg>
    <svg version="1.1" xmlns="http://www.w3.org/2000/svg" width="24" height="24" viewBox="0 0 24 24" id="icon-bearing">
        <title>bearing</title>
        <path d="M12 2c-5.5 0-10 4.5-10 10s4.5 10 10 10 10-4.5 10-10-4.5-10-10-10zM12 20c-4.4 0-8-3.6-8-8s3.6-8 8-8 8 3.6 8 8-3.6 8-8 8z"></path>
        <path d="M8.8 12c0 1.8 1.4 3.2 3.2 3.2s3.2-1.4 3.2-3.2-1.4-3.2-3.2-3.2-3.2 1.4-3.2 3.2zM14.3 12c0 1.3-1 2.3-2.3 2.3s-2.3-1-2.3-2.3 1-2.3 2.3-2.3 2.3 1 2.3 2.3z"></path>
        <path d="M12.9 6.5c0 0.497-0.403 0.9-0.9 0.9s-0.9-0.403-0.9-0.9c0-0.497 0.403-0.9 0.9-0.9s0.9 0.403 0.9 0.9z"></path>
        <path d="M9.7 8c0.4-0.2 0.6-0.8 0.3-1.2-0.2-0.4-0.8-0.6-1.2-0.3-0.4 0.2-0.5 0.8-0.3 1.2v0c0.2 0.4 0.8 0.5 1.2 0.3z"></path>
        <path d="M7.7 8.5c-0.4-0.2-1-0.1-1.2 0.3s-0.1 1 0.3 1.2 1 0.1 1.2-0.3v0c0.2-0.4 0.1-1-0.3-1.2z"></path>
        <path d="M7.4 12c0 0.497-0.403 0.9-0.9 0.9s-0.9-0.403-0.9-0.9c0-0.497 0.403-0.9 0.9-0.9s0.9 0.403 0.9 0.9z"></path>
        <path d="M6.8 14c-0.4 0.2-0.6 0.8-0.3 1.2 0.2 0.4 0.8 0.6 1.2 0.3 0.4-0.2 0.6-0.8 0.3-1.2v0c-0.2-0.4-0.8-0.6-1.2-0.3z"></path>
        <path d="M9.7 16c-0.4-0.2-1-0.1-1.2 0.3s-0.1 1 0.3 1.2c0.4 0.2 1 0.1 1.2-0.3v0c0.3-0.4 0.1-1-0.3-1.2z"></path>
        <path d="M12.9 17.5c0 0.497-0.403 0.9-0.9 0.9s-0.9-0.403-0.9-0.9c0-0.497 0.403-0.9 0.9-0.9s0.9 0.403 0.9 0.9z"></path>
        <path d="M14.3 16c-0.4 0.2-0.6 0.8-0.3 1.2 0.2 0.4 0.8 0.6 1.2 0.3 0.4-0.2 0.6-0.8 0.3-1.2v0c-0.2-0.4-0.8-0.5-1.2-0.3z"></path>
        <path d="M17.2 14c-0.4-0.2-1-0.1-1.2 0.3s-0.1 1 0.3 1.2 1 0.1 1.2-0.3v0c0.3-0.4 0.1-1-0.3-1.2z"></path>
        <path d="M18.4 12c0 0.497-0.403 0.9-0.9 0.9s-0.9-0.403-0.9-0.9c0-0.497 0.403-0.9 0.9-0.9s0.9 0.403 0.9 0.9z"></path>
        <path d="M17.2 10c0.4-0.2 0.6-0.8 0.3-1.2-0.2-0.4-0.8-0.6-1.2-0.3-0.4 0.2-0.6 0.8-0.3 1.2v0c0.2 0.4 0.8 0.6 1.2 0.3z"></path>
        <path d="M15.2 6.5c-0.4-0.2-1-0.1-1.2 0.3s-0.1 1 0.3 1.2c0.4 0.2 1 0.1 1.2-0.3v0c0.2-0.4 0.1-1-0.3-1.2z"></path>
    </svg>
    </defs>
</svg>
