<svg id="b6f6f56c-420a-4594-ad52-2c763d583cbd" data-name="Ebene 1" xmlns="http://www.w3.org/2000/svg" viewBox="0 0 54.06 52.64"><path d="M20.75,35.43H9.38A27.82,27.82,0,0,0,35.7,61.75V50.38A16.47,16.47,0,0,1,20.75,35.43Z" transform="translate(-9.38 -9.11)"/><path d="M16.5,32.59A20.69,20.69,0,0,1,35.7,13.4V10.54A23.53,23.53,0,0,0,13.65,32.59Z" transform="translate(-9.38 -9.11)"/><path d="M56.32,32.59H62A25,25,0,0,0,38.54,9.11v5.7A19.28,19.28,0,0,1,56.32,32.59Z" transform="translate(-9.38 -9.11)"/><path d="M54.91,35.43A17.87,17.87,0,0,1,38.54,51.79v8.54a26.38,26.38,0,0,0,24.9-24.9Z" transform="translate(-9.38 -9.11)"/></svg>