<svg id="a3bb6486-eedd-49c3-ba5c-d525fe4bac77" data-name="Ebene 1" xmlns="http://www.w3.org/2000/svg" viewBox="0 0 56.47 50.31"><path d="M60.7,10.63H10.17a3,3,0,0,0-3,3V44.28a3,3,0,0,0,3,3H31.89v8h-10v5.67H49V55.27H39v-8H60.7a3,3,0,0,0,3-3V13.6A3,3,0,0,0,60.7,10.63ZM59.41,43h-48V14.89h48Z" transform="translate(-7.2 -10.63)"/><path d="M53.49,34.82c-9.87,0-14.76-.94-19.46-6.81l-.1-.15c-3.68-6.6-8.4-8.53-16.29-6.68L17.12,19c8.81-2.07,14.59.3,18.74,7.69,3.82,4.73,7.31,5.88,17.63,5.88Z" transform="translate(-7.2 -10.63)"/><path d="M51.83,39.85c-.72,0-1.44-.05-2.15-.09l.12-2.26,2.1.09Zm-4.3-.22-2.15-.19.22-2.26,2.1.19Zm-4.3-.42-2.14-.29.33-2.24c.68.1,1.38.19,2.08.27ZM39,38.59q-1.08-.18-2.13-.39L37.26,36l2.07.37Zm-4.24-.82c-.72-.15-1.42-.32-2.11-.49l.54-2.2c.67.16,1.35.32,2.05.47Zm-4.2-1c-.71-.2-1.41-.4-2.08-.61L29.1,34c.66.21,1.33.4,2,.59Zm-4.15-1.28q-1.07-.37-2-.75l.82-2.12c.63.25,1.29.49,2,.72Zm-4.06-1.6c-.7-.31-1.37-.63-2-1l1.05-2c.58.3,1.2.6,1.86.89Zm-3.92-2.07a16.31,16.31,0,0,1-1.84-1.38l1.5-1.7a12.81,12.81,0,0,0,1.57,1.17Z" transform="translate(-7.2 -10.63)"/></svg>