<?xml version="1.0" encoding="UTF-8"?>
<svg id="Icon" xmlns="http://www.w3.org/2000/svg" viewBox="0 0 1025.94 1025.94">

  <g>
    <g>
      <path class="cls-1" d="m583.06,495.86l-1.42-.3,4.16-19.56,1.35.29-4.09,19.58Zm-21.2-4.79c-9.67-2.34-19.41-4.93-28.93-7.67-10.87-3.13-20.59-5.95-29.44-8.71l5.94-19.1c8.67,2.7,18.28,5.48,29.04,8.59,9.25,2.67,18.7,5.17,28.1,7.45l-4.71,19.44Zm-77.78-22.87c-21.58-7.87-37.34-16.49-52.69-28.81-.82-.66-1.62-1.31-2.4-1.97l12.85-15.32c.68.57,1.37,1.14,2.07,1.7,13.54,10.87,27.6,18.53,47.01,25.61l-6.85,18.79Zm-70.44-45.71c-9.36-10.48-17.32-22.12-26.55-35.6l-2.81-4.11c-2.37-3.45-4.63-6.85-6.72-10.12l16.84-10.79c1.98,3.09,4.12,6.31,6.37,9.59l2.83,4.12c9.2,13.44,16.47,24.06,24.97,33.58l-14.92,13.32Zm-46.64-67.58c-2.38-4.34-4.35-8.17-6.25-11.87-4.34-8.43-8.08-15.71-14.77-24.92-2.98-4.1-6.2-8.11-9.57-11.93l14.98-13.26c3.8,4.29,7.43,8.81,10.78,13.43,7.59,10.45,11.85,18.74,16.37,27.52,1.84,3.58,3.75,7.29,6,11.39l-17.53,9.62Zm-43.88-62.1c-13.33-12.01-29.31-22.64-47.5-31.6l8.83-17.94c19.85,9.77,37.36,21.44,52.06,34.68l-13.39,14.86Z"/>
      <polygon class="cls-1" points="571.56 512.73 626.08 493.42 582.1 455.86 571.56 512.73"/>
    </g>
    <path class="cls-2" d="m480.27,550.48c-.29-.17-29.85-17.71-59.38-38.93-43.34-31.14-53.7-46.34-56.17-51.59,102-49.1,382.75-56.25,385.58-56.31l-.7-29.99c-.73.02-73.67,1.8-158.48,9.93-12.42,1.19-24.42,2.45-36.04,3.78-9.29-4.52-26.35-13.16-43.71-23.72-35.27-21.45-49.55-37.43-51.17-45.24-.23-1.11-.28-1.7.99-3.11,2.77-3.05,23.09-18.96,151.94-32.34,69.35-7.2,135.67-10.06,136.33-10.09l-1.27-29.97c-.67.03-67.78,2.92-138.03,10.21-41.49,4.31-76.03,9.29-102.66,14.82-37.36,7.75-58.5,16.15-68.54,27.23-7.46,8.23-10.35,18.64-8.14,29.32,2.4,11.63,10.63,23.53,25.17,36.38,10.14,8.97,23.53,18.53,39.79,28.42,2.69,1.64,5.36,3.22,8.01,4.76-69.64,10.31-121.24,23.63-153.92,39.79-13.31,6.58-15.66,17.28-15.88,23.07-.49,13.06,6.75,33.69,67.57,77.7,7.87,5.69,15.71,11.11,23.07,16.05h-141.39v30h465.59v-30h-268.65l.1-.16Z"/>
    <g>
      <path class="cls-2" d="m418.66,666.31c-5.5,0-10.4,1.09-14.69,3.26-4.29,2.18-7.91,5.28-10.85,9.31-2.95,4.03-5.15,8.93-6.62,14.69-1.47,5.76-2.21,12.22-2.21,19.39,0,9.73,1.18,18.02,3.55,24.86,2.37,6.85,6.11,12.07,11.23,15.65,5.12,3.58,11.65,5.38,19.58,5.38,5.63,0,11.23-.64,16.8-1.92,5.57-1.28,11.62-3.07,18.14-5.38v24.38c-6.02,2.43-11.97,4.22-17.86,5.38-5.89,1.15-12.48,1.73-19.78,1.73-14.08,0-25.7-2.91-34.85-8.74-9.15-5.82-15.91-14.02-20.26-24.58-4.35-10.56-6.53-22.88-6.53-36.96,0-10.37,1.41-19.87,4.22-28.51,2.81-8.64,6.94-16.09,12.38-22.37,5.44-6.27,12.16-11.14,20.16-14.59,8-3.46,17.18-5.18,27.55-5.18,6.78,0,13.6.86,20.45,2.59,6.85,1.73,13.41,4.07,19.68,7.01l-9.41,23.62c-5.12-2.43-10.27-4.54-15.46-6.34-5.18-1.79-10.27-2.69-15.26-2.69Z"/>
      <path class="cls-2" d="m537.12,666.31c-5.5,0-10.4,1.09-14.69,3.26-4.29,2.18-7.91,5.28-10.85,9.31-2.95,4.03-5.15,8.93-6.62,14.69-1.47,5.76-2.21,12.22-2.21,19.39,0,9.73,1.18,18.02,3.55,24.86,2.37,6.85,6.11,12.07,11.23,15.65,5.12,3.58,11.65,5.38,19.58,5.38,5.63,0,11.23-.64,16.8-1.92,5.57-1.28,11.62-3.07,18.14-5.38v24.38c-6.02,2.43-11.97,4.22-17.86,5.38-5.89,1.15-12.48,1.73-19.78,1.73-14.08,0-25.7-2.91-34.85-8.74-9.15-5.82-15.91-14.02-20.26-24.58-4.35-10.56-6.53-22.88-6.53-36.96,0-10.37,1.41-19.87,4.22-28.51,2.81-8.64,6.94-16.09,12.38-22.37,5.44-6.27,12.16-11.14,20.16-14.59,8-3.46,17.18-5.18,27.55-5.18,6.78,0,13.6.86,20.45,2.59,6.85,1.73,13.41,4.07,19.68,7.01l-9.41,23.62c-5.12-2.43-10.27-4.54-15.46-6.34-5.18-1.79-10.27-2.69-15.26-2.69Z"/>
      <path class="cls-2" d="m648.05,781.12h-28.99v-112.9h-37.25v-24.19h103.49v24.19h-37.25v112.9Z"/>
    </g>
  </g>
  <path class="cls-2" d="m737.97,194.97c24.7,0,48.01,9.71,65.65,27.35,17.64,17.64,27.35,40.95,27.35,65.65v450c0,24.7-9.71,48.01-27.35,65.65-17.64,17.64-40.95,27.35-65.65,27.35h-450c-24.7,0-48.01-9.71-65.65-27.35-17.64-17.64-27.35-40.95-27.35-65.65v-450c0-24.7,9.71-48.01,27.35-65.65,17.64-17.64,40.95-27.35,65.65-27.35h450m0-37h-450c-71.5,0-130,58.5-130,130v450c0,71.5,58.5,130,130,130h450c71.5,0,130-58.5,130-130v-450c0-71.5-58.5-130-130-130h0Z"/>
</svg>