<svg id="aeb7a17f-972b-4b1f-ab7d-133e3b36ee21" data-name="Ebene 1" xmlns="http://www.w3.org/2000/svg" viewBox="0 0 44.92 57.45"><circle cx="23.79" cy="29.94" r="2.41"/><circle cx="18.65" cy="33.77" r="2.41"/><circle cx="16.74" cy="39.89" r="2.41"/><circle cx="18.79" cy="45.96" r="2.41"/><circle cx="24.02" cy="49.67" r="2.41"/><circle cx="30.43" cy="49.59" r="2.41"/><circle cx="35.57" cy="45.76" r="2.41"/><circle cx="37.48" cy="39.64" r="2.41"/><path d="M39.17,39.8A6.84,6.84,0,1,0,46,46.64,6.84,6.84,0,0,0,39.17,39.8Zm0,10.07a3.23,3.23,0,1,1,3.23-3.23A3.23,3.23,0,0,1,39.17,49.87Z" transform="translate(-11.95 -6.89)"/><path d="M52.2,41.39a14.05,14.05,0,1,1-13.52-8.77,9.28,9.28,0,0,1,.77-3.28l.18-.38-.46,0a17.75,17.75,0,1,0,16,10.28A10.55,10.55,0,0,1,52.2,41.39Z" transform="translate(-11.95 -6.89)"/><path d="M55.15,30.18C53,25.37,49.9,26.36,48.28,16.62c-1.74,9-4.7,8.75-6.88,13.56-2.36,5.48,2.76,10,6.88,10S57.52,35.66,55.15,30.18Zm-7.37,7.08a1,1,0,0,1-.9.57.9.9,0,0,1-.42-.1,5,5,0,0,1-2.84-3.57,1,1,0,0,1,2-.34,3.05,3.05,0,0,0,1.73,2.12A1,1,0,0,1,47.78,37.26Z" transform="translate(-11.95 -6.89)"/><rect x="4.47" y="9.36" width="2.63" height="2.63"/><rect x="9.16" y="9.36" width="2.63" height="2.63"/><rect x="13.84" y="9.36" width="2.63" height="2.63"/><rect x="4.47" y="13.66" width="2.63" height="2.63"/><rect x="9.16" y="13.66" width="2.63" height="2.63"/><rect x="13.84" y="13.66" width="2.63" height="2.63"/><rect x="4.47" y="17.97" width="2.63" height="2.63"/><rect x="9.16" y="17.97" width="2.63" height="2.63"/><rect x="13.84" y="17.97" width="2.63" height="2.63"/><rect x="4.47" y="4.19" width="12.01" height="3.3"/><path d="M26,31h-12V8.88h17v19c.65-.28,1.31-.54,2-.76V6.89H12V33H24A19.89,19.89,0,0,1,26,31Z" transform="translate(-11.95 -6.89)"/></svg>