<svg id="e8a901d8-4aab-40c5-a567-3a47cd3a7e54" data-name="Ebene 1" xmlns="http://www.w3.org/2000/svg" viewBox="0 0 58.05 37.32"><path d="M12.74,16.77H33.07c-.31,0-10.16,16.58-10.16,16.58Z" transform="translate(-6.41 -16.77)"/><path d="M48.06,37.08c-3,1.35-6.32,4.09-12.63,4.26-6.3-.17-9.65-2.91-12.62-4.26H6.41v17H22.9c2.94-1.37,6.29-4.05,12.53-4.22C41.68,50,45,52.72,48,54.09H64.46v-17Z" transform="translate(-6.41 -16.77)"/><path d="M45.93,29.63a2.81,2.81,0,0,1,4.61-.05c2.93-4.89,7.66-12.75,7.88-12.75H38.08Z" transform="translate(-6.41 -16.77)"/><circle cx="41.85" cy="14.69" r="1.84"/></svg>