<svg id="a21bbcec-0f35-4d04-91a7-f0c73f90ade3" data-name="Ebene 1" xmlns="http://www.w3.org/2000/svg" viewBox="0 0 56.47 50.31"><defs><style>.bad8f42f-7104-482c-b4ce-d545bab0e428{fill:#319146;}</style></defs><path class="bad8f42f-7104-482c-b4ce-d545bab0e428" d="M60.7,10.63H10.17a3,3,0,0,0-3,3V44.28a3,3,0,0,0,3,3H31.89v8h-10v5.67H49V55.27H39v-8H60.7a3,3,0,0,0,3-3V13.6A3,3,0,0,0,60.7,10.63ZM59.41,43h-48V14.89h48Z" transform="translate(-7.2 -10.63)"/><path class="bad8f42f-7104-482c-b4ce-d545bab0e428" d="M26.92,33.47l5.69-9.53L38.3,38.47a1.15,1.15,0,0,0,.78.69,1.33,1.33,0,0,0,.28,0,1.12,1.12,0,0,0,.72-.26L46,34h8.26V31.76H45.58a1.14,1.14,0,0,0-.73.26l-5,4.16L33.88,21a1.13,1.13,0,0,0-1-.72,1.12,1.12,0,0,0-1.06.55l-6.55,11H16.62V34h9.32A1.14,1.14,0,0,0,26.92,33.47Z" transform="translate(-7.2 -10.63)"/></svg>