<svg id="bc3f1735-5047-4118-9aa8-3b6bf092dd66" data-name="Ebene 1" xmlns="http://www.w3.org/2000/svg" viewBox="0 0 56.47 50.31"><path d="M60.7,12.55H10.17a3,3,0,0,0-3,3V46.2a3,3,0,0,0,3,3H31.89v8h-10v5.67H49V57.19H39v-8H60.7a3,3,0,0,0,3-3V15.52A3,3,0,0,0,60.7,12.55ZM59.41,44.92h-48V16.8h48Z" transform="translate(-7.2 -12.55)"/><path d="M23.62,20.86v4.75H47.24V20.86ZM26.9,24.6a1.36,1.36,0,1,1,1.36-1.36A1.36,1.36,0,0,1,26.9,24.6Z" transform="translate(-7.2 -12.55)"/><path d="M23.62,28.48v4.75H47.24V28.48Zm3.28,3.74a1.36,1.36,0,1,1,1.36-1.36A1.36,1.36,0,0,1,26.9,32.22Z" transform="translate(-7.2 -12.55)"/><path d="M23.62,36.1v4.75H47.24V36.1Zm3.28,3.74a1.36,1.36,0,1,1,1.36-1.36A1.36,1.36,0,0,1,26.9,39.84Z" transform="translate(-7.2 -12.55)"/></svg>