<svg id="aae38e7e-7642-4b06-8591-1531df65d1f1" data-name="Ebene 1" xmlns="http://www.w3.org/2000/svg" viewBox="0 0 50.18 40.63"><defs><style>.e8735126-75b2-4224-a4ad-817bdc69885e{fill:#319146;}</style></defs><rect class="e8735126-75b2-4224-a4ad-817bdc69885e" x="38.13" width="12.05" height="12.05"/><rect class="e8735126-75b2-4224-a4ad-817bdc69885e" x="38.13" y="14.23" width="12.05" height="12.05"/><path class="e8735126-75b2-4224-a4ad-817bdc69885e" d="M33.57,38.41h-.13L30.77,29A2.94,2.94,0,1,0,26,26.67L14.27,31.51a3.55,3.55,0,0,0-2.71-1.26,3.6,3.6,0,0,0,0,7.2,3.07,3.07,0,0,0,.53-.05l5.27,10.35a5.77,5.77,0,1,0,9.35,4.53,5.64,5.64,0,0,0-.54-2.42l4.48-3.26a4.62,4.62,0,1,0,2.92-8.19Zm-6.7-9.65a2.9,2.9,0,0,0,1.72.82l2.67,9.47a4.6,4.6,0,0,0-1.38,1.22L15.13,34.11a2.06,2.06,0,0,0,0-.26c0-.08,0-.16,0-.25ZM14.12,36.38c.05-.05.09-.12.14-.17L29,42.36a4.9,4.9,0,0,0-.07.67,4.63,4.63,0,0,0,.35,1.75L24.84,48a5.73,5.73,0,0,0-5.46-1.3Z" transform="translate(-7.96 -17.43)"/><path class="e8735126-75b2-4224-a4ad-817bdc69885e" d="M33.75,31.66l1.34,4.74A6.8,6.8,0,0,1,40.38,43c0,.23,0,.46,0,.68h3.08v-12Z" transform="translate(-7.96 -17.43)"/><path class="e8735126-75b2-4224-a4ad-817bdc69885e" d="M31.38,17.43v5a4.86,4.86,0,0,1,1.7,6.9l.05.15h10.3v-12Z" transform="translate(-7.96 -17.43)"/></svg>