<svg id="eec504e4-be2b-415f-a712-cfe0499b2a99" data-name="Ebene 1" xmlns="http://www.w3.org/2000/svg" viewBox="0 0 56.52 56.52"><path d="M46.51,40.72,45.1,42.13l-5.23-5.24a17.67,17.67,0,1,0-3,3l5.24,5.24-1.41,1.41L59,64.9l5.83-5.82ZM15.56,36.45a14.75,14.75,0,1,1,21.59-.81l-1.54,1.55A14.76,14.76,0,0,1,15.56,36.45Z" transform="translate(-8.35 -8.39)"/><path d="M34,20.18a1.17,1.17,0,0,0-.47-.92,9.67,9.67,0,0,0-3.27-1.43V16.29H28.51v1.19c-.53-.07-1.07-.12-1.63-.15v-1H25.09v1c-.55,0-1.1.08-1.62.15V16.29H21.68v1.54a9.76,9.76,0,0,0-3.27,1.43,1.17,1.17,0,0,0-.47.92V24h-3v1.79h5.29V20.8a8,8,0,0,1,1.47-.61V26l.87,1.51h0L23.47,26V19.77c.52-.08,1.06-.14,1.62-.17V26L26,27.54h0L26.88,26V19.6c.56,0,1.11.09,1.63.17V26l.87,1.51h0L30.29,26V20.19a8,8,0,0,1,1.47.61v7.69H20.21v-.95H14.92v1.78H18L19.81,34a1.11,1.11,0,0,0,1.05.73H31.11A1.14,1.14,0,0,0,32.17,34L34,29.31a1.11,1.11,0,0,0,.06-.57.14.14,0,0,0,0-.07Z" transform="translate(-8.35 -8.39)"/></svg>