<?xml version="1.0" encoding="utf-8"?>
<!-- Generator: Adobe Illustrator 24.3.0, SVG Export Plug-In . SVG Version: 6.00 Build 0)  -->
<svg version="1.1" id="Ebene_1" xmlns="http://www.w3.org/2000/svg" xmlns:xlink="http://www.w3.org/1999/xlink" x="0px" y="0px"
	 viewBox="0 0 70.9 70.9" style="enable-background:new 0 0 70.9 70.9;" xml:space="preserve">
<path d="M64.9,34.4l-7.1-7.1c-0.2-0.2-0.5-0.4-0.8-0.4L56,26.8L35.8,6.6c-0.2-0.2-0.6-0.2-0.8,0L24.1,17.5l0,0
	c-0.5-0.2-1.1-0.1-1.5,0.3L6,34.4c-0.6,0.6-0.6,1.5,0,2c0.4,0.4,1,0.5,1.5,0.3L35,64.2c0.1,0.1,0.3,0.2,0.4,0.2s0.3-0.1,0.4-0.2
	l27.5-27.5c0.2,0.1,0.3,0.1,0.5,0.1c0.4,0,0.7-0.1,1-0.4C65.4,35.9,65.4,35,64.9,34.4z M56.1,29.7l5.2,5.2H36.8l5.5-5.5
	c0.5,0.4,1.2,0.6,1.9,0.6c1.2,0,2.2-0.6,2.8-1.5L56.1,29.7z M36,26.7c0.7-0.1,1.3-0.4,1.8-0.9l3.2,1.2c0.1,0.6,0.3,1.1,0.6,1.6
	L36,34.1V26.7z M46.1,23.9c-0.5-0.4-1.2-0.6-1.9-0.6c-0.9,0-1.8,0.4-2.4,1l-3.1-1.2c-0.1-1.5-1.3-2.7-2.7-3V8.4l12.8,12.8L46.1,23.9
	z M32.1,23.6c0.1,1.5,1.3,2.8,2.7,3v7.4L22.6,21.8l1.3-1.3L32.1,23.6z M34.1,34.9H9.6l12.2-12.2L34.1,34.9z M8.5,36h26.4v26.5
	L8.5,36L8.5,36z M36,36h26.4l0,0L36,62.5V36z M47.4,25.7c-0.1-0.3-0.3-0.7-0.5-1l2.7-2.7l4.5,4.5L47.4,25.7z M34.9,8.4v11.7
	c-0.7,0.1-1.3,0.4-1.7,0.9l-7.9-3L34.9,8.4z"/>
</svg>
