<svg id="f8157dae-2d05-44bb-a4de-3cbe3db285ba" data-name="Ebene 1" xmlns="http://www.w3.org/2000/svg" viewBox="0 0 48.36 46.54"><path d="M42.43,49.24l2,2.58a18.15,18.15,0,0,1-19.14-.2A5,5,0,0,1,22.63,55a22.41,22.41,0,0,0,24.5.21l2.46,3.1L54.54,47S42.54,49.38,42.43,49.24Z" transform="translate(-12.52 -12.16)"/><path d="M24,50.49A3.47,3.47,0,1,0,20.55,54,3.47,3.47,0,0,0,24,50.49Z" transform="translate(-12.52 -12.16)"/><path d="M35.07,19.11a3.48,3.48,0,1,0-3.47-3.47A3.47,3.47,0,0,0,35.07,19.11Z" transform="translate(-12.52 -12.16)"/><path d="M57.41,39a3.48,3.48,0,1,0,3.47,3.48A3.47,3.47,0,0,0,57.41,39Z" transform="translate(-12.52 -12.16)"/><path d="M16.77,36.15A18.33,18.33,0,0,1,30.93,18.34a4.87,4.87,0,0,1-.82-2.72,4.75,4.75,0,0,1,.26-1.52,22.58,22.58,0,0,0-17.85,22,22.35,22.35,0,0,0,3.56,12.13,4.93,4.93,0,0,1,3.37-2.65A18.14,18.14,0,0,1,16.77,36.15Z" transform="translate(-12.52 -12.16)"/></svg>