<svg id="ae13d4e7-c8c6-4305-8ad0-dbc140a48d1a" data-name="Ebene 1" xmlns="http://www.w3.org/2000/svg" viewBox="0 0 56.53 56.53"><path d="M47,39.3l-1.41,1.41-5.24-5.23A17.64,17.64,0,0,0,14,12.13,17.63,17.63,0,0,0,37.33,38.48l5.23,5.24-1.41,1.41L59.51,63.49l5.83-5.83ZM16,35A14.76,14.76,0,0,1,36.89,14.17h0a14.73,14.73,0,0,1,.76,20L36,35.8A14.73,14.73,0,0,1,16,35Z" transform="translate(-8.81 -6.96)"/><polygon points="26.64 20.16 23.19 20.16 19.9 8.85 15.39 8.85 12.1 20.16 8.64 20.16 8.64 22.43 12.27 22.43 14.98 26.44 20.31 26.44 23.02 22.43 26.64 22.43 26.64 20.16"/></svg>