<svg id="ad9f8e1f-5a4d-4f45-8087-1403138bcdb4" data-name="Ebene 1" xmlns="http://www.w3.org/2000/svg" viewBox="0 0 49.77 42.85"><path d="M60.32,18.76V14H36.7v2.75h-.06V19.2H22.47V14.86H11.8V25.53H22.47V21.19H36.64V34.53H23.14v2h13.5V50H23.15l-2.72-4.71H13.84L10.55,51l3.29,5.71h6.59L23.15,52H36.64v4.91H60.32V52.11H38.62V49.24h21.7V44.49H38.62V41.62h21.7V36.87H38.62V34h21.7V29.25H38.62V26.38h21.7V21.63H38.62V18.76ZM40,15a1.36,1.36,0,1,1-1.36,1.36A1.36,1.36,0,0,1,40,15Zm0,38.1a1.36,1.36,0,1,1-1.36,1.4v-.08A1.36,1.36,0,0,1,40,53.12Zm0-7.62a1.36,1.36,0,1,1-1.36,1.4v-.08A1.36,1.36,0,0,1,40,45.5Zm0-7.62a1.36,1.36,0,1,1-1.36,1.4V39.2A1.36,1.36,0,0,1,40,37.88Zm0-7.62a1.36,1.36,0,1,1-1.36,1.4v-.08A1.36,1.36,0,0,1,40,30.26Zm0-7.62A1.36,1.36,0,1,1,38.62,24V24A1.36,1.36,0,0,1,40,22.64Z" transform="translate(-10.55 -14.01)"/><circle cx="17.13" cy="35.53" r="6" transform="translate(-30.65 8.51) rotate(-45)"/></svg>