<?xml version="1.0" encoding="UTF-8"?>
<svg id="Icon" xmlns="http://www.w3.org/2000/svg" viewBox="0 0 1025.94 1025.94">
  
  <path class="cls-1" d="m588.89,623.26v-296.57c2.02-.56,4.06-1.16,6.15-1.82,3.38-1.08,5.65-4.24,5.65-7.79v-8.46c0-2.81-1.43-5.44-3.81-6.92-2.28-1.42-5.47-3.04-9.21-3.99-3.68-.94-6.31-4.17-6.31-7.97h0c0-4.44,3.54-8.07,7.98-8.19l6.68-.17c1.15-.03,2.27-.3,3.31-.79l11.42-5.44c2.85-1.36,4.67-4.23,4.67-7.39v-10.71c0-3.56-2.3-6.72-5.7-7.8l-12.89-4.11c-.78-.25-1.59-.38-2.4-.39l-37.45-.41h-1.36l-37.45.41c-.81,0-1.62.14-2.4.39l-12.89,4.11c-3.39,1.08-5.7,4.24-5.7,7.8v10.71c0,3.16,1.82,6.04,4.67,7.39l11.42,5.44c1.04.49,2.16.76,3.31.79l6.68.17c4.44.11,7.98,3.75,7.98,8.19h0c0,3.8-2.63,7.03-6.31,7.97-3.74.95-6.93,2.58-9.21,3.99-2.39,1.48-3.81,4.11-3.81,6.92v9.28c0,3.26,1.92,6.22,4.91,7.5,1.81.77,4.12,1.65,6.89,2.5v295.35s-82.96,106.25-82.96,156.07,13.38,66.42,13.38,66.42c0,0,27.68,42.9,98.71,42.9h6.96c71.03,0,98.71-42.9,98.71-42.9,0,0,13.38-16.61,13.38-66.42s-82.96-156.07-82.96-156.07Z"/>
  <path class="cls-1" d="m475.3,678.25c17.28-27.31,34.76-50.62,40.22-57.77v-67.47c-14.76-21.6-26.63-36.81-26.63-36.81V219.64c2.02-.56,4.06-1.16,6.15-1.82,3.38-1.08,5.65-4.24,5.65-7.79v-8.46c0-2.81-1.43-5.44-3.81-6.92-2.28-1.42-5.47-3.04-9.21-3.99-3.68-.94-6.31-4.17-6.31-7.97h0c0-4.44,3.54-8.07,7.98-8.19l6.68-.17c1.15-.03,2.27-.3,3.31-.79l11.42-5.44c2.85-1.36,4.67-4.23,4.67-7.39v-10.71c0-3.56-2.3-6.72-5.7-7.8l-12.89-4.11c-.78-.25-1.59-.38-2.4-.39l-37.45-.41h-1.36l-37.45.41c-.81,0-1.62.14-2.4.39l-12.89,4.11c-3.39,1.08-5.7,4.24-5.7,7.8v10.71c0,3.16,1.82,6.04,4.67,7.39l11.42,5.44c1.04.49,2.16.76,3.31.79l6.68.17c4.44.11,7.98,3.75,7.98,8.19h0c0,3.8-2.63,7.03-6.31,7.97-3.74.95-6.93,2.58-9.21,3.99-2.39,1.48-3.81,4.11-3.81,6.92v9.28c0,3.26,1.92,6.22,4.91,7.5,1.81.77,4.12,1.65,6.89,2.5v295.35s-28.65,36.7-52.28,77.07v3.82c5.45,7.14,22.94,30.45,40.22,57.77,17.75,28.07,30.03,51.89,36.73,71.23,6.81-14.23,15.79-30.2,26.96-47.84Z"/>
  <path class="cls-1" d="m432.56,779.33c0-11.12,3.6-25.18,10.74-42.07-14.67-53.65-80.06-137.39-80.06-137.39v-296.57c2.02-.56,4.06-1.16,6.15-1.82,3.38-1.08,5.65-4.24,5.65-7.79v-8.46c0-2.81-1.43-5.44-3.81-6.92-2.28-1.42-5.47-3.04-9.21-3.99-3.68-.94-6.31-4.17-6.31-7.97h0c0-4.44,3.54-8.07,7.98-8.19l6.68-.17c1.15-.03,2.27-.3,3.31-.79l11.42-5.44c2.85-1.36,4.67-4.23,4.67-7.39v-10.71c0-3.56-2.3-6.72-5.7-7.8l-12.89-4.11c-.78-.25-1.59-.38-2.4-.39l-37.45-.41h-1.36l-37.45.41c-.82,0-1.62.14-2.4.39l-12.89,4.11c-3.39,1.08-5.7,4.24-5.7,7.8v10.71c0,3.16,1.82,6.04,4.67,7.39l11.42,5.44c1.04.49,2.16.76,3.31.79l6.68.17c4.44.11,7.98,3.75,7.98,8.19h0c0,3.8-2.63,7.03-6.31,7.97-3.74.95-6.93,2.58-9.21,3.99-2.39,1.48-3.81,4.11-3.81,6.92v9.28c0,3.26,1.92,6.22,4.91,7.5,1.81.77,4.12,1.65,6.89,2.5v295.35s-82.96,106.25-82.96,156.07,13.38,66.42,13.38,66.42c0,0,27.68,42.9,98.71,42.9h6.96c71.03,0,98.71-42.9,98.71-42.9,0,0,1.17-1.47,2.82-4.8-1.81-9.99-3.09-22.57-3.09-38.23Z"/>
  <path class="cls-1" d="m727.9,572.15v-296.57c2.02-.56,4.06-1.16,6.15-1.82,3.38-1.08,5.65-4.24,5.65-7.79v-8.46c0-2.81-1.43-5.44-3.81-6.92-2.28-1.42-5.47-3.04-9.21-3.99-3.68-.94-6.31-4.17-6.31-7.97h0c0-4.44,3.54-8.07,7.98-8.19l6.68-.17c1.15-.03,2.27-.3,3.31-.79l11.42-5.44c2.85-1.36,4.67-4.23,4.67-7.39v-10.71c0-3.56-2.3-6.72-5.7-7.8l-12.89-4.11c-.78-.25-1.59-.38-2.4-.39l-37.45-.41h-1.36l-37.45.41c-.81,0-1.62.14-2.4.39l-12.89,4.11c-3.39,1.08-5.7,4.24-5.7,7.8v10.71c0,3.16,1.82,6.04,4.67,7.39l11.42,5.44c1.04.49,2.16.76,3.31.79l6.68.17c4.44.11,7.98,3.75,7.98,8.19h0c0,3.8-2.63,7.03-6.31,7.97-3.74.95-6.93,2.58-9.21,3.99-2.39,1.48-3.81,4.11-3.81,6.92v9.28c0,3.26,1.92,6.22,4.91,7.5,1.81.77,4.12,1.65,6.89,2.5v295.35s-25.95,33.24-48.83,71.26c6.98,9.85,15.21,21.89,23.4,34.84,28.36,44.84,42.74,78.85,42.74,101.08,0,27.84-4.03,45.97-7.95,57.04,6.18.75,12.75,1.17,19.76,1.17h6.96c71.03,0,98.71-42.9,98.71-42.9,0,0,13.38-16.61,13.38-66.42s-82.96-156.07-82.96-156.07Z"/>
</svg>