<?xml version="1.0" encoding="utf-8"?>
<!-- Generator: Adobe Illustrator 27.8.0, SVG Export Plug-In . SVG Version: 6.00 Build 0)  -->
<svg version="1.1" id="Ebene_1" xmlns="http://www.w3.org/2000/svg" xmlns:xlink="http://www.w3.org/1999/xlink" x="0px" y="0px"
	 viewBox="0 0 751 751" style="enable-background:new 0 0 751 751;" xml:space="preserve">
<style type="text/css">
	.st0{fill:none;}
	.st1{fill:#319246;}
</style>
<g id="Icon">
	<path class="st0" d="M279.4,544.9c0,1.1-0.9,2-2,2s-2-0.9-2-2s0.9-2,2-2S279.4,543.8,279.4,544.9z"/>
	<g>
		<path class="st1" d="M242.2,54l-1,150.3c-3.1,2.7-5.6,5.9-7.5,9.6c-6.7,13.6-12.5,27-16.9,40L217.9,66H95L95,405.2
			c0,6.7-5.5,12-12,12s-12-5.3-12-12L70.9,54c0-3.2,1.3-6.3,3.5-8.5s5.5-3.5,8.5-3.5h147.2c3.2,0,6.3,1.3,8.5,3.5
			S242.2,50.7,242.2,54L242.2,54z"/>
		<path class="st1" d="M457.9,122.5v72.2c-8.4,3.2-16.4,6.6-24.1,10.3v-70.5h-123v75.3c-7.7-3.1-15.7-5.6-24.1-8.2v-79.1
			c0-6.7,5.5-12,12-12h147C452.5,110.5,457.9,115.8,457.9,122.5L457.9,122.5z"/>
		<path class="st1" d="M680.1,12.5L680,405.2c0,6.7-5.5,12-12,12s-12-5.3-12-12L656,24.6H533.9L532.8,250
			c-6.3-15.2-14.1-30.2-23.9-45.9l1-191.5c0.2-6.6,5.5-12,12-12h146.2C674.6,0.5,680.1,6,680.1,12.5L680.1,12.5z"/>
		<g>
			<g>
				<g>
					<path class="st1" d="M370.1,322.5c0.5,0.2,0.8,0.3,1.3,0.3v-0.2C370.9,322.7,370.6,322.7,370.1,322.5z M383.4,299.6l0.2,0.3
						c0.3-0.5,0.6-1,1-1.5C384.2,298.8,383.9,299.2,383.4,299.6L383.4,299.6z"/>
					<path class="st1" d="M370.1,322.5c0.5,0.2,0.8,0.3,1.3,0.3v-0.2C370.9,322.7,370.6,322.7,370.1,322.5z M370.1,322.5
						c0.5,0.2,0.8,0.3,1.3,0.3v-0.2C370.9,322.7,370.6,322.7,370.1,322.5z M370.1,322.5c0.5,0.2,0.8,0.3,1.3,0.3v-0.2
						C370.9,322.7,370.6,322.7,370.1,322.5z M370.1,322.5c0.5,0.2,0.8,0.3,1.3,0.3v-0.2C370.9,322.7,370.6,322.7,370.1,322.5z
						 M383.4,299.6l0.2,0.3c0.3-0.5,0.6-1,1-1.5C384.2,298.8,383.9,299.2,383.4,299.6L383.4,299.6z M370.1,322.5
						c0.5,0.2,0.8,0.3,1.3,0.3v-0.2C370.9,322.7,370.6,322.7,370.1,322.5z M370.1,322.5c0.5,0.2,0.8,0.3,1.3,0.3v-0.2
						C370.9,322.7,370.6,322.7,370.1,322.5z M370.1,322.5c0.5,0.2,0.8,0.3,1.3,0.3v-0.2C370.9,322.7,370.6,322.7,370.1,322.5z"/>
				</g>
				<g>
					<path class="st1" d="M370.1,322.5c0.5,0.2,0.8,0.3,1.3,0.3v-0.2C370.9,322.7,370.6,322.7,370.1,322.5z"/>
					<path class="st1" d="M384.6,298.4c-0.3,0.5-0.6,1-1,1.5l-0.2-0.3C383.9,299.2,384.2,298.8,384.6,298.4L384.6,298.4z"/>
				</g>
			</g>
			<g>
				<path class="st1" d="M383.5,299.6l0.2,0.3c0.3-0.5,0.6-1,1-1.5C384.2,298.8,383.9,299.2,383.5,299.6L383.5,299.6z M383.5,299.6
					l0.2,0.3c0.3-0.5,0.6-1,1-1.5C384.2,298.8,383.9,299.2,383.5,299.6L383.5,299.6z M383.5,299.6l0.2,0.3c0.3-0.5,0.6-1,1-1.5
					C384.2,298.8,383.9,299.2,383.5,299.6L383.5,299.6z M383.5,299.6l0.2,0.3c0.3-0.5,0.6-1,1-1.5
					C384.2,298.8,383.9,299.2,383.5,299.6L383.5,299.6z M370.1,322.5c0.5,0.2,0.8,0.3,1.3,0.3v-0.2
					C370.9,322.7,370.6,322.7,370.1,322.5z M383.5,299.6l0.2,0.3c0.3-0.5,0.6-1,1-1.5C384.2,298.8,383.9,299.2,383.5,299.6
					L383.5,299.6z M370.1,322.5c0.5,0.2,0.8,0.3,1.3,0.3v-0.2C370.9,322.7,370.6,322.7,370.1,322.5z M383.5,299.6l0.2,0.3
					c0.3-0.5,0.6-1,1-1.5C384.2,298.8,383.9,299.2,383.5,299.6L383.5,299.6z M370.1,322.5c0.5,0.2,0.8,0.3,1.3,0.3v-0.2
					C370.9,322.7,370.6,322.7,370.1,322.5z M383.5,299.6l0.2,0.3c0.3-0.5,0.6-1,1-1.5C384.2,298.8,383.9,299.2,383.5,299.6
					L383.5,299.6z M370.1,322.5c0.5,0.2,0.8,0.3,1.3,0.3v-0.2C370.9,322.7,370.6,322.7,370.1,322.5z M383.5,299.6l0.2,0.3
					c0.3-0.5,0.6-1,1-1.5C384.2,298.8,383.9,299.2,383.5,299.6L383.5,299.6z M370.1,322.5c0.5,0.2,0.8,0.3,1.3,0.3v-0.2
					C370.9,322.7,370.6,322.7,370.1,322.5z M383.5,299.6l0.2,0.3c0.3-0.5,0.6-1,1-1.5C384.2,298.8,383.9,299.2,383.5,299.6
					L383.5,299.6z M370.1,322.5c0.5,0.2,0.8,0.3,1.3,0.3v-0.2C370.9,322.7,370.6,322.7,370.1,322.5z M383.5,299.6l0.2,0.3
					c0.3-0.5,0.6-1,1-1.5C384.2,298.8,383.9,299.2,383.5,299.6L383.5,299.6z M370.1,322.5c0.5,0.2,0.8,0.3,1.3,0.3v-0.2
					C370.9,322.7,370.6,322.7,370.1,322.5z M383.5,299.6l0.2,0.3c0.3-0.5,0.6-1,1-1.5C384.2,298.8,383.9,299.2,383.5,299.6
					L383.5,299.6z M383.5,299.6l0.2,0.3c0.3-0.5,0.6-1,1-1.5C384.2,298.8,383.9,299.2,383.5,299.6L383.5,299.6z M383.5,299.6
					l0.2,0.3c0.3-0.5,0.6-1,1-1.5C384.2,298.8,383.9,299.2,383.5,299.6L383.5,299.6z M383.5,299.6l0.2,0.3c0.3-0.5,0.6-1,1-1.5
					C384.2,298.8,383.9,299.2,383.5,299.6L383.5,299.6z M370.1,322.5c0.5,0.2,0.8,0.3,1.3,0.3v-0.2
					C370.9,322.7,370.6,322.7,370.1,322.5z M383.5,299.6l0.2,0.3c0.3-0.5,0.6-1,1-1.5C384.2,298.8,383.9,299.2,383.5,299.6
					L383.5,299.6z"/>
				<path class="st1" d="M520.7,463.6c-6.4-1.6-13,2.4-14.5,9c-10.9,46.1-50.2,81.7-98.6,92.8c-6.6,1.6-13.2,2.7-19.9,3.2l-0.5-52.8
					v-1.6l-0.2-18.9h0.2c1.1-0.3,8.7-2.9,19.7-7.9c3-1.3,6.3-2.9,9.6-4.5c32.6-16.2,83.1-49.1,103.5-104.3c0.8-2.1,1.6-4.2,2.1-6.4
					c12.2-38.5,7.5-81.1-13.6-126.7V245c-4.8-10.3-10.6-20.2-17-30.8c-3-4.7-8.8-6.9-14.1-5.1c-6.7,2.2-13.3,4.7-19.6,7.2
					c-8.5,3.4-16.5,7.1-24.1,10.9c-17.5,8.8-32.6,19.1-45.3,30.7c-5.1,4.7-9.6,9.3-14,14.3c-4.7-4.7-9.8-9-15.1-13.2
					c-13.8-10.8-30-19.9-48.6-27.6c-7.5-3.2-15.6-6.1-24.1-8.7c-6.9-2.2-14.1-4.3-21.7-6.1c-5.5-1.3-11.1,1.3-13.5,6.3
					c-4,7.9-7.5,15.6-10.8,23.3v0.2c-18.5,45.4-22.1,86.8-11.1,123.4c1.9,6.6,4.5,13,7.4,19.3c23.4,50.1,71.8,78.3,105.6,92.6
					c1.3,0.5,2.6,1.1,3.9,1.6c6.1,2.4,11.6,4.5,16.2,5.9l0.2,19.3v1.9l0.6,58.4c-6.9-0.5-13.6-1.4-20.2-3.2
					c-48.8-10.8-88.4-46.5-99.5-93c-1.6-6.6-8-10.6-14.6-9c-6.4,1.6-10.4,8-8.8,14.5c13.8,58.1,62.5,101.3,123.1,112.2
					c10.1,2.1,20.7,3,31.5,3h0.6c10.9,0,21.7-1.1,32.1-3.4c59.6-11.7,108.4-55.2,121.8-111.9C531.1,471.7,527.1,465.3,520.7,463.6
					L520.7,463.6z M349.1,435.7v0.2c1.3,3.9,2.4,7.4,3.7,10.9c2.1,5.6,4.2,10.8,6.1,15.2c-4-1.6-8.4-3.5-13-5.6
					c-4.2-1.9-8.5-4-13-6.4c-27.1-14.5-58-37.2-73.8-71.4c-17.8-38-14.4-83.8,9.8-136.1c6.3,1.8,12.2,3.5,18,5.6
					c8.5,2.7,16.5,5.9,24.1,9.6c12.8,5.9,24.2,12.7,34,20.5c5.6,4.2,10.8,8.8,15.2,13.8c-3.9,6.1-7.1,12.5-9.8,19.1
					c-1.1,2.4-1.9,4.8-2.9,7.2C332.4,360.2,338.8,403.3,349.1,435.7L349.1,435.7z M381,451.8c-1.8-4.2-3.7-8.7-5.5-13.5
					c-1.8-5-3.5-10.3-5.1-15.7c-8-28.1-12.4-63.1-0.3-96.3c0.5-1.1,0.8-2.2,1.3-3.4c-0.5,0-0.8-0.2-1.3-0.3c0.5,0.2,0.8,0.2,1.3,0.2
					c3.2-8,7.2-15.6,12.2-22.8l-0.2-0.3c0.5-0.3,0.8-0.8,1.1-1.1s0.6-0.6,0.8-1.1c5.3-7.4,11.4-14.3,18.5-20.7
					c8.7-8,18.6-15.2,30-21.8c7.4-4.5,15.6-8.5,24.1-12.4c5.8-2.6,11.9-5,18.1-7.2c28.7,50.1,36.1,95.5,21.7,135
					c-13.2,35.6-42.2,61-68.1,77.5c-8.7,5.5-16.9,10-24.1,13.6c-1,0.5-1.9,1-2.9,1.3l1.8-4.5l8.8-23.9l20.5-55.4l8.5-23
					c2.4-6.3-0.8-13.2-7.1-15.6c-0.5-0.2-1-0.3-1.5-0.3c-3.9-1-7.9,0.2-10.8,2.9c-1.4,1.1-2.6,2.7-3.4,4.7l-28.1,75.6l-6.3,17
					L381,451.8L381,451.8z"/>
			</g>
		</g>
		<path class="st1" d="M375.5,750.5c-157.1,0-287.4-117.8-303-274c-0.7-6.6,4.2-12.5,10.8-13.2c6.6-0.8,12.5,4.2,13.2,10.8
			C110.8,618,230.8,726.4,375.5,726.4S640.2,618,654.6,474.1c0.7-6.6,6.7-11.5,13.2-10.8c6.6,0.7,11.4,6.6,10.8,13.2
			C662.9,632.7,532.7,750.5,375.5,750.5L375.5,750.5z"/>
		<path class="st1" d="M500.1,659.6c-15,8.8-34.3,3.7-43-11.5c-8.6-15-3.5-34.3,11.6-43c15-8.6,34.3-3.5,42.9,11.6
			C520.4,631.7,515.3,651,500.1,659.6L500.1,659.6z"/>
		<path class="st1" d="M594.7,566.9c-8.8,15-27.9,20.1-43,11.5c-15-8.8-20.2-27.9-11.5-43c8.6-15,27.9-20.2,43-11.5
			C598.2,532.4,603.5,551.7,594.7,566.9L594.7,566.9z"/>
		<path class="st1" d="M200.5,578.4c-15,8.6-34.3,3.5-42.9-11.5c-8.8-15.2-3.7-34.4,11.5-43c15-8.8,34.3-3.5,43.1,11.5
			C220.8,550.5,215.7,569.6,200.5,578.4z"/>
		<path class="st1" d="M293,648.2c-8.6,15.2-27.9,20.2-42.9,11.5c-15.1-8.6-20.2-27.9-11.6-42.9c8.8-15.2,28.1-20.2,43.1-11.6
			C296.7,613.9,301.8,633.2,293,648.2L293,648.2z"/>
		<path class="st1" d="M405.3,659.6c0,17.3-14.1,31.5-31.5,31.5s-31.5-14.1-31.5-31.5c0-8.8,3.5-16.4,9.1-22.2s13.6-9.3,22.3-9.3
			c10,0,18.8,4.5,24.6,11.7C402.7,645.4,405.3,652.1,405.3,659.6L405.3,659.6z"/>
	</g>
</g>
</svg>
