<svg xmlns="http://www.w3.org/2000/svg" xmlns:xlink="http://www.w3.org/1999/xlink" version="1.1" id="Ebene_1" x="0px" y="0px" style="enable-background:new 0 0 992.1 765.4;" xml:space="preserve" viewBox="296.46 284.4 402.24 173.1">
<style type="text/css">
	.st0{fill:#003F78;}
	.st1{fill:#9FCEF0;}
	.st2{fill:#67B9E8;}
	.st3{fill:#BEDCF5;}
	.st4{fill:#808EB7;}
</style>
<g>
	<path class="st0" d="M428.5,317.6c-0.1-0.3-0.2-0.7-0.2-1.1c0-0.4,0.2-0.9,0.7-1.4c0.5-0.5,1.1-0.8,2-0.8h8.5c1,0,2,0.3,2.8,1   c0.9,0.7,1.5,1.6,1.8,2.7l10.3,30.9l9.5-30.9c0.8-2.5,2.3-3.7,4.6-3.7h7.2c2.3,0,3.9,1.2,4.6,3.7l9.5,30.9l10.3-30.9   c0.4-1.1,1-1.9,1.8-2.7c0.9-0.7,1.8-1,2.8-1h8.5c0.9,0,1.6,0.3,2,0.8c0.5,0.5,0.7,1,0.7,1.4c0,0.4-0.1,0.8-0.2,1.1l-17.4,48.6   c-1,2.6-2.8,4-5.6,4h-5.7c-2.9,0-4.7-1.3-5.6-4l-9.5-30l-9.5,30c-0.9,2.6-2.7,4-5.6,4h-5.7c-2.8,0-4.6-1.3-5.6-4L428.5,317.6z"/>
	<path class="st0" d="M526.5,366.6v-48.6c0-1,0.4-1.9,1.1-2.6c0.7-0.7,1.6-1.1,2.6-1.1h7.2c1.1,0,2,0.4,2.7,1.1   c0.7,0.7,1.1,1.6,1.1,2.6v48.5c0,1-0.4,1.9-1.1,2.6c-0.7,0.7-1.6,1.1-2.6,1.1h-7.2c-1,0-1.9-0.3-2.6-1   C526.8,368.5,526.5,367.7,526.5,366.6"/>
	<path class="st0" d="M551.7,366.7l9.8-37.1c2.7-10.1,11.3-15.2,25.9-15.2h21c1,0,1.8,0.4,2.4,1.1c0.6,0.7,1,1.6,1,2.5v48.7   c0,1-0.4,1.9-1.1,2.6c-0.7,0.7-1.6,1-2.6,1h-7.3c-1.1,0-1.9-0.3-2.6-1c-0.7-0.7-1-1.6-1-2.6v-9.8h-27.7l-2.6,9.8   c-0.3,1.1-0.8,1.9-1.8,2.6c-0.9,0.7-1.9,1-2.9,1h-7.7c-1,0-1.7-0.3-2.2-0.9c-0.4-0.6-0.7-1.1-0.6-1.5   C551.6,367.4,551.7,367,551.7,366.7 M572.2,345.7h24.8v-20.3h-11.1c-2.5,0-4.7,0.7-6.5,2.1c-1.9,1.4-3.1,3.3-3.8,5.7L572.2,345.7z"/>
	<path class="st0" d="M626.9,366.5v-48.4c0-1.1,0.3-2,1.1-2.7c0.7-0.7,1.6-1.1,2.6-1.1h15.9c1,0,2,0.4,2.9,1.1   c0.9,0.7,1.5,1.6,1.8,2.6l11.5,33.3l11.5-33.3c0.3-1,0.9-1.9,1.8-2.6c0.9-0.7,1.9-1.1,2.9-1.1h15.9c1,0,1.9,0.4,2.6,1.1   c0.7,0.7,1,1.6,1,2.7v48.4c0,1.1-0.4,2-1.1,2.7c-0.7,0.7-1.6,1.1-2.6,1.1h-7c-1,0-1.9-0.4-2.6-1.1c-0.7-0.7-1.1-1.6-1.1-2.7v-38.1   l-13.8,38.3c-0.4,1-1,1.8-1.9,2.5c-0.9,0.7-1.9,1-2.9,1h-5.6c-1,0-2-0.3-2.9-1c-0.9-0.7-1.5-1.5-1.9-2.5l-13.7-38.3v38.1   c0,1.1-0.4,2-1.1,2.7c-0.7,0.7-1.6,1.1-2.6,1.1h-7c-1,0-1.9-0.4-2.6-1.1C627.2,368.4,626.9,367.6,626.9,366.5"/>
	<path class="st1" d="M326.5,398.3c2.1,0,3.7-1.7,3.7-3.7c0-2.1-1.7-3.7-3.7-3.7c-2.1,0-3.7,1.7-3.7,3.7   C322.7,396.6,324.4,398.3,326.5,398.3"/>
	<path class="st2" d="M341.7,399.3c2.6,0,4.8-2.1,4.8-4.8c0-2.6-2.1-4.8-4.8-4.8s-4.8,2.1-4.8,4.8   C336.9,397.2,339.1,399.3,341.7,399.3"/>
	<path class="st3" d="M312.5,397.3c1.5,0,2.7-1.2,2.7-2.7c0-1.5-1.2-2.7-2.7-2.7c-1.5,0-2.7,1.2-2.7,2.7   C309.8,396,311,397.3,312.5,397.3"/>
	<path class="st3" d="M300.5,396.2c0.9,0,1.7-0.7,1.7-1.7c0-0.9-0.7-1.7-1.7-1.7c-0.9,0-1.7,0.7-1.7,1.7   C298.9,395.5,299.6,396.2,300.5,396.2"/>
	<path class="st4" d="M301.5,368.6c-2,0-3.7-1.2-4.6-2.9c-0.8-1.8-0.5-3.9,0.8-5.4l30.4-34.5c1-1.1,2.3-1.7,3.8-1.7   c1.5,0,2.8,0.7,3.8,1.8l28.4,33.7c1.8,2.1,1.5,5.3-0.6,7c-2.1,1.8-5.3,1.5-7-0.6l-24.7-29.3l-19.2,21.8l11.3,0h0c2.8,0,5,2.2,5,5   c0,2.8-2.2,5-5,5L301.5,368.6L301.5,368.6z"/>
	<path class="st0" d="M364.6,301.2l-35.7,67.4l30.3-10.4c0.6-0.2,1.2-0.3,1.9-0.3l44,2.1l-9.7-23.7l-4.9,7.1c-1,1.5-2.8,2.3-4.6,2.1   c-1.8-0.2-3.4-1.4-4.1-3.1L364.6,301.2z M318.5,382.4c-1.4,0-2.8-0.6-3.8-1.8c-1.3-1.6-1.6-3.8-0.6-5.6l46.6-87.9   c0.9-1.7,2.7-2.7,4.7-2.7c1.9,0.1,3.6,1.3,4.4,3.1l17.7,42.7l4.9-7.2c1-1.5,2.8-2.3,4.7-2.1c1.8,0.2,3.4,1.4,4.1,3.1l15.9,39.1   c0.4,0.7,0.6,1.5,0.6,2.3c0,2.8-2.2,5-5,5c0,0,0,0,0,0c-0.1,0-0.2,0-0.2,0l-50.9-2.4l-41.4,14.1   C319.6,382.3,319.1,382.4,318.5,382.4"/>
	<path class="st2" d="M353.9,457.5c-1.7,0-3.2-0.8-4.2-2.2l-9.6-14.6c-1.5-2.3-0.9-5.4,1.4-6.9c2.3-1.5,5.4-0.9,6.9,1.4l4.2,6.4   l13.7-35.5c0.5-1.2,1.4-2.2,2.7-2.8c1.2-0.5,2.6-0.6,3.8-0.1l10.6,4.1l22.7-28.6c1.7-2.2,4.9-2.5,7-0.8c2.2,1.7,2.5,4.9,0.8,7   l-25,31.5c-1.4,1.7-3.7,2.4-5.7,1.5l-9.3-3.7l-15.4,39.9c-0.7,1.7-2.3,3-4.1,3.2C354.3,457.5,354.1,457.5,353.9,457.5"/>
	<path class="st1" d="M326.5,413.2c2.1,0,3.7-1.7,3.7-3.7c0-2.1-1.7-3.7-3.7-3.7c-2.1,0-3.7,1.7-3.7,3.7   C322.7,411.5,324.4,413.2,326.5,413.2"/>
	<path class="st2" d="M341.7,414.2c2.6,0,4.8-2.1,4.8-4.8c0-2.6-2.1-4.8-4.8-4.8s-4.8,2.1-4.8,4.8   C336.9,412,339.1,414.2,341.7,414.2"/>
	<path class="st3" d="M312.5,412.1c1.5,0,2.7-1.2,2.7-2.7c0-1.5-1.2-2.7-2.7-2.7c-1.5,0-2.7,1.2-2.7,2.7   C309.8,410.9,311,412.1,312.5,412.1"/>
	<path class="st3" d="M300.5,411.1c0.9,0,1.7-0.7,1.7-1.7c0-0.9-0.7-1.7-1.7-1.7c-0.9,0-1.7,0.7-1.7,1.7   C298.9,410.3,299.6,411.1,300.5,411.1"/>
	<path class="st1" d="M326.5,428c2.1,0,3.7-1.7,3.7-3.7c0-2.1-1.7-3.7-3.7-3.7c-2.1,0-3.7,1.7-3.7,3.7   C322.7,426.3,324.4,428,326.5,428"/>
	<path class="st2" d="M341.7,429c2.6,0,4.8-2.1,4.8-4.8c0-2.6-2.1-4.8-4.8-4.8s-4.8,2.1-4.8,4.8C336.9,426.9,339.1,429,341.7,429"/>
	<path class="st3" d="M312.5,427c1.5,0,2.7-1.2,2.7-2.7c0-1.5-1.2-2.7-2.7-2.7c-1.5,0-2.7,1.2-2.7,2.7   C309.8,425.8,311,427,312.5,427"/>
	<path class="st3" d="M300.5,425.9c0.9,0,1.7-0.7,1.7-1.7c0-0.9-0.7-1.7-1.7-1.7c-0.9,0-1.7,0.7-1.7,1.7   C298.9,425.2,299.6,425.9,300.5,425.9"/>
	<path class="st0" d="M428.5,317.6c-0.1-0.3-0.2-0.7-0.2-1.1c0-0.4,0.2-0.9,0.7-1.4c0.5-0.5,1.1-0.8,2-0.8h8.5c1,0,2,0.3,2.8,1   c0.9,0.7,1.5,1.6,1.8,2.7l10.3,30.9l9.5-30.9c0.8-2.5,2.3-3.7,4.6-3.7h7.2c2.3,0,3.9,1.2,4.6,3.7l9.5,30.9l10.3-30.9   c0.4-1.1,1-1.9,1.8-2.7c0.9-0.7,1.8-1,2.8-1h8.5c0.9,0,1.6,0.3,2,0.8c0.5,0.5,0.7,1,0.7,1.4c0,0.4-0.1,0.8-0.2,1.1l-17.4,48.6   c-1,2.6-2.8,4-5.6,4h-5.7c-2.9,0-4.7-1.3-5.6-4l-9.5-30l-9.5,30c-0.9,2.6-2.7,4-5.6,4h-5.7c-2.8,0-4.6-1.3-5.6-4L428.5,317.6z"/>
	<path class="st0" d="M526.5,366.6v-48.6c0-1,0.4-1.9,1.1-2.6c0.7-0.7,1.6-1.1,2.6-1.1h7.2c1.1,0,2,0.4,2.7,1.1   c0.7,0.7,1.1,1.6,1.1,2.6v48.5c0,1-0.4,1.9-1.1,2.6c-0.7,0.7-1.6,1.1-2.6,1.1h-7.2c-1,0-1.9-0.3-2.6-1   C526.8,368.5,526.5,367.7,526.5,366.6"/>
	<path class="st0" d="M551.7,366.6l9.8-37.1c2.7-10.1,11.3-15.2,25.9-15.2h21c1,0,1.8,0.4,2.4,1.1c0.6,0.7,1,1.6,1,2.5v48.7   c0,1-0.4,1.9-1.1,2.6c-0.7,0.7-1.6,1-2.6,1h-7.3c-1.1,0-1.9-0.3-2.6-1c-0.7-0.7-1-1.6-1-2.6v-9.8h-27.7l-2.6,9.8   c-0.3,1.1-0.8,1.9-1.8,2.6c-0.9,0.7-1.9,1-2.9,1h-7.7c-1,0-1.7-0.3-2.2-0.9c-0.4-0.6-0.7-1.1-0.6-1.5   C551.6,367.4,551.7,367,551.7,366.6 M572.2,345.7h24.8v-20.3h-11.1c-2.5,0-4.7,0.7-6.5,2.1c-1.9,1.4-3.1,3.3-3.8,5.7L572.2,345.7z"/>
	<path class="st0" d="M626.9,366.5v-48.4c0-1.1,0.3-2,1.1-2.7c0.7-0.7,1.6-1.1,2.6-1.1h15.9c1,0,2,0.4,2.9,1.1   c0.9,0.7,1.5,1.6,1.8,2.6l11.5,33.3l11.5-33.3c0.3-1,0.9-1.9,1.8-2.6c0.9-0.7,1.9-1.1,2.9-1.1h15.9c1,0,1.9,0.4,2.6,1.1   c0.7,0.7,1,1.6,1,2.7v48.4c0,1.1-0.4,2-1.1,2.7c-0.7,0.7-1.6,1.1-2.6,1.1h-7c-1,0-1.9-0.4-2.6-1.1c-0.7-0.7-1.1-1.6-1.1-2.7v-38.1   l-13.8,38.3c-0.4,1-1,1.8-1.9,2.5c-0.9,0.7-1.9,1-2.9,1h-5.6c-1,0-2-0.3-2.9-1c-0.9-0.7-1.5-1.5-1.9-2.5l-13.7-38.3v38.1   c0,1.1-0.4,2-1.1,2.7c-0.7,0.7-1.6,1.1-2.6,1.1h-7c-1,0-1.9-0.4-2.6-1.1C627.2,368.4,626.9,367.6,626.9,366.5"/>
</g>
<path class="st2" d="M457.4,396.7c-0.9,1.4-2.4,2-4.5,2c-1.5,0-2.6-0.4-3.4-1.3c-0.8-0.9-1.2-2.2-1.2-3.9v-9.2h1.5v9  c0,2.7,1.1,4,3.3,4c2.3,0,3.7-0.9,4.3-2.8v-10.2h1.6v14.1h-1.5L457.4,396.7z"/>
<path class="st2" d="M464.5,384.4l0.1,2.4c0.5-0.9,1.2-1.5,2-2c0.8-0.5,1.7-0.7,2.6-0.7c1.5,0,2.6,0.4,3.4,1.3  c0.7,0.8,1.1,2.1,1.1,3.8v9.2H472v-9.2c0-1.3-0.3-2.2-0.8-2.8c-0.5-0.6-1.4-0.9-2.5-0.9c-1,0-1.8,0.3-2.6,0.9  c-0.7,0.6-1.3,1.4-1.6,2.4v9.6H463v-14.1H464.5z"/>
<path class="st2" d="M478.7,398.5v-12.8h-2.3v-1.3h2.3v-1.7c0-1.4,0.4-2.5,1.1-3.3c0.7-0.8,1.8-1.2,3.1-1.2c0.6,0,1.1,0.1,1.7,0.2  l-0.1,1.3c-0.4-0.1-0.9-0.2-1.4-0.2c-0.9,0-1.5,0.3-2,0.8c-0.5,0.5-0.7,1.3-0.7,2.3v1.7h3.4v1.3h-3.4v12.8H478.7z"/>
<path class="st2" d="M492.9,385.7c-0.3-0.1-0.7-0.1-1.1-0.1c-1,0-1.8,0.3-2.5,0.8c-0.7,0.5-1.2,1.3-1.4,2.4v9.7h-1.5v-14.1h1.5  l0,2.2c0.8-1.7,2.1-2.5,4-2.5c0.4,0,0.8,0.1,1,0.2L492.9,385.7z"/>
<path class="st2" d="M500.3,385.5c-1.2,0-2.2,0.4-3,1.3c-0.8,0.9-1.3,2-1.5,3.5h8.4V390c0-1.4-0.4-2.5-1.2-3.3  C502.4,385.9,501.4,385.5,500.3,385.5 M500.6,398.7c-1.2,0-2.3-0.3-3.2-0.9c-1-0.6-1.7-1.4-2.3-2.5c-0.5-1.1-0.8-2.2-0.8-3.5v-0.6  c0-1.4,0.3-2.6,0.8-3.7c0.5-1.1,1.3-1.9,2.2-2.6c0.9-0.6,2-0.9,3-0.9c1.7,0,3.1,0.6,4.1,1.7c1,1.2,1.5,2.8,1.5,4.8v0.9h-10v0.3  c0,1.6,0.5,2.9,1.4,4c0.9,1.1,2.1,1.6,3.5,1.6c0.8,0,1.6-0.2,2.2-0.5c0.6-0.3,1.2-0.8,1.7-1.5l1,0.7  C504.4,397.9,502.7,398.7,500.6,398.7"/>
<path class="st2" d="M514,385.5c-1.2,0-2.2,0.4-3,1.3c-0.8,0.9-1.3,2-1.5,3.5h8.4V390c0-1.4-0.4-2.5-1.2-3.3  C516.2,385.9,515.2,385.5,514,385.5 M514.3,398.7c-1.2,0-2.3-0.3-3.2-0.9c-1-0.6-1.7-1.4-2.3-2.5c-0.5-1.1-0.8-2.2-0.8-3.5v-0.6  c0-1.4,0.3-2.6,0.8-3.7c0.5-1.1,1.3-1.9,2.2-2.6c0.9-0.6,2-0.9,3-0.9c1.7,0,3.1,0.6,4.1,1.7c1,1.2,1.5,2.8,1.5,4.8v0.9h-10v0.3  c0,1.6,0.5,2.9,1.4,4c0.9,1.1,2.1,1.6,3.5,1.6c0.8,0,1.6-0.2,2.2-0.5c0.6-0.3,1.2-0.8,1.7-1.5l1,0.7  C518.1,397.9,516.5,398.7,514.3,398.7"/>
<polygon class="st2" points="523.6,397.2 532.8,397.2 532.8,398.5 521.7,398.5 521.7,397.3 530.3,385.8 522,385.8 522,384.4   532.2,384.4 532.2,385.6 "/>
<path class="st2" d="M537.3,398.5h-1.6v-14.1h1.6V398.5z M535.5,380.3c0-0.3,0.1-0.5,0.3-0.7c0.2-0.2,0.5-0.3,0.8-0.3  c0.3,0,0.6,0.1,0.8,0.3c0.2,0.2,0.3,0.4,0.3,0.7c0,0.3-0.1,0.5-0.3,0.7c-0.2,0.2-0.5,0.3-0.8,0.3c-0.3,0-0.6-0.1-0.8-0.3  C535.6,380.9,535.5,380.6,535.5,380.3"/>
<path class="st2" d="M543,384.4l0.1,2.4c0.5-0.9,1.2-1.5,2-2c0.8-0.5,1.7-0.7,2.6-0.7c1.5,0,2.6,0.4,3.4,1.3  c0.7,0.8,1.1,2.1,1.1,3.8v9.2h-1.5v-9.2c0-1.3-0.3-2.2-0.8-2.8c-0.5-0.6-1.4-0.9-2.5-0.9c-1,0-1.8,0.3-2.6,0.9  c-0.7,0.6-1.3,1.4-1.6,2.4v9.6h-1.5v-14.1H543z"/>
<path class="st2" d="M557.1,391.6c0,1.8,0.4,3.2,1.1,4.2c0.7,1,1.7,1.6,3,1.6c1.9,0,3.3-0.9,4.1-2.6v-6.5c-0.4-0.9-0.9-1.6-1.6-2.1  c-0.7-0.5-1.5-0.7-2.5-0.7c-1.3,0-2.3,0.5-3.1,1.5C557.5,388.1,557.1,389.6,557.1,391.6 M555.5,391.3c0-2.2,0.5-3.9,1.5-5.2  c1-1.3,2.3-1.9,4-1.9c1.9,0,3.4,0.8,4.4,2.3l0.1-2h1.5v13.8c0,1.8-0.5,3.2-1.5,4.3c-1,1.1-2.4,1.6-4.1,1.6c-1,0-1.9-0.2-2.8-0.7  c-0.9-0.4-1.6-1-2.1-1.7l0.9-0.9c1.1,1.4,2.4,2,3.9,2c1.3,0,2.3-0.4,3-1.2c0.7-0.8,1.1-1.8,1.1-3.2v-1.8c-1,1.4-2.4,2.1-4.4,2.1  c-1.6,0-2.9-0.7-3.9-2c-1-1.3-1.5-3.1-1.5-5.3V391.3z"/>
<polygon class="st2" points="579.3,391.7 577.5,393.4 577.5,398.8 576,398.8 576,378.8 577.5,378.8 577.5,391.6 579,390   584.4,384.7 586.4,384.7 580.4,390.6 586.9,398.8 585,398.8 "/>
<path class="st2" d="M590.5,384.7l0.1,2.4c0.5-0.9,1.2-1.5,2-2c0.8-0.5,1.7-0.7,2.6-0.7c1.5,0,2.6,0.4,3.4,1.3  c0.7,0.9,1.1,2.1,1.1,3.8v9.2h-1.5v-9.2c0-1.3-0.3-2.2-0.8-2.8c-0.5-0.6-1.4-0.9-2.5-0.9c-1,0-1.8,0.3-2.6,0.9  c-0.7,0.6-1.3,1.4-1.6,2.4v9.6H589v-14.1H590.5z"/>
<path class="st2" d="M604.4,391.9c0,1.7,0.4,3.1,1.3,4.1c0.9,1.1,2,1.6,3.4,1.6c1.4,0,2.5-0.5,3.4-1.6c0.9-1.1,1.3-2.5,1.3-4.3v-0.3  c0-1.1-0.2-2.1-0.6-3c-0.4-0.9-1-1.6-1.7-2.1c-0.7-0.5-1.5-0.7-2.5-0.7c-1.4,0-2.5,0.5-3.4,1.6c-0.9,1.1-1.3,2.5-1.3,4.3V391.9z   M602.8,391.5c0-1.4,0.3-2.6,0.8-3.7c0.5-1.1,1.3-1.9,2.2-2.5c1-0.6,2-0.9,3.3-0.9c1.9,0,3.4,0.7,4.6,2c1.2,1.3,1.7,3.1,1.7,5.2v0.3  c0,1.4-0.3,2.6-0.8,3.7c-0.5,1.1-1.3,1.9-2.2,2.5c-1,0.6-2,0.9-3.3,0.9c-1.9,0-3.4-0.7-4.5-2c-1.2-1.3-1.7-3.1-1.7-5.2V391.5z"/>
<polygon class="st2" points="621.9,395.5 622.2,396.7 622.5,395.5 625.9,384.7 627.2,384.7 630.5,395.4 630.9,396.8 631.2,395.5   634.1,384.7 635.7,384.7 631.6,398.8 630.3,398.8 626.7,387.6 626.5,386.8 626.3,387.6 622.8,398.8 621.4,398.8 617.4,384.7   619,384.7 "/>
<rect x="638.8" y="378.8" class="st2" width="1.6" height="20"/>
<path class="st2" d="M649.8,385.8c-1.2,0-2.2,0.4-3,1.3c-0.8,0.9-1.3,2-1.5,3.5h8.4v-0.2c0-1.4-0.4-2.5-1.2-3.3  C651.9,386.2,651,385.8,649.8,385.8 M650.1,399c-1.2,0-2.3-0.3-3.2-0.9c-1-0.6-1.7-1.4-2.3-2.5c-0.5-1.1-0.8-2.2-0.8-3.5v-0.6  c0-1.4,0.3-2.6,0.8-3.7c0.5-1.1,1.3-1.9,2.2-2.6c0.9-0.6,2-0.9,3-0.9c1.7,0,3.1,0.6,4.1,1.7c1,1.2,1.5,2.8,1.5,4.8v0.9h-10v0.3  c0,1.6,0.5,2.9,1.4,4c0.9,1.1,2.1,1.6,3.5,1.6c0.8,0,1.6-0.2,2.2-0.5c0.6-0.3,1.2-0.8,1.7-1.5l1,0.7  C653.9,398.2,652.2,399,650.1,399"/>
<path class="st2" d="M659.3,391.9c0,1.8,0.4,3.2,1.1,4.2c0.7,1,1.7,1.6,3,1.6c1.9,0,3.3-0.8,4.1-2.5v-6.6c-0.8-1.8-2.2-2.7-4.1-2.7  c-1.3,0-2.3,0.5-3.1,1.5C659.7,388.3,659.3,389.9,659.3,391.9 M657.7,391.6c0-2.2,0.5-3.9,1.5-5.2c1-1.3,2.3-1.9,4-1.9  c1.9,0,3.3,0.7,4.3,2.2v-7.9h1.5v20h-1.5l-0.1-1.9c-1,1.4-2.5,2.1-4.4,2.1c-1.6,0-2.9-0.7-3.9-2c-1-1.3-1.5-3.1-1.5-5.3V391.6z"/>
<path class="st2" d="M674.1,391.9c0,1.8,0.4,3.2,1.1,4.2c0.7,1,1.7,1.6,3,1.6c1.9,0,3.3-0.9,4.1-2.6v-6.5c-0.4-0.9-0.9-1.6-1.6-2.1  c-0.7-0.5-1.5-0.7-2.5-0.7c-1.3,0-2.3,0.5-3.1,1.5C674.5,388.3,674.1,389.9,674.1,391.9 M672.5,391.6c0-2.2,0.5-3.9,1.5-5.2  c1-1.3,2.3-1.9,4-1.9c1.9,0,3.4,0.8,4.4,2.3l0.1-2h1.5v13.8c0,1.8-0.5,3.2-1.5,4.3c-1,1.1-2.4,1.6-4.1,1.6c-1,0-1.9-0.2-2.8-0.7  c-0.9-0.4-1.6-1-2.1-1.7l0.9-0.9c1.1,1.4,2.4,2,3.9,2c1.3,0,2.3-0.4,3-1.2c0.7-0.8,1.1-1.8,1.1-3.2v-1.8c-1,1.4-2.4,2.1-4.4,2.1  c-1.6,0-2.9-0.7-3.9-2c-1-1.3-1.5-3.1-1.5-5.3V391.6z"/>
<path class="st2" d="M693.1,385.8c-1.2,0-2.2,0.4-3,1.3c-0.8,0.9-1.3,2-1.5,3.5h8.4v-0.2c0-1.4-0.4-2.5-1.2-3.3  C695.2,386.2,694.3,385.8,693.1,385.8 M693.4,399c-1.2,0-2.3-0.3-3.2-0.9c-1-0.6-1.7-1.4-2.3-2.5c-0.5-1.1-0.8-2.2-0.8-3.5v-0.6  c0-1.4,0.3-2.6,0.8-3.7c0.5-1.1,1.3-1.9,2.2-2.6c0.9-0.6,2-0.9,3-0.9c1.7,0,3.1,0.6,4.1,1.7c1,1.2,1.5,2.8,1.5,4.8v0.9h-10v0.3  c0,1.6,0.5,2.9,1.4,4c0.9,1.1,2.1,1.6,3.5,1.6c0.8,0,1.6-0.2,2.2-0.5c0.6-0.3,1.2-0.8,1.7-1.5l1,0.7  C697.2,398.2,695.6,399,693.4,399"/>
</svg>