<svg width="73" height="72" viewBox="0 0 73 72" fill="none" xmlns="http://www.w3.org/2000/svg">
<g clip-path="url(#clip0_1935_13753)">
<path fill-rule="evenodd" clip-rule="evenodd" d="M36.6517 12.8899C32.6221 12.8899 29.099 14.1502 26.021 16.7089C22.9409 19.2693 20.9967 22.5468 20.161 26.5922L20.0209 27.2705L19.3366 27.3778C16.1915 27.871 13.6176 29.3112 11.5739 31.7173C9.52899 34.1247 8.51172 36.9046 8.51172 40.0999C8.51172 43.6987 9.75919 46.7332 12.2688 49.2428C14.7787 51.7527 17.8033 52.9999 21.4117 52.9999H24.5017V54.9999H21.4117C17.2801 54.9999 13.7447 53.5471 10.8546 50.657C7.96425 47.7666 6.51172 44.2211 6.51172 40.0999C6.51172 36.4352 7.69445 33.1951 10.0496 30.4225C12.2573 27.8234 15.0355 26.1849 18.3504 25.5224C19.3474 21.3468 21.4745 17.8875 24.7425 15.1709C28.1845 12.3096 32.1614 10.8899 36.6517 10.8899C41.8474 10.8899 46.2596 12.7936 49.8378 16.5723C53.4075 20.3421 55.1917 24.8897 55.1917 30.1499V30.7382C58.176 30.8721 60.7709 31.9837 62.9273 34.0714C65.3348 36.4023 66.5317 39.3576 66.5317 42.8599C66.5317 46.1621 65.3213 49.0354 62.9372 51.4086C60.5578 53.7772 57.6973 54.9999 54.3917 54.9999H48.5317V52.9999H54.3917C57.1462 52.9999 59.5056 52.0026 61.5262 49.9912C63.5422 47.9844 64.5317 45.6177 64.5317 42.8599C64.5317 39.8622 63.5286 37.4374 61.5361 35.5083C59.5367 33.5725 57.1206 32.6469 54.2202 32.7295L53.1917 32.7588V30.1499C53.1917 25.3901 51.5959 21.3377 48.3856 17.9475C45.1838 14.5662 41.2961 12.8899 36.6517 12.8899Z" fill="black" fill-opacity="0.6"/>
<path fill-rule="evenodd" clip-rule="evenodd" d="M44.2072 43.293L36.5001 35.5859L28.793 43.293L30.2072 44.7073L35.5001 39.4143V55H37.5001V39.4144L42.793 44.7073L44.2072 43.293Z" fill="black" fill-opacity="0.6"/>
</g>
<defs>
<clipPath id="clip0_1935_13753">
<rect width="72" height="72" fill="white" transform="translate(0.5)"/>
</clipPath>
</defs>
</svg>
