<?xml version="1.0" encoding="UTF-8"?>
<svg width="210px" height="24px" viewBox="0 0 210 24" version="1.1" xmlns="http://www.w3.org/2000/svg" xmlns:xlink="http://www.w3.org/1999/xlink">
    <title>✱ / Logos / Schaeffler Logo Green</title>
    <g id="Finales-Layout-Startseite" stroke="none" stroke-width="1" fill="none" fill-rule="evenodd">
        <g id="01-Startseite" transform="translate(-1214.000000, -16.000000)">
            <g id="✱-/-Logos-/-Schaeffler-Logo-Green" transform="translate(1214.000000, 0.000000)">
                <rect id="Rectangle" x="0" y="-7.10542736e-15" width="226" height="56"></rect>
                <g id="Schaeffler_green_rgb" transform="translate(0.000000, 16.000000)" fill="#00893D" fill-rule="nonzero">
                    <g id="Group">
                        <path d="M14.9646,11.9226 C13.8066,10.9014 12.2976,10.4028 10.8078,9.957 C9.3102,9.5166 7.8282,9.1986 6.7542,8.7438 C5.6676,8.274 5.0652,7.746 5.0634,6.8496 C5.0814,5.1102 6.1776,4.1736 7.8552,4.1532 C9.0042,4.1532 9.93,4.551 10.641,5.2284 C11.325,5.8794 11.8188,6.831 12.0474,7.9386 L15.612,7.9386 L15.612,1.0734 L11.892,1.0734 L11.8992,2.2548 C10.728,1.3146 9.24,0.588 7.6728,0.587395859 C5.0412,0.585 3.2466,1.626 2.139,2.9364 C1.0284,4.2474 0.588,5.802 0.58617044,6.8898 C0.579,9.8016 1.8882,11.481 3.306,12.4056 C4.7142,13.3344 6.2466,13.56 6.6636,13.683 C8.493,14.2344 9.9792,14.5038 10.9512,14.9814 C11.9154,15.4698 12.3876,16.0458 12.4062,17.4654 C12.4038,19.1274 10.9914,20.406 9.3708,20.406 C6.5478,20.397 4.7406,18.5028 4.368,15.7332 L0.768,15.7332 L0.768,23.4858 L4.4874,23.4858 L4.4874,22.1844 C6.0144,23.289 7.7814,23.9718 9.6744,23.9718 L9.6768,23.9718 C11.7348,23.9718 13.5402,23.2752 14.8302,22.038 C16.1196,20.8026 16.8846,19.0272 16.8828225,16.917 C16.8876,14.5008 16.1244,12.9456 14.9646,11.9226" id="Path"></path>
                        <path d="M36.6072,15.6816 L36.5334,15.831 C35.3292,18.2076 33.7326,19.7844 30.561,19.7988 C26.085,19.7898 23.6646,16.365 23.6478,12.2772 C23.664,8.169 26.1462,4.767 30.561,4.7598 C31.7526,4.7598 32.9766,5.106 33.9564,5.7708 C34.9464,6.4158 35.7132,7.3284 35.9976,8.4948 L36.0474,8.6976 L39.7074,8.6976 L39.705,1.074 L35.9916,1.074 L35.9916,2.2932 C34.077,0.8826 31.2078,0.5946 30.5274,0.5856 C27.8478,0.5862 25.0158,1.506 22.8414,3.4194 C20.6676,5.3298 19.1682,8.2416 19.1705971,12.1602 C19.1705971,15.4974 20.4018,18.4518 22.4454,20.571 C24.4854,22.6902 27.339,23.97 30.561,23.97 L30.5982,23.97 C35.4318,23.97 39.3882,21.3456 40.6704,16.0128 C40.6704,16.0128 40.6986,15.8928 40.7058,15.6846 C40.5756,15.6816 36.6072,15.6816 36.6072,15.6816" id="Path"></path>
                    </g>
                    <polygon id="Path" points="170.0964 1.0728 170.0964 4.578 172.431 4.578 172.431 19.9794 170.0964 19.9794 170.0964 23.4846 187.218 23.4846 187.218 16.4016 183.468 16.4016 183.468 19.9794 176.91 19.9794 176.91 13.5444 182.9988 13.5444 182.9988 9.8244 176.91 9.8244 176.91 4.578 183.468 4.578 183.468 7.1106 183.7344 7.1106 183.7344 7.1268 187.218 7.1268 187.218 1.0728"></polygon>
                    <polygon id="Path" points="152.5554 1.0728 152.5554 4.5786 155.0118 4.5786 155.0118 19.9794 152.5554 19.9794 152.5554 23.4846 167.9178 23.4846 167.9178 16.467 164.1666 16.467 164.1666 19.9794 159.489 19.9794 159.489 4.578 161.8632 4.5786 161.8632 1.0728"></polygon>
                    <path d="M197.5374,4.578 L199.365,4.578 C200.3916,4.5762 201.5742,4.5834 202.455,4.899 C203.3346,5.2296 203.9022,5.7582 203.9178,7.005 C203.907,8.4144 203.4222,9.1068 202.6878,9.5292 C201.9462,9.9492 200.895,10.0476 199.8198,10.0452425 L197.5374,10.0452425 L197.5374,4.578 Z M207.6582,19.9794 L207.6582,15.3138 C207.6582,14.6328 207.6072,13.8594 207.2082,13.1616 C206.8746,12.582 206.0814,12.0828 205.1634,11.7486 C207.1512,10.7514 208.3998,9.198 208.3818,6.7956 L208.3818,6.7194 C208.3818,6.2718 208.3524,4.923 207.3588,3.66 C205.5384,1.2444 202.8408,1.0668 201.1764,1.0685867 C200.8758,1.0685867 200.61,1.0758 200.3892,1.0758 L190.7298,1.074 L190.7298,4.5798 L193.0644,4.5798 L193.0644,19.9806 L190.7298,19.9806 L190.7298,23.4858 L199.6986,23.4858 L199.6986,23.2188 L199.6986,19.9806 L197.5374,19.9806 L197.5374,13.5444 L199.6374,13.545 C200.4282,13.5432 201.3594,13.6008 202.0506,13.8894 C202.7424,14.1894 203.1816,14.6268 203.1918,15.5508 L203.1918,23.484 L209.7828,23.484 L209.7828,19.9788 L207.6582,19.9788 L207.6582,19.9794 Z" id="Shape"></path>
                    <polygon id="Path" points="54.6756 1.0728 54.6756 4.5786 56.7456 4.5786 56.7456 9.8244 49.4628 9.8244 49.4628 4.578 51.5184 4.5786 51.5184 1.0728 42.6522 1.0728 42.6522 4.5786 44.9922 4.5786 44.9922 19.9794 42.6522 19.9794 42.6522 23.4846 51.5256 23.4846 51.5256 19.9794 49.4628 19.9794 49.4628 13.5444 56.7456 13.5444 56.7456 19.9794 54.6756 19.9794 54.6756 23.4846 63.552 23.4846 63.552 19.9794 61.2228 19.9794 61.2228 4.578 63.552 4.5786 63.552 1.0728"></polygon>
                    <polygon id="Path" points="131.7744 1.0728 131.7744 4.5786 134.1072 4.5786 134.1072 19.9794 131.7744 19.9794 131.7744 23.4846 140.8914 23.4846 140.8914 19.9794 138.5808 19.9794 138.5808 13.5444 145.1616 13.5456 145.1616 9.8244 138.5808 9.8244 138.5808 4.578 145.3794 4.578 145.3794 7.1106 149.1324 7.1106 149.1324 1.0728"></polygon>
                    <path d="M76.917,5.3496 L77.007,5.3496 L79.2972,12.744 L74.5842,12.744 L76.917,5.3496 Z M71.1804,1.0728 L71.1804,4.5786 L73.4694,4.5786 L68.1978,19.9794 L66.5898,19.9794 L66.5898,23.4846 L74.478,23.4846 L74.478,19.9794 L72.3744,19.9794 L73.6338,16.245 L80.1468,16.245 L81.4062,19.9794 L79.275,19.9794 L79.275,23.4846 L87.3882,23.4846 L87.3882,19.9794 L85.8888,19.9794 L80.7612,4.578 L83.0214,4.5786 L83.0214,1.0728 L71.1804,1.0728 L71.1804,1.0728 Z" id="Shape"></path>
                    <polygon id="Path" points="90.5754 1.0746 90.5754 4.5786 92.9034 4.5786 92.9034 19.9794 90.5754 19.9794 90.5754 23.4846 107.6904 23.4846 107.6904 16.4016 103.938 16.4016 103.938 19.9794 97.3752 19.9794 97.3752 13.5456 103.4712 13.5456 103.4712 9.8244 97.3752 9.8244 97.3752 4.578 103.938 4.578 103.938 7.1106 107.6904 7.1106 107.6904 1.0746"></polygon>
                    <polygon id="Path" points="111.7824 1.0728 111.7824 4.578 114.1158 4.578 114.1158 19.9794 111.7824 19.9794 111.7824 23.4846 120.894 23.4846 120.894 20.247 120.894 19.9794 118.5888 19.9794 118.5888 13.5444 125.1606 13.5444 125.1606 9.8244 118.5888 9.8244 118.5888 4.578 125.3844 4.578 125.3844 7.1106 129.1362 7.1106 129.1362 1.0728"></polygon>
                </g>
            </g>
        </g>
    </g>
</svg>