<?xml version="1.0" encoding="utf-8"?>
<!-- Generator: Adobe Illustrator 22.1.0, SVG Export Plug-In . SVG Version: 6.00 Build 0)  -->
<svg version="1.1" id="Ebene_1" xmlns="http://www.w3.org/2000/svg" xmlns:xlink="http://www.w3.org/1999/xlink" x="0px" y="0px"
	 viewBox="0 0 245 95.8" style="enable-background:new 0 0 245 95.8;" xml:space="preserve">
<style type="text/css">
	.st0{fill:#349653;}
	.st1{clip-path:url(#SVGID_2_);}
	.st2{fill:#9FA8AA;}
	.st3{fill:#C3CDD1;}
	.st4{clip-path:url(#SVGID_4_);}
	.st5{fill:#7B8286;}
	.st6{clip-path:url(#SVGID_6_);}
	.st7{fill:#E3E8EA;}
	.st8{clip-path:url(#SVGID_8_);}
	.st9{clip-path:url(#SVGID_10_);}
	.st10{clip-path:url(#SVGID_12_);}
	.st11{fill:#29A4B5;}
	.st12{clip-path:url(#SVGID_14_);}
	.st13{clip-path:url(#SVGID_16_);}
</style>
<title>403-Fehler</title>
<g>
	<polygon class="st0" points="236.8,63.7 239.9,32.2 221.1,32.2 224.1,63.7 	"/>
	<g>
		<defs>
			<rect id="SVGID_1_" y="0.2" width="245" height="95.1"/>
		</defs>
		<clipPath id="SVGID_2_">
			<use xlink:href="#SVGID_1_"  style="overflow:visible;"/>
		</clipPath>
		<g class="st1">
			<path class="st2" d="M94.4,50.6c-0.1-6.2,0.2-12.3,0.9-18.4H75.8c-0.9,6-1.4,12.1-1.3,18.2c0,4.8,0.2,9.3,0.6,13.3h19.5
				C94.5,60,94.4,55.7,94.4,50.6 M138.1,63.7c0.4-4,0.6-8.4,0.6-13.1c0-6.2-0.4-12.3-1.3-18.4h-19.3c0.6,6.1,0.9,12.3,0.9,18.4
				c0,5-0.1,9.4-0.4,13.1H138.1z"/>
		</g>
	</g>
	<polygon class="st3" points="40.4,32.2 40.4,62.8 17.7,62.8 38.3,32.2 21,32.2 0,62.8 0,63.7 71.1,63.7 71.1,62.8 58.7,62.8 
		58.7,32.2 	"/>
	<polygon class="st0" points="224.6,0.5 224.6,23.7 225.3,32.2 244.3,32.2 245,23.7 245,0.5 	"/>
	<g>
		<defs>
			<rect id="SVGID_3_" y="0.2" width="245" height="95.1"/>
		</defs>
		<clipPath id="SVGID_4_">
			<use xlink:href="#SVGID_3_"  style="overflow:visible;"/>
		</clipPath>
		<g class="st4">
			<path class="st5" d="M141.8,32.2c-1.5-9.4-4.3-16.6-8.3-21.7C128.1,3.6,120.7,0.2,111,0.2S94,3.6,88.7,10.3
				c-4.2,5.3-7,12.5-8.4,21.9h19.4c0.2-2.1,0.5-4.2,1.1-6.2c1-3.8,2.3-6.4,4.2-7.8c3.5-2.9,8.7-2.9,12.2,0c1.8,1.5,3.3,4.4,4.4,8.7
				c0.4,1.8,0.8,3.6,1,5.5L141.8,32.2L141.8,32.2z"/>
		</g>
	</g>
	<polygon class="st2" points="47.1,0.2 25.3,32.2 42.6,32.2 44.7,29 44.7,32.2 63.1,32.2 63.1,0.2 	"/>
	<polygon class="st0" points="227.7,63.7 228.6,73.8 239.3,73.8 240.2,63.7 	"/>
	<rect x="224.6" y="80.4" class="st0" width="18.9" height="14.9"/>
	<g>
		<defs>
			<rect id="SVGID_5_" y="0.2" width="245" height="95.1"/>
		</defs>
		<clipPath id="SVGID_6_">
			<use xlink:href="#SVGID_5_"  style="overflow:visible;"/>
		</clipPath>
		<g class="st6">
			<path class="st2" d="M78.7,63.7c1.1,12,3.9,20.6,8.3,26.1c1.6,2,3.5,3.8,5.5,5.4h35.8c1.6-1.3,3.1-2.8,4.4-4.4
				c4.9-6.1,7.8-15.1,9-27.1h-19.5c-0.2,3.9-0.7,7.7-1.6,11.5c-1,3.8-2.3,6.4-4.2,7.8c-3.5,2.9-8.7,2.9-12.2,0
				c-1.8-1.5-3.3-4.3-4.4-8.7c-0.8-3.5-1.3-7.1-1.5-10.7L78.7,63.7L78.7,63.7z"/>
		</g>
	</g>
	<polygon class="st7" points="3.4,63.7 3.4,79.4 43.8,79.4 43.8,95.3 62.2,95.3 62.2,79.4 74.5,79.4 74.5,63.7 	"/>
	<g>
		<defs>
			<rect id="SVGID_7_" x="146.1" y="-0.4" width="69.4" height="32.6"/>
		</defs>
		<clipPath id="SVGID_8_">
			<use xlink:href="#SVGID_7_"  style="overflow:visible;"/>
		</clipPath>
		<g class="st8">
			<path class="st2" d="M150.5,70.2l17.6-2.2c0.6,4.5,2.1,7.9,4.5,10.3c2.4,2.3,5.6,3.6,8.9,3.5c3.6,0,7.1-1.5,9.5-4.3
				c2.7-3.2,4.1-7.3,3.9-11.5c0.2-4-1.1-7.8-3.7-10.9c-2.3-2.6-5.6-4.1-9-4c-2.8,0.1-5.6,0.5-8.3,1.3l2-14.8c4.9,0.1,8.7-1,11.2-3.2
				c2.6-2.3,4-5.6,3.9-9c0.1-2.8-0.9-5.6-2.8-7.7c-2-2-4.8-3-7.6-2.8c-3,0-5.9,1.2-7.9,3.3c-2.4,2.6-3.8,5.9-4,9.4l-16.7-2.8
				c0.9-4.9,2.6-9.6,5.3-13.8c2.5-3.6,5.9-6.3,9.9-8.1c4.4-2,9.3-3,14.2-2.9c8.9,0,16.1,2.8,21.5,8.5c4.2,4.2,6.6,9.8,6.7,15.8
				c0,8.3-4.5,15-13.7,19.9c10.7,2,18.3,11.6,18,22.5c0.1,8.1-3.2,15.8-9.2,21.3c-6.1,5.9-14.3,9-22.7,8.8c-8.5,0-15.8-2.4-21.4-7.5
				C154.8,84.5,151.2,77.6,150.5,70.2z"/>
		</g>
	</g>
	<g>
		<defs>
			<rect id="SVGID_9_" x="141.2" y="32.2" width="69.4" height="31.5"/>
		</defs>
		<clipPath id="SVGID_10_">
			<use xlink:href="#SVGID_9_"  style="overflow:visible;"/>
		</clipPath>
		<g class="st9">
			<path class="st3" d="M145.6,70.2l17.6-2.2c0.6,4.5,2.1,7.9,4.5,10.3c2.4,2.3,5.6,3.6,8.9,3.5c3.6,0,7.1-1.5,9.5-4.3
				c2.7-3.2,4.1-7.3,3.9-11.5c0.2-4-1.1-7.8-3.7-10.9c-2.3-2.6-5.6-4.1-9-4c-2.8,0.1-5.6,0.5-8.3,1.3l2-14.8c4.9,0.1,8.7-1,11.2-3.2
				c2.6-2.3,4-5.6,3.9-9c0.1-2.8-0.9-5.6-2.8-7.7c-2-2-4.8-3-7.6-2.8c-3,0-5.9,1.2-7.9,3.3c-2.4,2.6-3.8,5.9-4,9.4L147,24.8
				c0.9-4.9,2.6-9.6,5.3-13.8c2.5-3.6,5.9-6.3,9.9-8.1c4.4-2,9.3-3,14.2-2.9c8.9,0,16.1,2.8,21.5,8.5c4.2,4.2,6.6,9.8,6.7,15.8
				c0,8.3-4.5,15-13.7,19.9c10.7,2,18.3,11.6,18,22.5c0.1,8.1-3.2,15.8-9.2,21.3c-6.1,5.9-14.3,9-22.7,8.8c-8.5,0-15.8-2.4-21.4-7.5
				C149.9,84.5,146.3,77.6,145.6,70.2z"/>
		</g>
	</g>
	<g>
		<defs>
			<rect id="SVGID_11_" x="146.1" y="63.7" width="69.4" height="33.5"/>
		</defs>
		<clipPath id="SVGID_12_">
			<use xlink:href="#SVGID_11_"  style="overflow:visible;"/>
		</clipPath>
		<g class="st10">
			<path class="st11" d="M150.5,70.2l17.6-2.2c0.6,4.5,2.1,7.9,4.5,10.3c2.4,2.3,5.6,3.6,8.9,3.5c3.6,0,7.1-1.5,9.5-4.3
				c2.7-3.2,4.1-7.3,3.9-11.5c0.2-4-1.1-7.8-3.7-10.9c-2.3-2.6-5.6-4.1-9-4c-2.8,0.1-5.6,0.5-8.3,1.3l2-14.8c4.9,0.1,8.7-1,11.2-3.2
				c2.6-2.3,4-5.6,3.9-9c0.1-2.8-0.9-5.6-2.8-7.7c-2-2-4.8-3-7.6-2.8c-3,0-5.9,1.2-7.9,3.3c-2.4,2.6-3.8,5.9-4,9.4l-16.7-2.8
				c0.9-4.9,2.6-9.6,5.3-13.8c2.5-3.6,5.9-6.3,9.9-8.1c4.4-2,9.3-3,14.2-2.9c8.9,0,16.1,2.8,21.5,8.5c4.2,4.2,6.6,9.8,6.7,15.8
				c0,8.3-4.5,15-13.7,19.9c10.7,2,18.3,11.6,18,22.5c0.1,8.1-3.2,15.8-9.2,21.3c-6.1,5.9-14.3,9-22.7,8.8c-8.5,0-15.8-2.4-21.4-7.5
				C154.8,84.5,151.2,77.6,150.5,70.2z"/>
		</g>
	</g>
	<g>
		<defs>
			<rect id="SVGID_13_" x="225.2" y="13.7" width="10.5" height="40.8"/>
		</defs>
		<clipPath id="SVGID_14_">
			<use xlink:href="#SVGID_13_"  style="overflow:visible;"/>
		</clipPath>
		<g class="st12">
			<path class="st7" d="M229,34.1c0.2,0.1,0.4,0.2,0.6,0.4c0.2,0.2,0.3,0.5,0.4,0.7c0.1,0.4,0.1,0.7,0.1,1.1v1h-3.5v-1.8
				c0-0.2,0.1-0.4,0.1-0.5c0.1-0.3,0.3-0.6,0.6-0.7c0.3-0.2,0.6-0.2,1-0.2C228.5,34,228.8,34,229,34.1 M235.6,32l-2.3,1.5
				c-0.2,0.1-0.5,0.4-0.7,0.5c-0.2,0.1-0.3,0.2-0.5,0.4c-0.1,0.1-0.2,0.1-0.2,0.2c0,0.1-0.1,0.1-0.2,0.2l-0.2,0.2l-0.2,0.2v-0.1
				c0-0.4-0.1-0.7-0.2-1.1c-0.1-0.3-0.3-0.6-0.6-0.9c-0.2-0.2-0.5-0.4-0.9-0.5c-0.4-0.1-0.7-0.1-1.1-0.1c-0.4,0-0.8,0.1-1.2,0.2
				c-0.3,0.2-0.6,0.4-0.9,0.6c-0.2,0.3-0.4,0.6-0.5,1c-0.2,0.5-0.2,1-0.2,1.5v2.8h10.1v-1.5h-4.5c0-0.2,0-0.4,0.1-0.5l0.4-0.4
				c0.2-0.1,0.4-0.4,0.6-0.5s0.4-0.2,0.5-0.4c0.2-0.1,0.4-0.3,0.6-0.4c0.3-0.1,0.6-0.3,0.9-0.5c0.1-0.1,0.3-0.2,0.5-0.2
				c0.1-0.1,0.2-0.1,0.4-0.2c0.1-0.1,0.2-0.1,0.4-0.1c0.1,0,0.2-0.1,0.4-0.2L235.6,32L235.6,32z M229,42.6c0.5,0.1,0.8,0.5,1,1
				c0.1,0.4,0.2,0.7,0.1,1.1v1h-3.5v-1.8c0-0.2,0.1-0.4,0.1-0.5c0.1-0.3,0.3-0.6,0.6-0.7c0.3-0.2,0.6-0.2,1-0.2
				C228.5,42.4,228.8,42.4,229,42.6 M235.6,40.4l-2.3,1.5c-0.2,0.1-0.5,0.4-0.7,0.5c-0.2,0.1-0.3,0.2-0.5,0.4
				c-0.1,0.1-0.2,0.1-0.2,0.2c0,0.1-0.1,0.1-0.2,0.2l-0.2,0.2l-0.2,0.2v-0.1c0-0.4-0.1-0.7-0.2-1.1c-0.1-0.3-0.3-0.6-0.6-0.9
				c-0.2-0.2-0.5-0.4-0.9-0.5c-0.4-0.1-0.7-0.1-1.1-0.1c-0.4,0-0.8,0.1-1.2,0.2c-0.3,0.2-0.6,0.4-0.9,0.6c-0.2,0.3-0.4,0.6-0.5,1
				c-0.2,0.5-0.2,1-0.2,1.5v2.8h10.1v-1.5h-4.5c0-0.2,0-0.4,0.1-0.5l0.4-0.4c0.2-0.1,0.4-0.4,0.6-0.5c0.2-0.1,0.3-0.2,0.5-0.4
				c0.2-0.1,0.4-0.3,0.6-0.4c0.3-0.1,0.6-0.3,0.9-0.5c0.1-0.1,0.3-0.2,0.5-0.2c0.1-0.1,0.2-0.1,0.4-0.2c0.1-0.1,0.2-0.1,0.4-0.1
				c0.1,0,0.2-0.1,0.4-0.2L235.6,40.4L235.6,40.4z M235.6,48.8h-1.2v4.3h-3.5v-3.3h-1.2v3.3h-3.1v-3.9l-1.2-0.2v5.5h10.1L235.6,48.8
				L235.6,48.8z"/>
		</g>
	</g>
	<g>
		<defs>
			<rect id="SVGID_15_" x="229.2" y="13.7" width="10.5" height="40.8"/>
		</defs>
		<clipPath id="SVGID_16_">
			<use xlink:href="#SVGID_15_"  style="overflow:visible;"/>
		</clipPath>
		<g class="st13">
			<path class="st7" d="M233,15.8c0.2,0.1,0.4,0.2,0.6,0.4c0.2,0.2,0.3,0.5,0.4,0.7c0.1,0.4,0.2,0.7,0.1,1.1v1h-3.5v-1.8
				c0-0.2,0.1-0.4,0.1-0.5c0.1-0.3,0.3-0.6,0.6-0.7c0.3-0.2,0.6-0.2,1-0.2C232.5,15.7,232.8,15.7,233,15.8 M239.5,13.7l-2.3,1.5
				c-0.2,0.1-0.5,0.4-0.7,0.5c-0.2,0.1-0.3,0.2-0.5,0.4c-0.1,0.1-0.2,0.1-0.2,0.2s-0.1,0.1-0.2,0.2l-0.2,0.2L235,17v-0.1
				c0-0.4-0.1-0.7-0.2-1.1c-0.1-0.3-0.3-0.6-0.6-0.9c-0.2-0.2-0.5-0.4-0.9-0.5c-0.4-0.1-0.7-0.1-1.1-0.1c-0.4,0-0.8,0.1-1.2,0.2
				c-0.3,0.2-0.6,0.4-0.9,0.6c-0.2,0.3-0.4,0.6-0.5,1c-0.2,0.5-0.2,1-0.2,1.5v2.8h10.1V19H235c0-0.2,0-0.4,0.1-0.5l0.4-0.4
				c0.2-0.1,0.4-0.4,0.6-0.5c0.2-0.1,0.3-0.2,0.5-0.4c0.2-0.1,0.4-0.3,0.6-0.4c0.3-0.1,0.6-0.3,0.9-0.5c0.1-0.1,0.3-0.2,0.5-0.2
				c0.1-0.1,0.2-0.1,0.4-0.2c0.1-0.1,0.2-0.1,0.4-0.1c0.1,0,0.2-0.1,0.4-0.2L239.5,13.7L239.5,13.7z M237.7,24.8
				c0.6,0.4,1,1.1,1,1.8c0,0.4-0.1,0.9-0.4,1.2c-0.2,0.3-0.5,0.6-0.9,0.9c-0.4,0.2-0.9,0.4-1.3,0.5c-0.6,0.1-1.2,0.2-1.8,0.1
				c-1,0.1-2-0.2-2.9-0.6c-0.7-0.4-1-1.2-1-2c0-0.4,0.1-0.8,0.2-1.2c0.2-0.3,0.5-0.6,0.9-0.7c0.4-0.2,0.9-0.4,1.3-0.5
				c0.6-0.1,1.2-0.2,1.8-0.1C235.7,24,236.8,24.3,237.7,24.8 M232.5,22.8c-0.6,0.1-1.2,0.4-1.7,0.7c-0.5,0.4-0.9,0.8-1.2,1.3
				c-0.3,0.6-0.5,1.3-0.5,2c0,0.6,0.1,1.2,0.4,1.7c0.3,0.5,0.6,0.9,1,1.3c0.5,0.4,1,0.7,1.6,0.9c0.7,0.2,1.5,0.3,2.2,0.2
				c0.7,0,1.4-0.1,2.1-0.2c0.6-0.2,1.2-0.4,1.7-0.7c0.5-0.3,0.9-0.8,1.1-1.3c0.3-0.6,0.4-1.2,0.4-1.8c0-0.6-0.1-1.2-0.4-1.7
				c-0.3-0.5-0.6-1-1.1-1.3c-0.5-0.4-1-0.6-1.6-0.9c-0.7-0.2-1.4-0.3-2.1-0.2C233.8,22.6,233.1,22.6,232.5,22.8"/>
		</g>
	</g>
</g>
</svg>
